# Blender 4.5.1 LTS
# www.blender.org
o Back_Right
v 1.000000 8.056418 -7.436606
v 1.000000 8.056418 -5.436605
v 1.000000 0.056416 -5.436604
v 1.000000 0.056416 -7.436604
v 3.000000 8.056418 -7.436606
v 1.000000 8.056418 -7.436606
v 1.000000 0.056416 -7.436604
v 3.000000 0.056416 -7.436604
v 3.000000 8.056418 -5.436605
v 3.000000 8.056418 -7.436606
v 3.000000 0.056416 -7.436604
v 3.000000 0.056416 -5.436604
v 1.000000 8.056418 -5.436605
v 3.000000 8.056418 -5.436605
v 3.000000 0.056416 -5.436604
v 1.000000 0.056416 -5.436604
v 1.000000 8.056418 -7.436606
v 3.000000 8.056418 -7.436606
v 3.000000 8.056418 -5.436605
v 1.000000 8.056418 -5.436605
v 3.000000 0.056416 -5.436604
v 3.000000 0.056416 -7.436604
v 1.000000 0.056416 -7.436604
v 1.000000 0.056416 -5.436604
v 2.000000 8.056418 -6.436605
vn -1.0000 -0.0000 -0.0000
vn -0.0000 -0.0000 -1.0000
vn 1.0000 -0.0000 -0.0000
vn -0.0000 -0.0000 1.0000
vn -0.0000 1.0000 -0.0000
vn -0.0000 -1.0000 -0.0000
vt 0.000000 0.437500
vt 0.031299 0.312500
vt 0.000000 0.312500
vt 0.031299 0.437500
vt 0.093680 0.437500
vt 0.125000 0.312500
vt 0.093680 0.312500
vt 0.125000 0.437500
vt 0.062500 0.437500
vt 0.093680 0.312500
vt 0.062500 0.312500
vt 0.093680 0.437500
vt 0.046917 0.296891
vt 0.062500 0.281281
vt 0.031334 0.281281
vt 0.093664 0.281251
s 0
f 4/1/1 2/2/1 1/3/1
f 4/1/1 3/4/1 2/2/1
f 8/5/2 6/6/2 5/7/2
f 8/5/2 7/8/2 6/6/2
f 12/9/3 10/10/3 9/11/3
f 12/9/3 11/12/3 10/10/3
f 16/4/4 14/11/4 13/2/4
f 16/4/4 15/9/4 14/11/4
f 25/13/5 17/14/5 20/15/5
f 19/2/5 25/13/5 20/15/5
f 24/14/6 22/10/6 21/11/6
f 24/14/6 23/16/6 22/10/6
f 25/13/5 18/11/5 17/14/5
f 19/2/5 18/11/5 25/13/5
