# Blender 4.5.1 LTS
# www.blender.org
o Body
v -3.000000 8.056418 1.563398
v -3.000000 8.056417 -7.436606
v 3.000000 8.056417 -7.436606
v 3.000000 8.056418 1.563398
v -3.000000 14.056421 1.563397
v 3.000000 14.056421 1.563397
v 3.000000 14.056419 -7.436607
v -3.000000 14.056419 -7.436607
v 3.000000 8.056418 1.563398
v 3.000000 8.056417 -7.436606
v 3.000000 14.056419 -7.436607
v 3.000000 14.056421 1.563397
v 3.000000 8.056417 -7.436606
v -3.000000 8.056417 -7.436606
v -3.000000 14.056419 -7.436607
v 3.000000 14.056419 -7.436607
v -3.000000 8.056417 -7.436606
v -3.000000 8.056418 1.563398
v -3.000000 14.056421 1.563397
v -3.000000 14.056419 -7.436607
v -4.000000 8.056418 7.563400
v -4.000000 8.056417 1.563398
v 4.000000 8.056417 1.563398
v 4.000000 8.056418 7.563400
v -4.000000 15.056421 7.563399
v 4.000000 15.056421 7.563399
v 4.000000 15.056419 1.563397
v -4.000000 15.056419 1.563397
v -4.000000 8.056418 7.563400
v 4.000000 8.056418 7.563400
v 4.000000 15.056421 7.563399
v -4.000000 15.056421 7.563399
v 4.000000 8.056418 7.563400
v 4.000000 8.056417 1.563398
v 4.000000 15.056419 1.563397
v 4.000000 15.056421 7.563399
v 4.000000 8.056417 1.563398
v -4.000000 8.056417 1.563398
v -4.000000 15.056419 1.563397
v 4.000000 15.056419 1.563397
v -4.000000 8.056417 1.563398
v -4.000000 8.056418 7.563400
v -4.000000 15.056421 7.563399
v -4.000000 15.056419 1.563397
v 0.000000 8.056418 7.563400
vn -0.0000 -1.0000 -0.0000
vn -0.0000 1.0000 -0.0000
vn 1.0000 -0.0000 -0.0000
vn -0.0000 -0.0000 -1.0000
vn -1.0000 -0.0000 -0.0000
vn -0.0000 -0.0000 1.0000
vt 0.375000 0.312500
vt 0.375000 0.453119
vt 0.468904 0.453119
vt 0.468904 0.312500
vt 0.656260 0.312500
vt 0.562500 0.312500
vt 0.562500 0.453119
vt 0.656260 0.453119
vt 0.562500 0.218760
vt 0.468891 0.218760
vt 0.281404 0.312500
vt 0.281404 0.453119
vt 0.437500 0.109643
vt 0.437500 0.200000
vt 0.562500 0.200000
vt 0.500000 0.109643
vt 0.796839 0.109643
vt 0.671819 0.109643
vt 0.671819 0.200000
vt 0.796839 0.200000
vt 0.562500 0.109643
vt 0.562500 0.000000
vt 0.437500 0.000000
vt 0.687177 0.109643
vt 0.687500 0.000000
vt 0.328154 0.109643
vt 0.328154 0.200000
s 0
f 1/1/1 2/2/1 3/3/1
f 1/1/1 3/3/1 4/4/1
f 5/5/2 6/6/2 7/7/2
f 5/5/2 7/7/2 8/8/2
f 9/4/3 10/3/3 11/7/3
f 9/4/3 11/7/3 12/6/3
f 13/9/4 14/10/4 15/4/4
f 13/9/4 15/4/4 16/6/4
f 17/2/5 18/1/5 19/11/5
f 17/2/5 19/11/5 20/12/5
f 21/13/1 22/14/1 23/15/1
f 23/15/1 45/16/1 21/13/1
f 25/17/2 26/18/2 27/19/2
f 25/17/2 27/19/2 28/20/2
f 29/13/6 30/21/6 31/22/6
f 29/13/6 31/22/6 32/23/6
f 33/21/3 34/15/3 35/19/3
f 33/21/3 35/19/3 36/18/3
f 37/24/4 38/21/4 39/22/4
f 37/24/4 39/22/4 40/25/4
f 41/14/5 42/13/5 43/26/5
f 41/14/5 43/26/5 44/27/5
f 23/15/1 24/21/1 45/16/1
