# Blender 4.5.1 LTS
# www.blender.org
mtllib Front_Left.mtl
o Body
v -3.000000 -0.000000 -6.000000
v -3.000000 -0.000001 -15.000002
v 3.000000 -0.000001 -15.000002
v 3.000000 -0.000000 -6.000000
v -3.000000 6.000001 -6.000001
v 3.000000 6.000001 -6.000001
v 3.000000 6.000000 -15.000003
v -3.000000 6.000000 -15.000003
v 3.000000 -0.000000 -6.000000
v 3.000000 -0.000001 -15.000002
v 3.000000 6.000000 -15.000003
v 3.000000 6.000001 -6.000001
v 3.000000 -0.000001 -15.000002
v -3.000000 -0.000001 -15.000002
v -3.000000 6.000000 -15.000003
v 3.000000 6.000000 -15.000003
v -3.000000 -0.000001 -15.000002
v -3.000000 -0.000000 -6.000000
v -3.000000 6.000001 -6.000001
v -3.000000 6.000000 -15.000003
v -4.000000 0.000000 0.000000
v -4.000000 -0.000001 -6.000000
v 4.000000 -0.000001 -6.000000
v 4.000000 0.000000 0.000000
v -4.000000 7.000001 -0.000000
v 4.000000 7.000001 -0.000000
v 4.000000 7.000000 -6.000001
v -4.000000 7.000000 -6.000001
v -4.000000 0.000000 0.000000
v 4.000000 0.000000 0.000000
v 4.000000 7.000001 -0.000000
v -4.000000 7.000001 -0.000000
v 4.000000 0.000000 0.000000
v 4.000000 -0.000001 -6.000000
v 4.000000 7.000000 -6.000001
v 4.000000 7.000001 -0.000000
v 4.000000 -0.000001 -6.000000
v -4.000000 -0.000001 -6.000000
v -4.000000 7.000000 -6.000001
v 4.000000 7.000000 -6.000001
v -4.000000 -0.000001 -6.000000
v -4.000000 0.000000 0.000000
v -4.000000 7.000001 -0.000000
v -4.000000 7.000000 -6.000001
v 0.000000 0.000000 0.000000
vn -0.0000 -1.0000 -0.0000
vn -0.0000 1.0000 -0.0000
vn 1.0000 -0.0000 -0.0000
vn -0.0000 -0.0000 -1.0000
vn -1.0000 -0.0000 -0.0000
vn -0.0000 -0.0000 1.0000
vt 0.375000 0.312500
vt 0.375000 0.453119
vt 0.468904 0.453119
vt 0.468904 0.312500
vt 0.656260 0.312500
vt 0.562500 0.312500
vt 0.562500 0.453119
vt 0.656260 0.453119
vt 0.562500 0.218760
vt 0.468891 0.218760
vt 0.281404 0.312500
vt 0.281404 0.453119
vt 0.437500 0.109643
vt 0.437500 0.200000
vt 0.562500 0.200000
vt 0.562500 0.109643
vt 0.500000 0.109643
vt 0.796839 0.109643
vt 0.671819 0.109643
vt 0.671819 0.200000
vt 0.796839 0.200000
vt 0.562500 0.000000
vt 0.437500 0.000000
vt 0.687177 0.109643
vt 0.687500 0.000000
vt 0.328154 0.109643
vt 0.328154 0.200000
s 0
usemtl 02_-_Default.001
f 1/1/1 2/2/1 3/3/1
f 1/1/1 3/3/1 4/4/1
f 5/5/2 6/6/2 7/7/2
f 5/5/2 7/7/2 8/8/2
f 9/4/3 10/3/3 11/7/3
f 9/4/3 11/7/3 12/6/3
f 13/9/4 14/10/4 15/4/4
f 13/9/4 15/4/4 16/6/4
f 17/2/5 18/1/5 19/11/5
f 17/2/5 19/11/5 20/12/5
f 21/13/1 22/14/1 23/15/1
f 21/13/1 23/15/1 24/16/1 45/17/1
f 25/18/2 26/19/2 27/20/2
f 25/18/2 27/20/2 28/21/2
f 29/13/6 30/16/6 31/22/6
f 29/13/6 31/22/6 32/23/6
f 33/16/3 34/15/3 35/20/3
f 33/16/3 35/20/3 36/19/3
f 37/24/4 38/16/4 39/22/4
f 37/24/4 39/22/4 40/25/4
f 41/14/5 42/13/5 43/26/5
f 41/14/5 43/26/5 44/27/5
o Front_Left
v -1.000000 -8.000001 1.000001
v -1.000000 -8.000001 -0.999999
v 1.000000 -8.000001 -0.999999
v 1.000000 -8.000001 1.000001
v -1.000000 0.000000 1.000000
v 1.000000 0.000000 1.000000
v 1.000000 -0.000000 -1.000000
v -1.000000 -0.000000 -1.000000
v -1.000000 -8.000001 1.000001
v 1.000000 -8.000001 1.000001
v 1.000000 0.000000 1.000000
v -1.000000 0.000000 1.000000
v 1.000000 -8.000001 1.000001
v 1.000000 -8.000001 -0.999999
v 1.000000 -0.000000 -1.000000
v 1.000000 0.000000 1.000000
v 1.000000 -8.000001 -0.999999
v -1.000000 -8.000001 -0.999999
v -1.000000 -0.000000 -1.000000
v 1.000000 -0.000000 -1.000000
v -1.000000 -8.000001 -0.999999
v -1.000000 -8.000001 1.000001
v -1.000000 0.000000 1.000000
v -1.000000 -0.000000 -1.000000
v 0.000000 0.000000 0.000000
vn -0.0000 -1.0000 -0.0000
vn -0.0000 1.0000 -0.0000
vn -0.0000 -0.0000 1.0000
vn 1.0000 -0.0000 -0.0000
vn -0.0000 -0.0000 -1.0000
vn -1.0000 -0.0000 -0.0000
vt 0.062500 0.281281
vt 0.093664 0.281251
vt 0.093680 0.312500
vt 0.062500 0.312500
vt 0.031334 0.281281
vt 0.031299 0.312500
vt 0.046917 0.296891
vt 0.031299 0.437500
vt 0.062500 0.437500
vt 0.093680 0.437500
vt 0.093680 0.437500
vt 0.125000 0.437500
vt 0.125000 0.312500
vt 0.093680 0.312500
vt 0.000000 0.437500
vt 0.000000 0.312500
s 0
usemtl 02_-_Default.001
f 46/28/7 47/29/7 48/30/7
f 46/28/7 48/30/7 49/31/7
f 50/32/8 51/33/8 52/31/8 70/34/8
f 50/32/8 70/34/8 52/31/8 53/28/8
f 54/35/9 55/36/9 56/31/9
f 54/35/9 56/31/9 57/33/9
f 58/36/10 59/37/10 60/30/10
f 58/36/10 60/30/10 61/31/10
f 62/38/11 63/39/11 64/40/11
f 62/38/11 64/40/11 65/41/11
f 66/42/12 67/35/12 68/33/12
f 66/42/12 68/33/12 69/43/12
o Front_Right
v -1.000000 -8.000001 1.000001
v -1.000000 -8.000001 -0.999999
v 1.000000 -8.000001 -0.999999
v 1.000000 -8.000001 1.000001
v -1.000000 0.000000 1.000000
v 1.000000 0.000000 1.000000
v 1.000000 -0.000000 -1.000000
v -1.000000 -0.000000 -1.000000
v -1.000000 -8.000001 1.000001
v 1.000000 -8.000001 1.000001
v 1.000000 0.000000 1.000000
v -1.000000 0.000000 1.000000
v 1.000000 -8.000001 1.000001
v 1.000000 -8.000001 -0.999999
v 1.000000 -0.000000 -1.000000
v 1.000000 0.000000 1.000000
v 1.000000 -8.000001 -0.999999
v -1.000000 -8.000001 -0.999999
v -1.000000 -0.000000 -1.000000
v 1.000000 -0.000000 -1.000000
v -1.000000 -8.000001 -0.999999
v -1.000000 -8.000001 1.000001
v -1.000000 0.000000 1.000000
v -1.000000 -0.000000 -1.000000
v 0.000000 0.000000 0.000000
vn -0.0000 -1.0000 -0.0000
vn -0.0000 1.0000 -0.0000
vn -0.0000 -0.0000 1.0000
vn 1.0000 -0.0000 -0.0000
vn -0.0000 -0.0000 -1.0000
vn -1.0000 -0.0000 -0.0000
vt 0.062500 0.281281
vt 0.093664 0.281251
vt 0.093680 0.312500
vt 0.062500 0.312500
vt 0.031334 0.281281
vt 0.031299 0.312500
vt 0.046917 0.296891
vt 0.031299 0.437500
vt 0.062500 0.437500
vt 0.093680 0.437500
vt 0.093680 0.437500
vt 0.125000 0.437500
vt 0.125000 0.312500
vt 0.093680 0.312500
vt 0.000000 0.437500
vt 0.000000 0.312500
s 0
usemtl 02_-_Default.001
f 71/44/13 72/45/13 73/46/13
f 71/44/13 73/46/13 74/47/13
f 75/48/14 76/49/14 77/47/14 95/50/14
f 75/48/14 95/50/14 77/47/14 78/44/14
f 79/51/15 80/52/15 81/47/15
f 79/51/15 81/47/15 82/49/15
f 83/52/16 84/53/16 85/46/16
f 83/52/16 85/46/16 86/47/16
f 87/54/17 88/55/17 89/56/17
f 87/54/17 89/56/17 90/57/17
f 91/58/18 92/51/18 93/49/18
f 91/58/18 93/49/18 94/59/18
o Back_Right
v -1.000000 -0.000001 -1.000000
v -1.000000 -0.000001 1.000000
v -1.000000 -8.000002 1.000001
v -1.000000 -8.000002 -0.999999
v 1.000000 -0.000001 -1.000000
v -1.000000 -0.000001 -1.000000
v -1.000000 -8.000002 -0.999999
v 1.000000 -8.000002 -0.999999
v 1.000000 -0.000001 1.000000
v 1.000000 -0.000001 -1.000000
v 1.000000 -8.000002 -0.999999
v 1.000000 -8.000002 1.000001
v -1.000000 -0.000001 1.000000
v 1.000000 -0.000001 1.000000
v 1.000000 -8.000002 1.000001
v -1.000000 -8.000002 1.000001
v -1.000000 -0.000001 -1.000000
v 1.000000 -0.000001 -1.000000
v 1.000000 -0.000001 1.000000
v -1.000000 -0.000001 1.000000
v 1.000000 -8.000002 1.000001
v 1.000000 -8.000002 -0.999999
v -1.000000 -8.000002 -0.999999
v -1.000000 -8.000002 1.000001
v -0.000000 -0.000001 0.000000
vn -1.0000 -0.0000 -0.0000
vn -0.0000 -0.0000 -1.0000
vn 1.0000 -0.0000 -0.0000
vn -0.0000 -0.0000 1.0000
vn -0.0000 1.0000 -0.0000
vn -0.0000 -1.0000 -0.0000
vt 0.000000 0.437500
vt 0.031299 0.312500
vt 0.000000 0.312500
vt 0.031299 0.437500
vt 0.093680 0.437500
vt 0.125000 0.312500
vt 0.093680 0.312500
vt 0.125000 0.437500
vt 0.062500 0.437500
vt 0.093680 0.312500
vt 0.062500 0.312500
vt 0.093680 0.437500
vt 0.031334 0.281281
vt 0.046917 0.296891
vt 0.062500 0.281281
vt 0.093664 0.281251
s 0
usemtl 02_-_Default.001
f 99/60/19 97/61/19 96/62/19
f 99/60/19 98/63/19 97/61/19
f 103/64/20 101/65/20 100/66/20
f 103/64/20 102/67/20 101/65/20
f 107/68/21 105/69/21 104/70/21
f 107/68/21 106/71/21 105/69/21
f 111/63/22 109/70/22 108/61/22
f 111/63/22 110/68/22 109/70/22
f 115/72/23 120/73/23 113/70/23 112/74/23
f 115/72/23 114/61/23 113/70/23 120/73/23
f 119/74/24 117/69/24 116/70/24
f 119/74/24 118/75/24 117/69/24
o Tail
v -1.000000 -0.819153 0.573576
v -1.000000 -5.407766 -5.979640
v 1.000000 -5.407766 -5.979640
v 1.000000 -0.819153 0.573576
v -1.000000 0.819152 -0.573577
v 1.000000 0.819152 -0.573577
v 1.000000 -3.769462 -7.126794
v -1.000000 -3.769462 -7.126794
v -1.000000 -0.819153 0.573576
v 1.000000 -0.819153 0.573576
v 1.000000 0.819152 -0.573577
v -1.000000 0.819152 -0.573577
v 1.000000 -0.819153 0.573576
v 1.000000 -5.407766 -5.979640
v 1.000000 -3.769462 -7.126794
v 1.000000 0.819152 -0.573577
v 1.000000 -5.407766 -5.979640
v -1.000000 -5.407766 -5.979640
v -1.000000 -3.769462 -7.126794
v 1.000000 -3.769462 -7.126794
v -1.000000 -5.407766 -5.979640
v -1.000000 -0.819153 0.573576
v -1.000000 0.819152 -0.573577
v -1.000000 -3.769462 -7.126794
v -0.000000 -0.000000 0.000000
vn -0.0000 -0.8192 0.5736
vn -0.0000 0.8192 -0.5736
vn -0.0000 0.5736 0.8192
vn 1.0000 -0.0000 -0.0000
vn -0.0000 -0.5736 -0.8192
vn -1.0000 -0.0000 -0.0000
vt 0.171922 0.312500
vt 0.171922 0.437500
vt 0.203087 0.437500
vt 0.203087 0.312500
vt 0.262500 0.312500
vt 0.234361 0.312500
vt 0.234361 0.437500
vt 0.262500 0.437500
vt 0.203087 0.281413
vt 0.187505 0.296956
vt 0.171922 0.281413
vt 0.234361 0.281314
vt 0.140674 0.312500
vt 0.140674 0.437500
s 0
usemtl 02_-_Default.001
f 121/76/25 122/77/25 123/78/25
f 121/76/25 123/78/25 124/79/25
f 125/80/26 126/81/26 127/82/26
f 125/80/26 127/82/26 128/83/26
f 129/76/27 130/79/27 131/84/27 145/85/27
f 129/76/27 145/85/27 131/84/27 132/86/27
f 133/79/28 134/78/28 135/82/28
f 133/79/28 135/82/28 136/81/28
f 137/81/29 138/79/29 139/84/29
f 137/81/29 139/84/29 140/87/29
f 141/77/30 142/76/30 143/88/30
f 141/77/30 143/88/30 144/89/30
