# Blender 5.1.1
# www.blender.org
o Glow
v 0.250000 0.687500 -0.250000
v 0.250000 0.687500 0.250000
v 0.250000 0.125000 -0.250000
v 0.250000 0.125000 0.250000
v -0.250000 0.687500 0.250000
v -0.250000 0.687500 -0.250000
v -0.250000 0.125000 0.250000
v -0.250000 0.125000 -0.250000
vn 1.0000 -0.0000 -0.0000
vn -1.0000 -0.0000 -0.0000
vn -0.0000 1.0000 -0.0000
vn -0.0000 -1.0000 -0.0000
vn -0.0000 -0.0000 1.0000
vn -0.0000 -0.0000 -1.0000
vt 0.933594 0.935547
vt 0.933594 0.064453
vt 0.066406 0.064453
vt 0.066406 0.935547
s 0
f 3/1/1 1/2/1 2/3/1
f 3/1/1 2/3/1 4/4/1
f 7/1/2 5/2/2 6/3/2
f 7/1/2 6/3/2 8/4/2
f 2/1/3 1/2/3 6/3/3
f 2/1/3 6/3/3 5/4/3
f 3/1/4 4/2/4 7/3/4
f 3/1/4 7/3/4 8/4/4
f 4/1/5 2/2/5 5/3/5
f 4/1/5 5/3/5 7/4/5
f 8/1/6 6/2/6 1/3/6
f 8/1/6 1/3/6 3/4/6
