# Blender 4.4.3
# www.blender.org
o LLeg
v -0.400000 0.100000 0.000000
v -0.400000 2.500000 0.000000
v -0.400000 0.100000 -0.800000
v -0.400000 2.500000 -0.800000
v 0.400000 0.100000 0.000000
v 0.400000 2.500000 0.000000
v 0.400000 0.100000 -0.800000
v 0.400000 2.500000 -0.800000
v 0.000000 2.500000 -0.400000
vn -1.0000 -0.0000 -0.0000
vn -0.0000 -0.0000 -1.0000
vn 1.0000 -0.0000 -0.0000
vn -0.0000 -0.0000 1.0000
vn -0.0000 -1.0000 -0.0000
vn -0.0000 1.0000 -0.0000
vt 0.500000 0.187500
vt 0.437500 0.000000
vt 0.500000 -0.000000
vt 0.437500 0.187500
vt 0.375000 0.000000
vt 0.375000 0.187500
vt 0.312500 0.000000
vt 0.312500 0.187500
vt 0.250000 0.000000
vt 0.437500 0.250000
vt 0.375000 0.250000
vt 0.343750 0.218750
vt 0.250000 0.187500
vt 0.312500 0.250000
s 1
f 2/1/1 3/2/1 1/3/1
f 4/4/2 7/5/2 3/2/2
f 8/6/3 5/7/3 7/5/3
f 6/8/4 1/9/4 5/7/4
f 7/6/5 1/10/5 3/11/5
f 9/12/6 8/6/6 4/11/6
f 2/1/1 4/4/1 3/2/1
f 4/4/2 8/6/2 7/5/2
f 8/6/3 6/8/3 5/7/3
f 6/8/4 2/13/4 1/9/4
f 7/6/5 5/4/5 1/10/5
f 2/14/6 9/12/6 4/11/6
f 9/12/6 6/8/6 8/6/6
f 2/14/6 6/8/6 9/12/6
