# Blender 4.3.2
# www.blender.org
mtllib Monkey.mtl
o Circle
v 0.000000 0.000000 -1.939704
v -0.378418 0.000000 -1.902433
v -0.742293 0.000000 -1.792053
v -1.077642 0.000000 -1.612805
v -1.371578 0.000000 -1.371578
v -1.612805 0.000000 -1.077642
v -1.792053 0.000000 -0.742293
v -1.902433 0.000000 -0.378418
v -1.939704 0.000000 0.000000
v -1.902433 0.000000 0.378418
v -1.792053 0.000000 0.742293
v -1.612805 0.000000 1.077642
v -1.371578 0.000000 1.371578
v -1.077642 0.000000 1.612805
v -0.742293 0.000000 1.792053
v -0.378418 0.000000 1.902433
v 0.000000 0.000000 1.939704
v 0.378418 0.000000 1.902433
v 0.742293 0.000000 1.792053
v 1.077642 0.000000 1.612805
v 1.371578 0.000000 1.371578
v 1.612805 0.000000 1.077642
v 1.792053 0.000000 0.742293
v 1.902433 0.000000 0.378418
v 1.939704 0.000000 0.000000
v 1.902433 0.000000 -0.378418
v 1.792053 0.000000 -0.742293
v 1.612805 0.000000 -1.077642
v 1.371578 0.000000 -1.371578
v 1.077642 0.000000 -1.612805
v 0.742293 0.000000 -1.792053
v 0.378418 0.000000 -1.902433
v -0.516010 4.246941 -2.594155
v 0.000000 4.246941 -2.644978
v -1.012189 4.246941 -2.443641
v -1.469471 4.246941 -2.199218
v -1.870282 4.246941 -1.870282
v -2.199218 4.246941 -1.469471
v -2.443641 4.246941 -1.012189
v -2.594155 4.246941 -0.516010
v -2.644978 4.246941 -0.000000
v -2.594155 4.246941 0.516010
v -2.443641 4.246941 1.012189
v -2.199218 4.246941 1.469471
v -1.870282 4.246941 1.870282
v -1.469471 4.246941 2.199218
v -1.012189 4.246941 2.443641
v -0.516010 4.246941 2.594155
v 0.000000 4.246941 2.644978
v 0.516010 4.246941 2.594155
v 1.012189 4.246941 2.443641
v 1.469471 4.246941 2.199218
v 1.870282 4.246941 1.870282
v 2.199218 4.246941 1.469471
v 2.443641 4.246941 1.012189
v 2.594155 4.246941 0.516010
v 2.644978 4.246941 -0.000000
v 2.594155 4.246941 -0.516010
v 2.443641 4.246941 -1.012189
v 2.199218 4.246941 -1.469471
v 1.870282 4.246941 -1.870282
v 1.469471 4.246941 -2.199218
v 1.012189 4.246941 -2.443641
v 0.516010 4.246941 -2.594155
v -0.378418 4.552340 -1.902433
v 0.000000 4.552340 -1.939704
v -0.742293 4.552340 -1.792053
v -1.077642 4.552340 -1.612805
v -1.371578 4.552340 -1.371578
v -1.612805 4.552340 -1.077642
v -1.792053 4.552340 -0.742293
v -1.902433 4.552340 -0.378418
v -1.939704 4.552340 0.000000
v -1.902433 4.552340 0.378418
v -1.792053 4.552340 0.742293
v -1.612805 4.552340 1.077642
v -1.371578 4.552340 1.371578
v -1.077642 4.552340 1.612805
v -0.742293 4.552340 1.792053
v -0.378418 4.552340 1.902433
v 0.000000 4.552340 1.939704
v 0.378418 4.552340 1.902433
v 0.742293 4.552340 1.792053
v 1.077642 4.552340 1.612805
v 1.371578 4.552340 1.371578
v 1.612805 4.552340 1.077642
v 1.792053 4.552340 0.742293
v 1.902433 4.552340 0.378418
v 1.939704 4.552340 0.000000
v 1.902433 4.552340 -0.378418
v 1.792053 4.552340 -0.742293
v 1.612805 4.552340 -1.077642
v 1.371578 4.552340 -1.371578
v 1.077642 4.552340 -1.612805
v 0.742293 4.552340 -1.792053
v 0.378418 4.552340 -1.902433
v -0.516010 4.552340 -2.594155
v 0.000000 4.552340 -2.644978
v -1.012189 4.552340 -2.443641
v -1.469471 4.552340 -2.199218
v -1.870282 4.552340 -1.870282
v -2.199218 4.552340 -1.469471
v -2.443641 4.552340 -1.012189
v -2.594155 4.552340 -0.516010
v -2.644978 4.552340 -0.000000
v -2.594155 4.552340 0.516010
v -2.443641 4.552340 1.012189
v -2.199218 4.552340 1.469471
v -1.870282 4.552340 1.870282
v -1.469471 4.552340 2.199218
v -1.012189 4.552340 2.443641
v -0.516010 4.552340 2.594155
v 0.000000 4.552340 2.644978
v 0.516010 4.552340 2.594155
v 1.012189 4.552340 2.443641
v 1.469471 4.552340 2.199218
v 1.870282 4.552340 1.870282
v 2.199218 4.552340 1.469471
v 2.443641 4.552340 1.012189
v 2.594155 4.552340 0.516010
v 2.644978 4.552340 -0.000000
v 2.594155 4.552340 -0.516010
v 2.443641 4.552340 -1.012189
v 2.199218 4.552340 -1.469471
v 1.870282 4.552340 -1.870282
v 1.469471 4.552340 -2.199218
v 1.012189 4.552340 -2.443641
v 0.516010 4.552340 -2.594155
v -0.742293 5.100506 -1.792053
v -0.378418 5.100506 -1.902433
v -1.371578 5.100506 -1.371578
v -1.077642 5.100506 -1.612805
v -1.792053 5.100506 -0.742293
v -1.612805 5.100506 -1.077642
v -1.939704 5.100506 0.000000
v -1.902433 5.100506 -0.378418
v -1.792053 5.100506 0.742293
v -1.902433 5.100506 0.378418
v -1.371578 5.100506 1.371578
v -1.612805 5.100506 1.077642
v -0.742293 5.100506 1.792053
v -1.077642 5.100506 1.612805
v 0.000000 5.100506 1.939704
v -0.378418 5.100506 1.902433
v 0.742293 5.100506 1.792053
v 0.378418 5.100506 1.902433
v 1.371578 5.100506 1.371578
v 1.077642 5.100506 1.612805
v 1.792053 5.100506 0.742293
v 1.612805 5.100506 1.077642
v 1.939704 5.100506 0.000000
v 1.902433 5.100506 0.378418
v 1.792053 5.100506 -0.742293
v 1.902433 5.100506 -0.378418
v 1.371578 5.100506 -1.371578
v 1.612805 5.100506 -1.077642
v 0.742293 5.100506 -1.792053
v 1.077642 5.100506 -1.612805
v 0.000000 5.100506 -1.939704
v 0.378418 5.100506 -1.902433
v -1.012189 5.100506 -2.443641
v -0.516010 5.100506 -2.594155
v -1.870282 5.100506 -1.870282
v -1.469471 5.100506 -2.199218
v -2.443641 5.100506 -1.012189
v -2.199218 5.100506 -1.469471
v -2.644978 5.100506 -0.000000
v -2.594155 5.100506 -0.516010
v -2.443641 5.100506 1.012189
v -2.594155 5.100506 0.516010
v -1.870282 5.100506 1.870282
v -2.199218 5.100506 1.469471
v -1.012189 5.100506 2.443641
v -1.469471 5.100506 2.199218
v 0.000000 5.100506 2.644978
v -0.516010 5.100506 2.594155
v 1.012189 5.100506 2.443641
v 0.516010 5.100506 2.594155
v 1.870282 5.100506 1.870282
v 1.469471 5.100506 2.199218
v 2.443641 5.100506 1.012189
v 2.199218 5.100506 1.469471
v 2.644978 5.100506 -0.000000
v 2.594155 5.100506 0.516010
v 2.443641 5.100506 -1.012189
v 2.594155 5.100506 -0.516010
v 1.870282 5.100506 -1.870282
v 2.199218 5.100506 -1.469471
v 1.012189 5.100506 -2.443641
v 1.469471 5.100506 -2.199218
v 0.000000 5.100506 -2.644978
v 0.516010 5.100506 -2.594155
v 0.000000 1.618367 -1.939704
v 0.378418 1.324862 -1.902433
v -0.378418 1.324862 -1.902433
v 0.000000 0.000000 -1.960503
v -0.378418 0.000000 -1.923232
v 0.378418 0.000000 -1.923232
v 0.000000 1.618367 -1.960503
v 0.378418 1.324862 -1.923232
v -0.378418 1.324862 -1.923232
v 0.000000 1.724237 -1.960503
v 0.378418 1.430732 -1.923232
v -0.378418 1.430732 -1.923232
v -0.487702 0.000000 -1.923232
v 0.487702 0.000000 -1.923232
v 0.487702 1.324862 -1.923232
v -0.487702 1.324862 -1.923232
v 0.487702 1.430732 -1.923232
v -0.487702 1.430732 -1.923232
v 0.000000 1.724237 -1.872807
v 0.378418 1.430732 -1.835536
v -0.378418 1.430732 -1.835536
v -0.487702 0.000000 -1.835536
v 0.487702 0.000000 -1.835536
v 0.487702 1.324862 -1.835536
v -0.487702 1.324862 -1.835536
v 0.487702 1.430732 -1.835536
v -0.487702 1.430732 -1.835536
vn -0.0000 -1.0000 -0.0000
vn -0.0980 -0.0000 -0.9952
vn 0.0980 -0.0000 -0.9952
vn 0.2903 -0.0000 0.9569
vn -0.7730 -0.0000 -0.6344
vn 0.2903 -0.0000 -0.9569
vn 0.0980 -0.0000 0.9952
vn -0.6344 -0.0000 -0.7730
vn 0.4714 -0.0000 -0.8819
vn -0.0980 -0.0000 0.9952
vn -0.4714 -0.0000 -0.8819
vn 0.6344 -0.0000 -0.7730
vn -0.2903 -0.0000 0.9569
vn -0.2903 -0.0000 -0.9569
vn 0.7730 -0.0000 -0.6344
vn -0.4714 -0.0000 0.8819
vn 0.8819 -0.0000 -0.4714
vn -0.6344 -0.0000 0.7730
vn 0.9569 -0.0000 -0.2903
vn -0.7730 -0.0000 0.6344
vn 0.9952 -0.0000 -0.0980
vn -0.8819 -0.0000 0.4714
vn 0.9952 -0.0000 0.0980
vn -0.9569 -0.0000 0.2903
vn 0.9569 -0.0000 0.2903
vn -0.9952 -0.0000 0.0980
vn 0.8819 -0.0000 0.4714
vn -0.9952 -0.0000 -0.0980
vn 0.7730 -0.0000 0.6344
vn -0.9569 -0.0000 -0.2903
vn -0.0000 1.0000 -0.0000
vn 0.6344 -0.0000 0.7730
vn -0.8819 -0.0000 -0.4714
vn -0.3827 -0.0000 -0.9239
vn 0.7071 -0.0000 0.7071
vn 0.1951 -0.0000 0.9808
vn -0.5556 -0.0000 -0.8315
vn -0.0000 -0.0000 -1.0000
vn 0.3827 -0.0000 0.9239
vn -0.1951 -0.0000 0.9808
vn -0.1951 -0.0000 -0.9808
vn 0.4714 -0.0000 0.8819
vn -0.8315 -0.0000 -0.5556
vn 0.5556 -0.0000 0.8315
vn 0.9239 -0.0000 0.3827
vn 0.9808 -0.0000 -0.1951
vn -1.0000 -0.0000 -0.0000
vn -0.7071 -0.0000 -0.7071
vn -0.9808 -0.0000 -0.1951
vn -0.9239 -0.0000 0.3827
vn 0.8315 -0.0000 0.5556
vn 1.0000 -0.0000 -0.0000
vn 0.8315 -0.0000 -0.5556
vn -0.9239 -0.0000 -0.3827
vn -0.9808 -0.0000 0.1951
vn -0.7071 -0.0000 0.7071
vn -0.5556 -0.0000 0.8315
vn 0.9808 -0.0000 0.1951
vn 0.7071 -0.0000 -0.7071
vn 0.9239 -0.0000 -0.3827
vn -0.0000 -0.0000 1.0000
vn 0.5556 -0.0000 -0.8315
vn 0.1951 -0.0000 -0.9808
vn -0.8315 -0.0000 0.5556
vn 0.3827 -0.0000 -0.9239
vn -0.3827 -0.0000 0.9239
vn 0.6129 0.7902 -0.0000
vn -0.6129 0.7902 -0.0000
vn 0.6129 -0.7902 -0.0000
vn -0.6129 -0.7902 -0.0000
vt 0.000000 0.000000
s 0
f 19/1/1 11/1/1 3/1/1
f 65/1/2 193/1/2 195/1/2
f 64/1/3 34/1/3 98/1/3
f 61/1/1 49/1/1 34/1/1
f 19/1/4 82/1/4 18/1/4
f 37/1/5 38/1/5 102/1/5
f 63/1/6 64/1/6 128/1/6
f 82/1/7 17/1/7 18/1/7
f 36/1/8 37/1/8 101/1/8
f 62/1/9 63/1/9 127/1/9
f 81/1/10 16/1/10 17/1/10
f 35/1/11 36/1/11 100/1/11
f 61/1/12 62/1/12 126/1/12
f 80/1/13 15/1/13 16/1/13
f 33/1/14 35/1/14 99/1/14
f 60/1/15 61/1/15 125/1/15
f 79/1/16 14/1/16 15/1/16
f 34/1/2 33/1/2 97/1/2
f 59/1/17 60/1/17 124/1/17
f 78/1/18 13/1/18 14/1/18
f 58/1/19 59/1/19 123/1/19
f 77/1/20 12/1/20 13/1/20
f 57/1/21 58/1/21 122/1/21
f 76/1/22 11/1/22 12/1/22
f 56/1/23 57/1/23 121/1/23
f 75/1/24 10/1/24 11/1/24
f 55/1/25 56/1/25 120/1/25
f 74/1/26 9/1/26 10/1/26
f 54/1/27 55/1/27 119/1/27
f 73/1/28 8/1/28 9/1/28
f 53/1/29 54/1/29 118/1/29
f 72/1/30 7/1/30 8/1/30
f 81/1/31 89/1/31 66/1/31
f 52/1/32 53/1/32 117/1/32
f 71/1/33 6/1/33 7/1/33
f 86/1/31 85/1/31 117/1/31
f 123/1/34 91/1/34 153/1/34
f 89/1/28 88/1/28 152/1/28
f 73/1/31 105/1/31 106/1/31
f 87/1/31 119/1/31 120/1/31
f 114/1/4 115/1/4 177/1/4
f 109/1/35 77/1/35 139/1/35
f 76/1/31 75/1/31 107/1/31
f 89/1/31 121/1/31 122/1/31
f 90/1/36 122/1/36 186/1/36
f 87/1/33 86/1/33 150/1/33
f 78/1/31 77/1/31 109/1/31
f 92/1/31 91/1/31 123/1/31
f 112/1/10 113/1/10 175/1/10
f 66/1/31 98/1/31 97/1/31
f 76/1/37 108/1/37 172/1/37
f 79/1/31 111/1/31 112/1/31
f 121/1/38 89/1/38 151/1/38
f 94/1/31 93/1/31 125/1/31
f 85/1/8 84/1/8 148/1/8
f 68/1/31 67/1/31 99/1/31
f 110/1/16 111/1/16 173/1/16
f 81/1/31 113/1/31 114/1/31
f 107/1/39 75/1/39 137/1/39
f 95/1/31 127/1/31 128/1/31
f 88/1/40 120/1/40 184/1/40
f 70/1/31 69/1/31 101/1/31
f 83/1/14 82/1/14 146/1/14
f 84/1/31 83/1/31 115/1/31
f 108/1/20 109/1/20 171/1/20
f 74/1/41 106/1/41 170/1/41
f 71/1/31 103/1/31 104/1/31
f 38/1/33 39/1/33 103/1/33
f 84/1/42 19/1/42 20/1/42
f 39/1/30 40/1/30 104/1/30
f 85/1/32 20/1/32 21/1/32
f 40/1/28 41/1/28 105/1/28
f 86/1/29 21/1/29 22/1/29
f 41/1/26 42/1/26 106/1/26
f 87/1/27 22/1/27 23/1/27
f 42/1/24 43/1/24 107/1/24
f 88/1/25 23/1/25 24/1/25
f 43/1/22 44/1/22 108/1/22
f 89/1/23 24/1/23 25/1/23
f 44/1/20 45/1/20 109/1/20
f 90/1/21 25/1/21 26/1/21
f 45/1/18 46/1/18 110/1/18
f 91/1/19 26/1/19 27/1/19
f 46/1/16 47/1/16 111/1/16
f 92/1/17 27/1/17 28/1/17
f 47/1/13 48/1/13 112/1/13
f 93/1/15 28/1/15 29/1/15
f 67/1/14 65/1/14 195/1/14
f 48/1/10 49/1/10 113/1/10
f 94/1/12 29/1/12 30/1/12
f 68/1/11 3/1/11 4/1/11
f 49/1/7 50/1/7 114/1/7
f 95/1/9 30/1/9 31/1/9
f 69/1/8 4/1/8 5/1/8
f 50/1/4 51/1/4 115/1/4
f 194/1/6 95/1/6 31/1/6
f 70/1/5 5/1/5 6/1/5
f 51/1/42 52/1/42 116/1/42
f 193/1/3 96/1/3 194/1/3
f 135/1/31 136/1/31 168/1/31
f 149/1/31 150/1/31 182/1/31
f 137/1/31 138/1/31 170/1/31
f 151/1/31 152/1/31 184/1/31
f 140/1/31 172/1/31 171/1/31
f 153/1/31 154/1/31 186/1/31
f 141/1/31 142/1/31 174/1/31
f 156/1/31 188/1/31 187/1/31
f 129/1/31 130/1/31 162/1/31
f 143/1/31 144/1/31 176/1/31
f 157/1/31 158/1/31 190/1/31
f 132/1/31 164/1/31 163/1/31
f 145/1/31 146/1/31 178/1/31
f 159/1/31 160/1/31 192/1/31
f 133/1/31 134/1/31 166/1/31
f 148/1/31 180/1/31 179/1/31
f 78/1/43 110/1/43 174/1/43
f 116/1/32 117/1/32 179/1/32
f 91/1/24 90/1/24 154/1/24
f 92/1/44 124/1/44 188/1/44
f 111/1/45 79/1/45 141/1/45
f 118/1/27 119/1/27 181/1/27
f 93/1/20 92/1/20 156/1/20
f 67/1/4 65/1/4 130/1/4
f 65/1/46 97/1/46 162/1/46
f 98/1/47 66/1/47 159/1/47
f 120/1/23 121/1/23 183/1/23
f 95/1/16 94/1/16 158/1/16
f 69/1/32 68/1/32 132/1/32
f 125/1/48 93/1/48 155/1/48
f 80/1/49 112/1/49 176/1/49
f 122/1/19 123/1/19 185/1/19
f 66/1/10 96/1/10 160/1/10
f 71/1/27 70/1/27 134/1/27
f 99/1/50 67/1/50 129/1/50
f 94/1/51 126/1/51 190/1/51
f 124/1/15 125/1/15 187/1/15
f 97/1/14 99/1/14 161/1/14
f 73/1/23 72/1/23 136/1/23
f 113/1/52 81/1/52 143/1/52
f 68/1/53 100/1/53 164/1/53
f 126/1/9 127/1/9 189/1/9
f 100/1/8 101/1/8 163/1/8
f 75/1/19 74/1/19 138/1/19
f 127/1/54 95/1/54 157/1/54
f 82/1/55 114/1/55 178/1/55
f 128/1/3 98/1/3 191/1/3
f 102/1/33 103/1/33 165/1/33
f 77/1/15 76/1/15 140/1/15
f 101/1/56 69/1/56 131/1/56
f 86/1/57 118/1/57 182/1/57
f 96/1/58 128/1/58 192/1/58
f 117/1/59 85/1/59 147/1/59
f 104/1/28 105/1/28 167/1/28
f 79/1/9 78/1/9 142/1/9
f 115/1/60 83/1/60 145/1/60
f 105/1/61 73/1/61 135/1/61
f 70/1/62 102/1/62 166/1/62
f 72/1/63 104/1/63 168/1/63
f 106/1/24 107/1/24 169/1/24
f 81/1/3 80/1/3 144/1/3
f 84/1/64 116/1/64 180/1/64
f 119/1/65 87/1/65 149/1/65
f 103/1/66 71/1/66 133/1/66
f 193/1/67 200/1/67 199/1/67
f 195/1/47 197/1/47 2/1/47
f 193/1/68 201/1/68 195/1/68
f 32/1/52 200/1/52 194/1/52
f 1/1/1 197/1/1 196/1/1
f 1/1/1 198/1/1 32/1/1
f 199/1/10 203/1/10 202/1/10
f 199/1/7 204/1/7 201/1/7
f 204/1/61 208/1/61 201/1/61
f 201/1/61 205/1/61 197/1/61
f 200/1/61 209/1/61 203/1/61
f 198/1/61 207/1/61 200/1/61
f 208/1/52 214/1/52 205/1/52
f 204/1/69 211/1/69 213/1/69
f 207/1/47 218/1/47 209/1/47
f 206/1/47 216/1/47 207/1/47
f 209/1/1 212/1/1 203/1/1
f 203/1/70 211/1/70 202/1/70
f 204/1/1 219/1/1 210/1/1
f 210/1/52 217/1/52 208/1/52
f 3/1/1 2/1/1 1/1/1
f 1/1/1 32/1/1 3/1/1
f 32/1/1 31/1/1 3/1/1
f 31/1/1 30/1/1 29/1/1
f 29/1/1 28/1/1 27/1/1
f 27/1/1 26/1/1 25/1/1
f 25/1/1 24/1/1 27/1/1
f 24/1/1 23/1/1 27/1/1
f 23/1/1 22/1/1 21/1/1
f 21/1/1 20/1/1 19/1/1
f 19/1/1 18/1/1 15/1/1
f 18/1/1 17/1/1 15/1/1
f 17/1/1 16/1/1 15/1/1
f 15/1/1 14/1/1 13/1/1
f 13/1/1 12/1/1 11/1/1
f 11/1/1 10/1/1 7/1/1
f 10/1/1 9/1/1 7/1/1
f 9/1/1 8/1/1 7/1/1
f 7/1/1 6/1/1 5/1/1
f 5/1/1 4/1/1 3/1/1
f 31/1/1 29/1/1 3/1/1
f 29/1/1 27/1/1 3/1/1
f 23/1/1 21/1/1 27/1/1
f 21/1/1 19/1/1 27/1/1
f 15/1/1 13/1/1 19/1/1
f 13/1/1 11/1/1 19/1/1
f 7/1/1 5/1/1 11/1/1
f 5/1/1 3/1/1 11/1/1
f 3/1/1 27/1/1 19/1/1
f 65/1/2 66/1/2 193/1/2
f 64/1/3 98/1/3 128/1/3
f 34/1/1 37/1/1 33/1/1
f 33/1/1 37/1/1 35/1/1
f 35/1/1 37/1/1 36/1/1
f 37/1/1 39/1/1 38/1/1
f 39/1/1 37/1/1 40/1/1
f 40/1/1 37/1/1 41/1/1
f 41/1/1 45/1/1 42/1/1
f 42/1/1 45/1/1 43/1/1
f 43/1/1 45/1/1 44/1/1
f 45/1/1 47/1/1 46/1/1
f 47/1/1 45/1/1 48/1/1
f 48/1/1 45/1/1 49/1/1
f 49/1/1 53/1/1 50/1/1
f 50/1/1 53/1/1 51/1/1
f 51/1/1 53/1/1 52/1/1
f 53/1/1 55/1/1 54/1/1
f 55/1/1 53/1/1 56/1/1
f 56/1/1 53/1/1 57/1/1
f 57/1/1 61/1/1 58/1/1
f 58/1/1 61/1/1 59/1/1
f 59/1/1 61/1/1 60/1/1
f 61/1/1 63/1/1 62/1/1
f 63/1/1 61/1/1 64/1/1
f 64/1/1 61/1/1 34/1/1
f 34/1/1 41/1/1 37/1/1
f 41/1/1 34/1/1 45/1/1
f 45/1/1 34/1/1 49/1/1
f 49/1/1 57/1/1 53/1/1
f 57/1/1 49/1/1 61/1/1
f 19/1/4 83/1/4 82/1/4
f 37/1/5 102/1/5 101/1/5
f 63/1/6 128/1/6 127/1/6
f 82/1/7 81/1/7 17/1/7
f 36/1/8 101/1/8 100/1/8
f 62/1/9 127/1/9 126/1/9
f 81/1/10 80/1/10 16/1/10
f 35/1/11 100/1/11 99/1/11
f 61/1/12 126/1/12 125/1/12
f 80/1/13 79/1/13 15/1/13
f 33/1/14 99/1/14 97/1/14
f 60/1/15 125/1/15 124/1/15
f 79/1/16 78/1/16 14/1/16
f 34/1/2 97/1/2 98/1/2
f 59/1/17 124/1/17 123/1/17
f 78/1/18 77/1/18 13/1/18
f 58/1/19 123/1/19 122/1/19
f 77/1/20 76/1/20 12/1/20
f 57/1/21 122/1/21 121/1/21
f 76/1/22 75/1/22 11/1/22
f 56/1/23 121/1/23 120/1/23
f 75/1/24 74/1/24 10/1/24
f 55/1/25 120/1/25 119/1/25
f 74/1/26 73/1/26 9/1/26
f 54/1/27 119/1/27 118/1/27
f 73/1/28 72/1/28 8/1/28
f 53/1/29 118/1/29 117/1/29
f 72/1/30 71/1/30 7/1/30
f 66/1/31 65/1/31 69/1/31
f 65/1/31 67/1/31 69/1/31
f 67/1/31 68/1/31 69/1/31
f 69/1/31 70/1/31 71/1/31
f 71/1/31 72/1/31 69/1/31
f 72/1/31 73/1/31 69/1/31
f 73/1/31 74/1/31 77/1/31
f 74/1/31 75/1/31 77/1/31
f 75/1/31 76/1/31 77/1/31
f 77/1/31 78/1/31 79/1/31
f 79/1/31 80/1/31 77/1/31
f 80/1/31 81/1/31 77/1/31
f 81/1/31 82/1/31 85/1/31
f 82/1/31 83/1/31 85/1/31
f 83/1/31 84/1/31 85/1/31
f 85/1/31 86/1/31 87/1/31
f 87/1/31 88/1/31 85/1/31
f 88/1/31 89/1/31 85/1/31
f 89/1/31 90/1/31 93/1/31
f 90/1/31 91/1/31 93/1/31
f 91/1/31 92/1/31 93/1/31
f 93/1/31 94/1/31 95/1/31
f 95/1/31 96/1/31 93/1/31
f 96/1/31 66/1/31 93/1/31
f 66/1/31 69/1/31 73/1/31
f 73/1/31 77/1/31 81/1/31
f 81/1/31 85/1/31 89/1/31
f 89/1/31 93/1/31 66/1/31
f 66/1/31 73/1/31 81/1/31
f 52/1/32 117/1/32 116/1/32
f 71/1/33 70/1/33 6/1/33
f 86/1/31 117/1/31 118/1/31
f 123/1/34 153/1/34 185/1/34
f 89/1/28 152/1/28 151/1/28
f 73/1/31 106/1/31 74/1/31
f 87/1/31 120/1/31 88/1/31
f 114/1/4 177/1/4 178/1/4
f 109/1/35 139/1/35 171/1/35
f 76/1/31 107/1/31 108/1/31
f 89/1/31 122/1/31 90/1/31
f 90/1/36 186/1/36 154/1/36
f 87/1/33 150/1/33 149/1/33
f 78/1/31 109/1/31 110/1/31
f 92/1/31 123/1/31 124/1/31
f 112/1/10 175/1/10 176/1/10
f 66/1/31 97/1/31 65/1/31
f 76/1/37 172/1/37 140/1/37
f 79/1/31 112/1/31 80/1/31
f 121/1/38 151/1/38 183/1/38
f 94/1/31 125/1/31 126/1/31
f 85/1/8 148/1/8 147/1/8
f 68/1/31 99/1/31 100/1/31
f 110/1/16 173/1/16 174/1/16
f 81/1/31 114/1/31 82/1/31
f 107/1/39 137/1/39 169/1/39
f 95/1/31 128/1/31 96/1/31
f 88/1/40 184/1/40 152/1/40
f 70/1/31 101/1/31 102/1/31
f 83/1/14 146/1/14 145/1/14
f 84/1/31 115/1/31 116/1/31
f 108/1/20 171/1/20 172/1/20
f 74/1/41 170/1/41 138/1/41
f 71/1/31 104/1/31 72/1/31
f 38/1/33 103/1/33 102/1/33
f 84/1/42 83/1/42 19/1/42
f 39/1/30 104/1/30 103/1/30
f 85/1/32 84/1/32 20/1/32
f 40/1/28 105/1/28 104/1/28
f 86/1/29 85/1/29 21/1/29
f 41/1/26 106/1/26 105/1/26
f 87/1/27 86/1/27 22/1/27
f 42/1/24 107/1/24 106/1/24
f 88/1/25 87/1/25 23/1/25
f 43/1/22 108/1/22 107/1/22
f 89/1/23 88/1/23 24/1/23
f 44/1/20 109/1/20 108/1/20
f 90/1/21 89/1/21 25/1/21
f 45/1/18 110/1/18 109/1/18
f 91/1/19 90/1/19 26/1/19
f 46/1/16 111/1/16 110/1/16
f 92/1/17 91/1/17 27/1/17
f 47/1/13 112/1/13 111/1/13
f 93/1/15 92/1/15 28/1/15
f 2/1/14 3/1/14 195/1/14
f 3/1/14 67/1/14 195/1/14
f 48/1/10 113/1/10 112/1/10
f 94/1/12 93/1/12 29/1/12
f 68/1/11 67/1/11 3/1/11
f 49/1/7 114/1/7 113/1/7
f 95/1/9 94/1/9 30/1/9
f 69/1/8 68/1/8 4/1/8
f 50/1/4 115/1/4 114/1/4
f 31/1/6 32/1/6 194/1/6
f 194/1/6 96/1/6 95/1/6
f 70/1/5 69/1/5 5/1/5
f 51/1/42 116/1/42 115/1/42
f 193/1/3 66/1/3 96/1/3
f 135/1/31 168/1/31 167/1/31
f 149/1/31 182/1/31 181/1/31
f 137/1/31 170/1/31 169/1/31
f 151/1/31 184/1/31 183/1/31
f 140/1/31 171/1/31 139/1/31
f 153/1/31 186/1/31 185/1/31
f 141/1/31 174/1/31 173/1/31
f 156/1/31 187/1/31 155/1/31
f 129/1/31 162/1/31 161/1/31
f 143/1/31 176/1/31 175/1/31
f 157/1/31 190/1/31 189/1/31
f 132/1/31 163/1/31 131/1/31
f 145/1/31 178/1/31 177/1/31
f 159/1/31 192/1/31 191/1/31
f 133/1/31 166/1/31 165/1/31
f 148/1/31 179/1/31 147/1/31
f 78/1/43 174/1/43 142/1/43
f 116/1/32 179/1/32 180/1/32
f 91/1/24 154/1/24 153/1/24
f 92/1/44 188/1/44 156/1/44
f 111/1/45 141/1/45 173/1/45
f 118/1/27 181/1/27 182/1/27
f 93/1/20 156/1/20 155/1/20
f 67/1/4 130/1/4 129/1/4
f 65/1/46 162/1/46 130/1/46
f 98/1/47 159/1/47 191/1/47
f 120/1/23 183/1/23 184/1/23
f 95/1/16 158/1/16 157/1/16
f 69/1/32 132/1/32 131/1/32
f 125/1/48 155/1/48 187/1/48
f 80/1/49 176/1/49 144/1/49
f 122/1/19 185/1/19 186/1/19
f 66/1/10 160/1/10 159/1/10
f 71/1/27 134/1/27 133/1/27
f 99/1/50 129/1/50 161/1/50
f 94/1/51 190/1/51 158/1/51
f 124/1/15 187/1/15 188/1/15
f 97/1/14 161/1/14 162/1/14
f 73/1/23 136/1/23 135/1/23
f 113/1/52 143/1/52 175/1/52
f 68/1/53 164/1/53 132/1/53
f 126/1/9 189/1/9 190/1/9
f 100/1/8 163/1/8 164/1/8
f 75/1/19 138/1/19 137/1/19
f 127/1/54 157/1/54 189/1/54
f 82/1/55 178/1/55 146/1/55
f 128/1/3 191/1/3 192/1/3
f 102/1/33 165/1/33 166/1/33
f 77/1/15 140/1/15 139/1/15
f 101/1/56 131/1/56 163/1/56
f 86/1/57 182/1/57 150/1/57
f 96/1/58 192/1/58 160/1/58
f 117/1/59 147/1/59 179/1/59
f 104/1/28 167/1/28 168/1/28
f 79/1/9 142/1/9 141/1/9
f 115/1/60 145/1/60 177/1/60
f 105/1/61 135/1/61 167/1/61
f 70/1/62 166/1/62 134/1/62
f 72/1/63 168/1/63 136/1/63
f 106/1/24 169/1/24 170/1/24
f 81/1/3 144/1/3 143/1/3
f 84/1/64 180/1/64 148/1/64
f 119/1/65 149/1/65 181/1/65
f 103/1/66 133/1/66 165/1/66
f 193/1/67 194/1/67 200/1/67
f 195/1/47 201/1/47 197/1/47
f 193/1/68 199/1/68 201/1/68
f 32/1/52 198/1/52 200/1/52
f 1/1/1 2/1/1 197/1/1
f 1/1/1 196/1/1 198/1/1
f 199/1/10 200/1/10 203/1/10
f 199/1/7 202/1/7 204/1/7
f 204/1/61 210/1/61 208/1/61
f 201/1/61 208/1/61 205/1/61
f 200/1/61 207/1/61 209/1/61
f 198/1/61 206/1/61 207/1/61
f 208/1/52 217/1/52 214/1/52
f 204/1/69 202/1/69 211/1/69
f 207/1/47 216/1/47 218/1/47
f 206/1/47 215/1/47 216/1/47
f 209/1/1 218/1/1 212/1/1
f 203/1/70 212/1/70 211/1/70
f 204/1/1 213/1/1 219/1/1
f 210/1/52 219/1/52 217/1/52
