# Blender 4.3.2
# www.blender.org
mtllib Monkey.mtl
o Plane
v -17.648169 1.755576 20.090908
v -20.090908 0.000000 19.450756
v -19.830025 0.187495 19.903412
v 18.335331 1.755576 20.090908
v 20.090908 0.000000 19.450756
v 19.903412 0.187496 19.903412
v -17.648167 1.755576 -20.090908
v -20.090908 0.000000 -19.450756
v -19.830025 0.187495 -19.903412
v 18.335331 1.755576 -20.090908
v 20.090908 0.000000 -19.450756
v 19.903412 0.187496 -19.903412
v -17.176487 3.157869 -20.090908
v -18.827410 3.756347 -19.450756
v -18.651091 3.692428 -19.903412
v 16.867994 37.078957 -20.090908
v 16.275534 38.732048 -19.450756
v 16.338808 38.555496 -19.903412
v -15.962633 6.277554 -20.090908
v -17.571804 6.983336 -19.450756
v -17.399944 6.907957 -19.903412
v -14.404031 9.458591 -20.090908
v -15.951353 10.290602 -19.450756
v -15.786098 10.201744 -19.903412
v -12.506702 12.688377 -20.090908
v -13.989683 13.629916 -19.450756
v -13.831301 13.529360 -19.903412
v -10.298752 15.914138 -20.090908
v -11.715403 16.952583 -19.450756
v -11.564104 16.841677 -19.903412
v -7.813537 19.084309 -20.090908
v -9.161674 20.210154 -19.450756
v -9.017692 20.089914 -19.903412
v -5.088985 22.148987 -20.090908
v -6.365740 23.355124 -19.450756
v -6.229383 23.226309 -19.903412
v -2.166875 25.060503 -20.090908
v -3.368364 26.341633 -19.450756
v -3.240046 26.204807 -19.903412
v 0.907684 27.773918 -20.090908
v -0.213264 29.126129 -19.450756
v -0.093547 28.981712 -19.903412
v 4.086850 30.247597 -20.090908
v 3.053558 31.668011 -19.450756
v 3.163913 31.516312 -19.903412
v 7.320639 32.443840 -20.090908
v 6.384463 33.930210 -19.450756
v 6.484452 33.771469 -19.903412
v 10.557272 34.329407 -20.090908
v 9.730879 35.879738 -19.450756
v 9.819136 35.714165 -19.903412
v 13.743937 35.876446 -20.090908
v 13.044006 37.488171 -19.450756
v 13.118760 37.316036 -19.903412
v 16.867994 37.078957 20.090908
v 16.275534 38.732048 19.450756
v 16.338808 38.555496 19.903412
v -17.176489 3.157870 20.090908
v -18.827410 3.756349 19.450756
v -18.651093 3.692430 19.903412
v 13.743937 35.876446 20.090908
v 13.044006 37.488171 19.450756
v 13.118760 37.316036 19.903412
v 10.557278 34.329411 20.090908
v 9.730879 35.879738 19.450756
v 9.819139 35.714161 19.903412
v 7.320636 32.443832 20.090908
v 6.384463 33.930206 19.450756
v 6.484449 33.771469 19.903412
v 4.086852 30.247597 20.090908
v 3.053558 31.668009 19.450756
v 3.163914 31.516308 19.903412
v 0.907684 27.773916 20.090908
v -0.213264 29.126127 19.450756
v -0.093547 28.981710 19.903412
v -2.166873 25.060503 20.090908
v -3.368364 26.341631 19.450756
v -3.240044 26.204805 19.903412
v -5.088990 22.148979 20.090908
v -6.365740 23.355120 19.450756
v -6.229383 23.226303 19.903412
v -7.813537 19.084309 20.090908
v -9.161674 20.210154 19.450756
v -9.017692 20.089914 19.903412
v -10.298752 15.914138 20.090908
v -11.715403 16.952583 19.450756
v -11.564104 16.841677 19.903412
v -12.506702 12.688375 20.090908
v -13.989683 13.629914 19.450756
v -13.831301 13.529358 19.903412
v -14.404037 9.458579 20.090908
v -15.951353 10.290600 19.450756
v -15.786099 10.201739 19.903412
v -15.962633 6.277554 20.090908
v -17.571804 6.983335 19.450756
v -17.399944 6.907957 19.903412
v 18.335331 36.631290 20.090908
v 17.447758 37.271626 20.090908
v 18.075369 37.206253 20.090908
v 20.090908 37.811455 19.450756
v 18.014050 39.309803 19.450756
v 19.482609 39.156837 19.450756
v 19.903412 37.528347 19.903412
v 17.804522 39.042591 19.903412
v 19.288660 38.888000 19.903412
v 17.447758 37.271626 -20.090908
v 18.335331 36.631290 -20.090908
v 18.075369 37.206253 -20.090908
v 18.014050 39.309803 -19.450756
v 20.090908 37.811455 -19.450756
v 19.482609 39.156837 -19.450756
v 17.804522 39.042591 -19.903412
v 19.903412 37.528347 -19.903412
v 19.288658 38.888000 -19.903412
v 19.450756 0.640151 20.090908
v -19.200190 0.640151 20.090908
v -19.200190 0.640151 -20.090908
v 19.450756 0.640151 -20.090908
v 13.299230 36.900475 20.090908
v 16.491562 38.129265 20.090908
v 16.491562 38.129265 -20.090908
v 13.299230 36.900475 -20.090908
v 10.032219 35.314430 20.090908
v 10.032213 35.314426 -20.090908
v 6.725845 33.388226 20.090908
v 6.725848 33.388233 -20.090908
v 3.430338 31.150072 20.090908
v 3.430336 31.150072 -20.090908
v 0.195477 28.633059 20.090908
v 0.195477 28.633060 -20.090908
v -2.930255 25.874481 20.090908
v -2.930257 25.874481 -20.090908
v -5.900190 22.915312 20.090908
v -5.900186 22.915319 -20.090908
v -8.670087 19.799631 20.090908
v -8.670087 19.799631 -20.090908
v -11.198837 16.573925 20.090908
v -11.198837 16.573925 -20.090908
v -13.448931 13.286592 20.090908
v -13.448931 13.286594 -20.090908
v -15.387142 9.987211 20.090908
v -15.387136 9.987224 -20.090908
v -16.985039 6.725977 20.090908
v -16.985039 6.725976 -20.090908
v -18.225422 3.538116 20.090908
v -18.225420 3.538115 -20.090908
v 18.827892 38.249329 -20.090908
v 17.324165 38.405960 -20.090908
v 19.450756 36.871738 -20.090908
v 17.324165 38.405960 20.090908
v 18.827892 38.249329 20.090908
v 19.450756 36.871738 20.090908
vn 0.2778 0.1996 0.9397
vn -0.7828 -0.5626 0.2660
vn -0.5430 -0.3903 0.7435
vn -0.3015 0.3015 0.9045
vn 0.6871 -0.6871 0.2361
vn 0.4975 -0.4975 0.7106
vn 0.2778 0.1996 -0.9397
vn -0.7828 -0.5626 -0.2660
vn -0.5430 -0.3903 -0.7435
vn -0.3015 0.3015 -0.9045
vn 0.6871 -0.6871 -0.2361
vn 0.4975 -0.4975 -0.7106
vn 0.6598 -0.2392 -0.7124
vn -0.9222 0.3343 -0.1946
vn -0.6674 0.2419 -0.7044
vn 0.2368 -0.6606 -0.7124
vn -0.3309 0.9234 -0.1946
vn -0.2395 0.6682 -0.7044
vn 0.6386 -0.2801 -0.7167
vn -0.8983 0.3940 -0.1942
vn -0.6520 0.2860 -0.7022
vn 0.6151 -0.3308 -0.7157
vn -0.8640 0.4646 -0.1943
vn -0.6266 0.3369 -0.7027
vn 0.5903 -0.3747 -0.7150
vn -0.8281 0.5258 -0.1944
vn -0.6003 0.3812 -0.7031
vn 0.5643 -0.4137 -0.7144
vn -0.7911 0.5799 -0.1944
vn -0.5733 0.4203 -0.7033
vn 0.5373 -0.4487 -0.7141
vn -0.7529 0.6288 -0.1944
vn -0.5455 0.4556 -0.7035
vn 0.5090 -0.4808 -0.7140
vn -0.7130 0.6736 -0.1945
vn -0.5166 0.4880 -0.7036
vn 0.4790 -0.5107 -0.7140
vn -0.6710 0.7155 -0.1945
vn -0.4861 0.5183 -0.7036
vn 0.4468 -0.5389 -0.7141
vn -0.6260 0.7552 -0.1944
vn -0.4536 0.5472 -0.7035
vn 0.4116 -0.5658 -0.7144
vn -0.5770 0.7932 -0.1944
vn -0.4182 0.5749 -0.7033
vn 0.3726 -0.5916 -0.7150
vn -0.5228 0.8300 -0.1944
vn -0.3790 0.6017 -0.7031
vn 0.3285 -0.6163 -0.7157
vn -0.4614 0.8656 -0.1943
vn -0.3347 0.6278 -0.7027
vn 0.2778 -0.6396 -0.7167
vn -0.3907 0.8998 -0.1942
vn -0.2836 0.6530 -0.7022
vn 0.2368 -0.6606 0.7124
vn -0.3309 0.9234 0.1946
vn -0.2395 0.6682 0.7044
vn 0.6598 -0.2392 0.7124
vn -0.9222 0.3343 0.1946
vn -0.6674 0.2419 0.7044
vn 0.2778 -0.6396 0.7167
vn -0.3907 0.8998 0.1942
vn -0.2836 0.6530 0.7022
vn 0.3285 -0.6163 0.7157
vn -0.4614 0.8656 0.1943
vn -0.3347 0.6278 0.7027
vn 0.3726 -0.5916 0.7150
vn -0.5228 0.8300 0.1944
vn -0.3790 0.6017 0.7031
vn 0.4116 -0.5658 0.7144
vn -0.5770 0.7932 0.1944
vn -0.4182 0.5749 0.7033
vn 0.4468 -0.5389 0.7141
vn -0.6260 0.7552 0.1944
vn -0.4536 0.5472 0.7035
vn 0.4790 -0.5107 0.7140
vn -0.6710 0.7155 0.1945
vn -0.4861 0.5183 0.7036
vn 0.5090 -0.4808 0.7140
vn -0.7130 0.6736 0.1945
vn -0.5166 0.4880 0.7036
vn 0.5373 -0.4487 0.7141
vn -0.7529 0.6288 0.1944
vn -0.5455 0.4556 0.7035
vn 0.5643 -0.4137 0.7144
vn -0.7911 0.5799 0.1944
vn -0.5733 0.4203 0.7033
vn 0.5903 -0.3747 0.7150
vn -0.8281 0.5258 0.1944
vn -0.6003 0.3812 0.7031
vn 0.6151 -0.3308 0.7157
vn -0.8640 0.4646 0.1943
vn -0.6266 0.3369 0.7027
vn 0.6386 -0.2801 0.7167
vn -0.8983 0.3940 0.1942
vn -0.6520 0.2860 0.7022
vn -0.6379 -0.1375 0.7578
vn 0.0707 -0.6487 0.7578
vn -0.3193 -0.4425 0.8380
vn 0.9423 0.2268 0.2460
vn -0.0819 0.9658 0.2460
vn 0.5608 0.7773 0.2850
vn 0.6610 0.1201 0.7407
vn -0.0945 0.6651 0.7407
vn 0.3641 0.5046 0.7828
vn 0.0707 -0.6487 -0.7578
vn -0.6379 -0.1375 -0.7578
vn -0.3193 -0.4425 -0.8380
vn -0.0819 0.9658 -0.2460
vn 0.9423 0.2268 -0.2460
vn 0.5608 0.7773 -0.2850
vn -0.0945 0.6651 -0.7407
vn 0.6610 0.1201 -0.7407
vn 0.3641 0.5046 -0.7828
vn 0.1481 -0.1481 0.9778
vn -0.1516 -0.1090 0.9824
vn -0.1516 -0.1090 -0.9824
vn 0.1481 -0.1481 -0.9778
vn -0.0797 0.1834 0.9798
vn -0.0667 0.1862 0.9802
vn -0.0667 0.1862 -0.9802
vn -0.0797 0.1834 -0.9798
vn -0.0938 0.1760 0.9799
vn -0.0938 0.1760 -0.9799
vn -0.1061 0.1685 0.9800
vn -0.1061 0.1685 -0.9800
vn -0.1170 0.1608 0.9800
vn -0.1170 0.1608 -0.9800
vn -0.1268 0.1530 0.9801
vn -0.1268 0.1530 -0.9801
vn -0.1359 0.1449 0.9801
vn -0.1359 0.1449 -0.9801
vn -0.1444 0.1364 0.9801
vn -0.1444 0.1364 -0.9801
vn -0.1525 0.1274 0.9801
vn -0.1525 0.1274 -0.9801
vn -0.1604 0.1176 0.9800
vn -0.1604 0.1176 -0.9800
vn -0.1681 0.1067 0.9800
vn -0.1681 0.1067 -0.9800
vn -0.1757 0.0945 0.9799
vn -0.1757 0.0945 -0.9799
vn -0.1831 0.0803 0.9798
vn -0.1831 0.0803 -0.9798
vn -0.1860 0.0674 0.9802
vn -0.1860 0.0674 -0.9802
vn 0.0903 0.1252 -0.9880
vn -0.0444 0.1922 -0.9804
vn 0.1964 0.0185 -0.9804
vn -0.0444 0.1922 0.9804
vn 0.0903 0.1252 0.9880
vn 0.1964 0.0185 0.9804
vt 0.936603 0.000000
vt 0.961828 0.000000
vt 0.965490 0.015931
vt 0.936603 0.015931
vt 0.984825 1.000000
vt 0.988457 1.000000
vt 0.997935 1.000000
vt 0.997667 1.000000
vt 0.961828 1.000000
vt 0.936603 1.000000
vt 0.936603 0.984069
vt 0.965490 0.984069
vt 0.000000 0.015931
vt 0.000000 0.984069
vt 1.000000 0.984069
vt 1.000000 0.015931
vt 0.997935 0.000000
vt 0.997667 0.000000
vt 1.000000 0.015931
vt 1.000000 0.015931
vt 0.178816 0.015931
vt 0.178816 0.984069
vt 0.118239 0.984069
vt 0.118239 0.015931
vt 0.882209 0.015931
vt 0.882209 0.984069
vt 0.825007 0.984069
vt 0.825007 0.015931
vt 0.825007 0.015931
vt 0.825007 0.984069
vt 0.765680 0.984069
vt 0.765680 0.015931
vt 0.765680 0.015931
vt 0.765680 0.984069
vt 0.704841 0.984069
vt 0.704841 0.015931
vt 0.704841 0.015931
vt 0.704841 0.984069
vt 0.642909 0.984069
vt 0.642909 0.015931
vt 0.642909 0.015931
vt 0.642909 0.984069
vt 0.579838 0.984069
vt 0.579838 0.015931
vt 0.579838 0.015931
vt 0.579838 0.984069
vt 0.446804 0.984069
vt 0.446804 0.015931
vt 0.446804 0.015931
vt 0.446804 0.984069
vt 0.378995 0.984069
vt 0.378995 0.015931
vt 0.378995 0.015931
vt 0.378995 0.984069
vt 0.310512 0.984069
vt 0.310512 0.015931
vt 0.310512 0.015931
vt 0.310512 0.984069
vt 0.243304 0.984069
vt 0.243304 0.015931
vt 0.243304 0.015931
vt 0.243304 0.984069
vt 0.178816 0.984069
vt 0.178816 0.015931
vt 0.936603 0.015931
vt 0.882209 0.984069
vt 0.882209 0.015931
vt 0.118239 0.015931
vt 0.118239 0.984069
vt 0.062606 0.984069
vt 0.062606 0.015931
vt 0.005307 0.000000
vt 0.984825 0.000000
vt 0.026764 0.000000
vt 0.005307 1.000000
vt 0.026764 1.000000
vt 0.952937 1.000000
vt 0.938942 1.000000
vt 0.961828 1.000000
vt 0.095288 1.000000
vt 0.148200 1.000000
vt 0.148200 0.000000
vt 0.095288 0.000000
vt 1.000000 0.984069
vt 0.884993 0.000000
vt 0.938942 0.000000
vt 0.882210 0.000000
vt 0.884993 1.000000
vt 0.882210 1.000000
vt 0.828426 0.000000
vt 0.825008 0.000000
vt 0.828426 1.000000
vt 0.825008 1.000000
vt 0.769612 0.000000
vt 0.765681 0.000000
vt 0.769612 1.000000
vt 0.765681 1.000000
vt 0.709142 0.000000
vt 0.704841 0.000000
vt 0.709141 1.000000
vt 0.704841 1.000000
vt 0.647346 0.000000
vt 0.642909 0.000000
vt 0.647346 1.000000
vt 0.642909 1.000000
vt 0.580022 0.000000
vt 0.579791 0.000000
vt 0.580022 1.000000
vt 0.579791 1.000000
vt 0.459067 0.000000
vt 0.446848 0.000000
vt 0.459067 1.000000
vt 0.446848 1.000000
vt 0.387333 0.000000
vt 0.378994 0.000000
vt 0.387333 1.000000
vt 0.378994 1.000000
vt 0.319284 0.000000
vt 0.310511 0.000000
vt 0.319284 1.000000
vt 0.310512 1.000000
vt 0.252657 0.000000
vt 0.243304 0.000000
vt 0.252657 1.000000
vt 0.243304 1.000000
vt 0.188838 0.000000
vt 0.178816 0.000000
vt 0.188838 1.000000
vt 0.178816 1.000000
vt 0.129049 0.000000
vt 0.118241 0.000000
vt 0.129049 1.000000
vt 0.118241 1.000000
vt 0.074334 0.000000
vt 0.062606 0.000000
vt 0.074334 1.000000
vt 0.062606 1.000000
vt 0.072965 1.000000
vt 0.072965 0.000000
vt 0.988457 0.000000
vt 0.000000 0.984069
vt 0.062606 0.984069
vt 0.062606 0.015931
vt 0.000000 0.015931
vt 0.993316 1.000000
vt 0.984958 1.000000
vt 0.998976 0.992034
vt 0.961828 0.000000
vt 0.952937 0.000000
vt 0.984958 0.000000
vt 0.993316 0.000000
vt 0.998976 0.007966
vt 0.958603 0.000000
vt 0.958603 1.000000
vt 0.890177 0.000000
vt 0.944296 0.000000
vt 0.944296 1.000000
vt 0.890177 1.000000
vt 0.834563 0.000000
vt 0.834563 1.000000
vt 0.776577 0.000000
vt 0.776576 1.000000
vt 0.716678 0.000000
vt 0.716678 1.000000
vt 0.654634 0.000000
vt 0.654634 1.000000
vt 0.583227 0.000000
vt 0.583227 1.000000
vt 0.477860 0.000000
vt 0.477860 1.000000
vt 0.402550 0.000000
vt 0.402550 1.000000
vt 0.334771 0.000000
vt 0.334771 1.000000
vt 0.269126 0.000000
vt 0.269126 1.000000
vt 0.206500 0.000000
vt 0.206500 1.000000
vt 0.966388 1.000000
vt 0.954895 1.000000
vt 0.952937 1.000000
vt 0.969695 1.000000
vt 0.988457 1.000000
vt 0.954895 0.000000
vt 0.966388 0.000000
vt 0.969695 0.000000
s 1
f 57/1/57 104/2/104 101/3/101 56/4/56
f 118/5/118 149/6/149 113/7/113 12/8/12
f 112/9/112 18/10/18 17/11/17 109/12/109
f 2/13/2 8/14/8 11/15/11 5/16/5
f 103/17/103 6/18/6 5/19/5 100/20/100
f 92/21/92 23/22/23 20/23/20 95/24/95
f 62/25/62 53/26/53 50/27/50 65/28/65
f 65/29/65 50/30/50 47/31/47 68/32/68
f 68/33/68 47/34/47 44/35/44 71/36/71
f 71/37/71 44/38/44 41/39/41 74/40/74
f 74/41/74 41/42/41 38/43/38 77/44/77
f 77/45/77 38/46/38 35/47/35 80/48/80
f 80/49/80 35/50/35 32/51/32 83/52/83
f 83/53/83 32/54/32 29/55/29 86/56/86
f 86/57/86 29/58/29 26/59/26 89/60/89
f 89/61/89 26/62/26 23/63/23 92/64/92
f 56/65/56 17/11/17 53/66/53 62/67/62
f 95/68/95 20/69/20 14/70/14 59/71/59
f 2/13/2 5/16/5 6/18/6 3/72/3
f 3/72/3 6/18/6 115/73/115 116/74/116
f 11/15/11 8/14/8 9/75/9 12/8/12
f 12/8/12 9/75/9 117/76/117 118/5/118
f 148/77/148 121/78/121 18/10/18 112/79/112
f 13/80/13 19/81/19 94/82/94 58/83/58
f 5/19/5 11/84/11 110/15/110 100/20/100
f 119/85/119 120/86/120 57/1/57 63/87/63
f 63/87/63 57/1/57 56/65/56 62/67/62
f 121/78/121 122/88/122 54/89/54 18/10/18
f 18/10/18 54/89/54 53/66/53 17/11/17
f 123/90/123 119/85/119 63/87/63 66/91/66
f 66/91/66 63/87/63 62/25/62 65/28/65
f 122/88/122 124/92/124 51/93/51 54/89/54
f 54/89/54 51/93/51 50/27/50 53/26/53
f 125/94/125 123/90/123 66/91/66 69/95/69
f 69/95/69 66/91/66 65/29/65 68/32/68
f 124/92/124 126/96/126 48/97/48 51/93/51
f 51/93/51 48/97/48 47/31/47 50/30/50
f 127/98/127 125/94/125 69/95/69 72/99/72
f 72/99/72 69/95/69 68/33/68 71/36/71
f 126/96/126 128/100/128 45/101/45 48/97/48
f 48/97/48 45/101/45 44/35/44 47/34/47
f 129/102/129 127/98/127 72/99/72 75/103/75
f 75/103/75 72/99/72 71/37/71 74/40/74
f 128/100/128 130/104/130 42/105/42 45/101/45
f 45/101/45 42/105/42 41/39/41 44/38/44
f 131/106/131 129/102/129 75/103/75 78/107/78
f 78/107/78 75/103/75 74/41/74 77/44/77
f 130/104/130 132/108/132 39/109/39 42/105/42
f 42/105/42 39/109/39 38/43/38 41/42/41
f 133/110/133 131/106/131 78/107/78 81/111/81
f 81/111/81 78/107/78 77/45/77 80/48/80
f 132/108/132 134/112/134 36/113/36 39/109/39
f 39/109/39 36/113/36 35/47/35 38/46/38
f 135/114/135 133/110/133 81/111/81 84/115/84
f 84/115/84 81/111/81 80/49/80 83/52/83
f 134/112/134 136/116/136 33/117/33 36/113/36
f 36/113/36 33/117/33 32/51/32 35/50/35
f 137/118/137 135/114/135 84/115/84 87/119/87
f 87/119/87 84/115/84 83/53/83 86/56/86
f 136/116/136 138/120/138 30/121/30 33/117/33
f 33/117/33 30/121/30 29/55/29 32/54/32
f 139/122/139 137/118/137 87/119/87 90/123/90
f 90/123/90 87/119/87 86/57/86 89/60/89
f 138/120/138 140/124/140 27/125/27 30/121/30
f 30/121/30 27/125/27 26/59/26 29/58/29
f 141/126/141 139/122/139 90/123/90 93/127/93
f 93/127/93 90/123/90 89/61/89 92/64/92
f 140/124/140 142/128/142 24/129/24 27/125/27
f 27/125/27 24/129/24 23/63/23 26/62/26
f 143/130/143 141/126/141 93/127/93 96/131/96
f 96/131/96 93/127/93 92/21/92 95/24/95
f 142/128/142 144/132/144 21/133/21 24/129/24
f 24/129/24 21/133/21 20/23/20 23/22/23
f 145/134/145 143/130/143 96/131/96 60/135/60
f 60/135/60 96/131/96 95/68/95 59/71/59
f 144/132/144 146/136/146 15/137/15 21/133/21
f 21/133/21 15/137/15 14/70/14 20/69/20
f 7/138/7 13/80/13 58/83/58 1/139/1
f 12/8/12 113/7/113 110/15/110 11/84/11
f 152/140/152 115/73/115 6/18/6 103/17/103
f 17/11/17 56/4/56 101/3/101 109/12/109
f 8/141/8 14/142/14 15/137/15 9/75/9
f 9/75/9 15/137/15 146/136/146 117/76/117
f 116/74/116 145/134/145 60/135/60 3/72/3
f 3/72/3 60/135/60 59/143/59 2/144/2
f 8/141/8 2/144/2 59/143/59 14/142/14
f 148/77/148 112/79/112 114/145/114 147/146/147
f 147/146/147 114/145/114 113/7/113 149/6/149
f 112/9/112 109/12/109 111/147/111 114/145/114
f 114/145/114 111/147/111 110/15/110 113/7/113
f 104/148/104 150/149/150 151/150/151 105/151/105
f 105/151/105 151/150/151 152/140/152 103/17/103
f 101/3/101 104/2/104 105/151/105 102/152/102
f 102/152/102 105/151/105 103/17/103 100/20/100
f 109/12/109 101/3/101 102/152/102 111/147/111
f 111/147/111 102/152/102 100/20/100 110/15/110
f 120/86/120 150/149/150 104/148/104 57/1/57
f 4/153/4 1/139/1 116/74/116 115/73/115
f 7/138/7 10/154/10 118/5/118 117/76/117
f 61/155/61 55/156/55 120/86/120 119/85/119
f 16/157/16 52/158/52 122/88/122 121/78/121
f 64/159/64 61/155/61 119/85/119 123/90/123
f 52/158/52 49/160/49 124/92/124 122/88/122
f 67/161/67 64/159/64 123/90/123 125/94/125
f 49/160/49 46/162/46 126/96/126 124/92/124
f 70/163/70 67/161/67 125/94/125 127/98/127
f 46/162/46 43/164/43 128/100/128 126/96/126
f 73/165/73 70/163/70 127/98/127 129/102/129
f 43/164/43 40/166/40 130/104/130 128/100/128
f 76/167/76 73/165/73 129/102/129 131/106/131
f 40/166/40 37/168/37 132/108/132 130/104/130
f 79/169/79 76/167/76 131/106/131 133/110/133
f 37/168/37 34/170/34 134/112/134 132/108/132
f 82/171/82 79/169/79 133/110/133 135/114/135
f 34/170/34 31/172/31 136/116/136 134/112/134
f 85/173/85 82/171/82 135/114/135 137/118/137
f 31/172/31 28/174/28 138/120/138 136/116/136
f 88/175/88 85/173/85 137/118/137 139/122/139
f 28/174/28 25/176/25 140/124/140 138/120/138
f 91/177/91 88/175/88 139/122/139 141/126/141
f 25/176/25 22/178/22 142/128/142 140/124/140
f 94/82/94 91/177/91 141/126/141 143/130/143
f 22/178/22 19/81/19 144/132/144 142/128/142
f 58/83/58 94/82/94 143/130/143 145/134/145
f 19/81/19 13/80/13 146/136/146 144/132/144
f 13/80/13 7/138/7 117/76/117 146/136/146
f 1/139/1 58/83/58 145/134/145 116/74/116
f 108/179/108 106/180/106 148/181/148 147/146/147
f 107/182/107 108/179/108 147/146/147 149/183/149
f 98/184/98 99/185/99 151/150/151 150/149/150
f 99/185/99 97/186/97 152/140/152 151/150/151
f 55/156/55 98/184/98 150/149/150 120/86/120
f 97/186/97 4/153/4 115/73/115 152/140/152
f 10/154/10 107/182/107 149/183/149 118/5/118
f 106/180/106 16/157/16 121/78/121 148/181/148
f 19/81/19 22/178/22 91/177/91 94/82/94
f 22/178/22 25/176/25 88/175/88 91/177/91
f 25/176/25 28/174/28 85/173/85 88/175/88
f 28/174/28 31/172/31 82/171/82 85/173/85
f 31/172/31 34/170/34 79/169/79 82/171/82
f 34/170/34 37/168/37 76/167/76 79/169/79
f 37/168/37 40/166/40 73/165/73 76/167/76
f 40/166/40 43/164/43 70/163/70 73/165/73
f 43/164/43 46/162/46 67/161/67 70/163/70
f 46/162/46 49/160/49 64/159/64 67/161/67
f 49/160/49 52/158/52 61/155/61 64/159/64
f 52/158/52 16/157/16 55/156/55 61/155/61
f 16/157/16 106/180/106 98/184/98 55/156/55
f 106/180/106 108/179/108 99/185/99 98/184/98
f 108/179/108 107/182/107 97/186/97 99/185/99
f 107/182/107 10/154/10 4/153/4 97/186/97
f 10/154/10 7/138/7 1/139/1 4/153/4
