# Blender 4.3.2
# www.blender.org
mtllib Monkey.mtl
o Circle
v -19.648520 0.328092 19.764097
v 19.871952 0.317173 19.744183
v 20.081387 0.831792 17.909939
v -2.950383 0.059469 19.281174
v -18.914688 0.791643 -19.968632
v -20.036188 0.078718 -19.293476
v 19.229244 0.896450 -20.010612
v 20.081387 0.831792 -17.909935
v 20.030762 0.038825 -19.188393
v -15.976578 10.036820 -19.663567
v 17.061672 38.967377 -19.284557
v 18.525888 38.973484 -19.723755
v -4.564179 0.179122 21.523149
v -4.395815 0.053075 24.786882
v -12.431458 15.853008 -19.823299
v -2.824118 26.817009 -19.833084
v -7.647180 22.313927 -19.221176
v -4.797040 0.269462 23.404627
v 9.229231 35.507641 -19.830070
v 3.329032 31.981651 -19.560917
v 18.961603 38.029079 20.022188
v -1.765400 0.066318 27.406618
v 17.060221 38.996120 19.242556
v -3.072873 0.269462 26.690454
v 18.612835 38.958244 19.730663
v -18.211779 5.114388 19.258532
v -15.785631 10.420964 19.668018
v 9.320116 35.449593 19.902824
v 3.745028 32.271603 19.560070
v 0.469594 0.083953 27.722027
v -2.287195 27.663210 19.221180
v -7.588928 22.330490 19.282303
v -4.511542 24.531994 20.016445
v -12.113439 15.341810 20.013771
v -12.122813 16.680151 19.244555
v 2.265446 0.169852 27.230049
v 4.001570 0.061353 25.659313
v 20.081387 36.370327 17.909939
v 19.877634 38.142666 19.230898
v 4.800833 0.126462 23.842735
v 4.608368 0.069981 21.595335
v 18.962881 38.032284 -20.020786
v 20.081387 36.370327 -17.909935
v 19.876867 38.188629 -19.210030
v 3.672799 0.370407 19.728403
v 2.504210 0.024370 19.058157
v 17.370136 2.515742 16.145437
v 17.000534 33.506428 15.033525
v 18.023615 35.205509 16.761829
v 17.370136 34.686378 -16.145432
v 17.006115 3.681104 -15.099308
v 18.047676 1.975605 -16.774235
v -0.982717 10.078027 21.730597
v -3.704690 10.039359 20.052841
v -4.734777 9.890844 22.031746
v -1.630363 10.078027 23.242821
v -4.613405 10.021808 23.873878
v -3.954228 9.968707 25.684387
v -2.091547 10.005557 27.243645
v 0.201193 10.078027 24.690357
v 0.078253 9.983962 27.786621
v 2.402064 10.004867 27.107882
v 4.079541 9.961122 25.598372
v 1.730641 10.078027 22.798925
v 4.823772 9.915578 23.389137
v 4.596772 10.016500 21.597601
v 3.759259 10.030884 20.051891
v 0.350370 10.078027 21.362656
v -1.068655 11.122560 21.628973
v -1.261973 11.124816 24.098532
v 0.653041 11.123499 24.460953
v 1.573654 11.120204 23.432556
v 1.212833 11.125616 21.781466
v -0.428376 11.337054 22.565836
v -0.357735 11.336025 23.441534
v 0.416744 11.335262 23.408327
v 0.520182 11.340988 22.565145
v -0.255711 15.356156 22.391924
v 0.121641 16.090118 21.953466
v 0.123574 16.509405 21.191195
v -0.342033 16.529142 21.740799
v -0.549212 16.832621 22.633430
v -0.231033 16.410513 23.453770
v -0.078325 17.686975 22.360010
v 0.081750 17.247910 23.115591
v 0.342841 16.318190 23.422058
v 0.586794 17.083324 22.570631
v 0.498595 16.616657 21.847713
v 0.437336 15.401376 22.522667
v -3.620534 0.090121 19.860718
v -0.095289 16.481020 20.050001
v 0.646658 17.210928 20.050001
v -0.395287 17.628874 20.050001
vn -0.6687 -0.6775 0.3065
vn -0.7176 0.6789 0.1553
vn -0.8774 -0.4769 0.0525
vn 0.7204 -0.6615 -0.2082
vn 0.7977 0.5968 0.0863
vn 0.7809 -0.6114 0.1280
vn -0.5944 -0.4689 0.6533
vn -0.6272 0.6428 0.4398
vn 0.5151 -0.8527 -0.0871
vn 0.7153 0.6641 -0.2176
vn -0.2405 -0.6730 0.6994
vn -0.3396 0.6597 0.6704
vn -0.0130 -0.9999 0.0052
vn 0.0320 -0.9993 0.0183
vn 0.0544 -0.6635 0.7462
vn 0.0152 0.6430 0.7657
vn 0.3908 -0.5794 0.7152
vn -0.7556 -0.6090 -0.2411
vn -0.5472 0.7879 -0.2825
vn -0.2818 -0.9507 -0.1293
vn 0.6044 -0.6643 0.4398
vn 0.3715 0.6566 0.6564
vn -0.8138 0.5546 -0.1737
vn 0.6421 0.6414 0.4198
vn -0.0073 0.9999 -0.0112
vn -0.0168 0.9998 0.0094
vn 0.0210 0.9998 0.0056
vn 0.0029 0.9997 -0.0242
vn 0.5421 0.7868 -0.2951
vn 0.1974 0.0636 -0.9783
vn -0.6466 0.0947 -0.7569
vn 0.6729 0.0203 -0.7394
vn -0.9879 0.0713 0.1379
vn -0.6528 -0.1264 -0.7469
vn 0.1067 -0.0508 0.9930
vn 0.9215 -0.0715 0.3818
vn 0.4511 0.0009 0.8925
vn -0.7519 -0.0282 0.6587
vn 0.9965 -0.0655 -0.0527
vn 0.2002 0.9782 0.0549
vn 0.1218 0.9843 -0.1274
vn 0.1147 0.9848 0.1305
vn 0.9097 -0.3727 -0.1834
vn 0.9615 0.2291 -0.1518
vn 0.8998 0.3843 0.2064
vn 0.1780 -0.9778 -0.1102
vn -0.2716 -0.9354 -0.2265
vn -0.6396 0.7538 -0.1505
vn -0.1483 0.9560 0.2532
vn -0.8211 -0.4854 -0.3005
vn 0.6752 -0.0074 0.7376
vn 0.5932 0.1416 0.7925
vn -0.6567 -0.0142 0.7540
vn -0.9551 0.2249 0.1931
vn -0.7401 -0.0468 -0.6709
vn 0.7554 -0.0373 -0.6542
vn 0.3629 -0.1511 -0.9195
vn -0.3524 -0.1854 -0.9173
vn -0.4956 0.2046 0.8441
vn 0.1904 -0.6047 -0.7734
vn 0.0364 0.7016 0.7117
vn -0.8869 0.3404 0.3123
vn -0.7124 0.3562 -0.6046
vn -0.7500 -0.5070 -0.4248
vn 0.6237 -0.5544 -0.5510
vn 0.8343 -0.3963 0.3832
vn 0.6670 -0.5254 0.5283
vn -0.3375 0.6411 -0.6893
vn -0.2205 0.9096 0.3521
vn -0.2283 0.9076 -0.3524
vn -0.7521 0.5366 0.3827
vn -0.6928 0.6140 -0.3782
vn -0.5949 0.4031 -0.6954
vn -0.6017 0.6902 0.4020
vn -0.4737 0.5318 -0.7021
vn -0.4949 0.6956 -0.5208
vn -0.4760 0.6910 0.5440
vn 0.1905 0.7960 -0.5746
vn 0.2198 0.7886 0.5744
vn 0.8223 0.4433 -0.3568
vn 0.8312 0.4235 0.3601
vn -0.7092 0.3586 0.6069
vn 0.6423 -0.6542 -0.3994
vn -0.2738 -0.2245 -0.9352
vn 0.3071 -0.2875 -0.9072
vn -0.5611 0.3877 0.7314
vn -0.8068 -0.5820 0.1021
vn -0.6795 0.5939 0.4308
vn -0.5207 0.5238 0.6742
vn 0.3341 0.2042 -0.9202
vn 0.6876 -0.7208 0.0878
vn 0.4212 0.2518 0.8713
vn 0.9953 0.0548 0.0795
vn 0.9744 -0.2194 0.0492
vn 0.9993 -0.0332 -0.0198
vn 0.9951 0.0523 -0.0834
vn 0.6228 0.5546 0.5519
vn 0.8343 0.3963 -0.3832
vn 0.6670 0.5254 -0.5283
vn 0.9565 0.2036 0.2090
vn 0.9588 -0.2021 -0.1995
vn 0.7379 0.4780 0.4764
vn 0.7410 -0.4745 -0.4752
vn 0.0026 0.9998 0.0201
vn -0.1225 0.9815 -0.1471
vn -0.1532 0.9808 0.1208
vn -0.1517 0.9824 -0.1092
vn -0.1138 0.9842 0.1354
vn 0.1330 0.9794 -0.1516
vn 0.0696 0.9786 0.1936
vn 0.0030 0.0067 1.0000
vn -0.0036 0.0027 1.0000
vn -0.0062 -0.0135 0.9999
vn -0.0169 -0.0194 0.9997
vn -0.0011 -0.0335 0.9994
vn 0.0149 -0.0070 0.9999
vn -0.0148 0.0091 0.9998
vn -0.0032 0.0022 1.0000
vn -0.0002 0.0002 1.0000
vn 0.0001 0.0004 1.0000
vn -0.0029 -0.0008 1.0000
vn 0.0086 0.0040 1.0000
vn 0.0026 0.0064 1.0000
vn -0.4535 0.8853 0.1024
vt 0.000000 0.000000
vt 0.000002 0.020096
vt 0.012170 0.987737
vt 0.001891 0.977531
vt 1.000000 0.053368
vt 1.000000 0.932767
vt 1.000000 0.946632
vt 0.634441 0.988656
vt 0.899991 0.020926
vt 0.898039 0.980158
vt 0.020923 0.020438
vt 0.048666 0.978934
vt 0.033599 0.991094
vt 0.228950 0.021066
vt 0.211665 0.985761
vt 0.437180 0.986524
vt 0.436738 0.014148
vt 0.552983 0.027306
vt 0.423483 0.015561
vt 0.945237 0.989192
vt 0.945779 0.011484
vt 0.996568 0.978881
vt 0.996551 0.021006
vt 0.009768 0.015296
vt 0.998625 0.977638
vt 0.021782 1.000000
vt 0.976384 1.000000
vt 0.042879 0.000000
vt 0.009796 0.012329
vt 0.048676 0.019442
vt 0.164447 0.000000
vt 0.963729 1.000000
vt 0.990661 0.012251
vt 0.963637 0.000000
vt 1.000000 0.053368
vt 1.000000 0.067444
vt 1.000000 0.913300
vt 1.000000 0.087795
vt 1.000000 0.944781
vt 1.000000 0.055287
vt 0.634861 0.009818
vt 0.401238 0.000000
vt 0.374601 0.000000
vt 0.401190 0.000000
vt 0.341156 0.000000
vt 0.588254 0.003074
vt 0.540631 0.000000
vt 0.387266 0.000000
s 1
f 14/1/1 57/1/2 18/1/3
f 41/1/4 65/1/5 40/1/6
f 24/1/7 58/1/8 14/1/1
f 45/1/9 66/1/10 41/1/4
f 22/1/11 59/1/12 24/1/7
f 4/1/13 46/1/14 30/1/15
f 30/1/15 61/1/16 22/1/11
f 36/1/17 61/1/16 30/1/15
f 13/1/18 54/1/19 90/1/20
f 37/1/21 62/1/22 36/1/17
f 18/1/3 55/1/23 13/1/18
f 40/1/6 63/1/24 37/1/21
f 13/1/18 90/1/20 14/1/1
f 18/1/3 13/1/18 14/1/1
f 24/1/7 14/1/1 22/1/11
f 36/1/17 30/1/15 37/1/21
f 40/1/6 37/1/21 41/1/4
f 54/1/19 55/1/23 57/1/2
f 63/1/24 65/1/5 66/1/10
f 53/1/25 54/1/19 56/1/26
f 64/1/27 62/1/22 63/1/24
f 54/1/19 68/1/28 67/1/29
f 68/1/30 69/1/31 73/1/32
f 56/1/33 69/1/31 53/1/34
f 60/1/35 72/1/36 71/1/37
f 60/1/35 70/1/38 56/1/33
f 68/1/30 73/1/32 64/1/39
f 72/1/40 77/1/41 76/1/42
f 88/1/43 92/1/44 87/1/45
f 80/1/46 91/1/47 88/1/43
f 93/1/48 84/1/49 92/1/44
f 81/1/50 93/1/48 91/1/47
f 76/1/51 87/1/45 86/1/52
f 75/1/53 82/1/54 74/1/55
f 77/1/56 89/1/57 87/1/45
f 74/1/55 78/1/58 77/1/56
f 75/1/53 86/1/52 83/1/59
f 77/1/56 78/1/58 89/1/57
f 79/1/60 78/1/58 81/1/50
f 81/1/50 78/1/58 82/1/54
f 82/1/54 83/1/59 85/1/61
f 84/1/49 82/1/54 85/1/61
f 85/1/61 83/1/59 86/1/52
f 84/1/49 85/1/61 87/1/45
f 88/1/43 87/1/45 89/1/57
f 88/1/43 79/1/60 80/1/46
f 79/1/60 89/1/57 78/1/58
f 26/2/62 10/3/63 6/4/64
f 38/5/65 50/6/66 43/7/67
f 19/8/68 23/9/69 11/10/70
f 35/11/71 17/12/72 15/13/73
f 17/12/72 31/14/74 16/15/75
f 31/14/74 20/16/76 16/15/75
f 29/17/77 19/8/68 20/16/76
f 46/18/14 4/19/13 6/4/64
f 12/20/78 23/9/69 25/21/79
f 44/22/80 25/21/79 39/23/81
f 27/24/82 15/13/73 10/3/63
f 9/25/83 5/26/84 7/27/85
f 34/28/86 27/24/82 1/29/87
f 15/13/73 17/12/72 16/15/75
f 34/28/86 32/30/88 35/11/71
f 19/8/68 16/15/75 20/16/76
f 29/17/77 31/14/74 33/31/89
f 19/8/68 12/20/78 42/32/90
f 19/8/68 11/10/70 12/20/78
f 5/26/84 6/4/64 10/3/63
f 42/32/90 12/20/78 44/22/80
f 2/33/91 39/23/81 21/34/92
f 7/27/85 44/22/80 9/25/83
f 38/5/93 2/33/91 3/35/94
f 8/7/95 44/22/80 43/7/96
f 3/35/94 9/25/83 8/7/95
f 43/7/96 39/23/81 38/5/93
f 8/7/97 47/36/98 3/35/99
f 51/37/100 48/38/101 47/36/98
f 43/7/67 52/39/102 8/7/97
f 47/36/98 52/39/102 51/37/100
f 3/35/99 49/40/103 38/5/65
f 18/1/3 57/1/2 55/1/23
f 40/1/6 65/1/5 63/1/24
f 14/1/1 58/1/8 57/1/2
f 41/1/4 66/1/10 65/1/5
f 24/1/7 59/1/12 58/1/8
f 45/1/9 67/1/29 66/1/10
f 22/1/11 61/1/16 59/1/12
f 41/1/4 37/1/21 46/1/14
f 37/1/21 30/1/15 46/1/14
f 30/1/15 22/1/11 4/1/13
f 22/1/11 14/1/1 4/1/13
f 14/1/1 90/1/20 4/1/13
f 36/1/17 62/1/22 61/1/16
f 13/1/18 55/1/23 54/1/19
f 37/1/21 63/1/24 62/1/22
f 45/1/9 41/1/4 46/1/14
f 53/1/25 68/1/28 54/1/19
f 56/1/26 54/1/19 57/1/2
f 56/1/26 57/1/2 58/1/8
f 56/1/26 58/1/8 59/1/12
f 60/1/104 56/1/26 59/1/12
f 60/1/104 59/1/12 61/1/16
f 60/1/104 61/1/16 62/1/22
f 64/1/27 60/1/104 62/1/22
f 64/1/27 63/1/24 66/1/10
f 64/1/27 66/1/10 67/1/29
f 67/1/29 68/1/28 64/1/27
f 69/1/105 70/1/106 74/1/107
f 60/1/35 64/1/39 72/1/36
f 56/1/33 70/1/38 69/1/31
f 64/1/39 73/1/32 72/1/36
f 68/1/30 53/1/34 69/1/31
f 60/1/35 71/1/37 70/1/38
f 70/1/106 75/1/108 74/1/107
f 72/1/40 73/1/109 77/1/41
f 69/1/105 74/1/107 77/1/41
f 70/1/106 71/1/110 75/1/108
f 71/1/110 76/1/42 75/1/108
f 73/1/109 69/1/105 77/1/41
f 71/1/110 72/1/40 76/1/42
f 88/1/43 91/1/47 92/1/44
f 80/1/46 81/1/50 91/1/47
f 92/1/44 84/1/49 87/1/45
f 81/1/50 82/1/54 93/1/48
f 82/1/54 84/1/49 93/1/48
f 76/1/51 77/1/56 87/1/45
f 75/1/53 83/1/59 82/1/54
f 75/1/53 76/1/51 86/1/52
f 74/1/55 82/1/54 78/1/58
f 81/1/50 80/1/46 79/1/60
f 87/1/45 85/1/61 86/1/52
f 79/1/60 88/1/43 89/1/57
s 0
f 28/41/111 33/31/111 92/42/111
f 33/31/112 34/28/112 93/43/112
f 34/28/113 1/29/113 90/44/113
f 90/44/114 54/45/114 34/28/114
f 45/46/115 2/33/115 67/47/115
f 2/33/116 21/34/116 67/47/116
f 21/34/117 28/41/117 67/47/117
f 34/28/118 54/45/118 91/48/118
f 67/47/119 92/42/119 91/48/119
f 91/48/120 54/45/120 67/47/120
f 34/28/121 91/48/121 93/43/121
f 92/42/122 67/47/122 28/41/122
f 93/43/123 92/42/123 33/31/123
s 1
f 26/2/62 27/24/82 10/3/63
f 38/5/65 49/40/103 50/6/66
f 42/32/90 7/27/85 19/8/68
f 5/26/84 15/13/73 7/27/85
f 15/13/73 16/15/75 7/27/85
f 16/15/75 19/8/68 7/27/85
f 19/8/68 28/41/124 23/9/69
f 35/11/71 32/30/88 17/12/72
f 17/12/72 32/30/88 31/14/74
f 31/14/74 29/17/77 20/16/76
f 29/17/77 28/41/124 19/8/68
f 2/33/91 46/18/14 9/25/83
f 6/4/64 9/25/83 46/18/14
f 4/19/13 1/29/87 6/4/64
f 12/20/78 11/10/70 23/9/69
f 44/22/80 12/20/78 25/21/79
f 27/24/82 35/11/71 15/13/73
f 2/33/91 45/46/9 46/18/14
f 4/19/13 90/44/20 1/29/87
f 9/25/83 6/4/64 5/26/84
f 15/13/73 5/26/84 10/3/63
f 27/24/82 34/28/86 35/11/71
f 34/28/86 33/31/89 32/30/88
f 33/31/89 31/14/74 32/30/88
f 28/41/124 29/17/77 33/31/89
f 28/41/124 21/34/92 25/21/79
f 28/41/124 25/21/79 23/9/69
f 1/29/87 27/24/82 26/2/62
f 21/34/92 39/23/81 25/21/79
f 7/27/85 42/32/90 44/22/80
f 1/29/87 26/2/62 6/4/64
f 38/5/93 39/23/81 2/33/91
f 8/7/95 9/25/83 44/22/80
f 3/35/94 2/33/91 9/25/83
f 43/7/96 44/22/80 39/23/81
f 8/7/97 52/39/102 47/36/98
f 51/37/100 50/6/66 48/38/101
f 43/7/67 50/6/66 52/39/102
f 47/36/98 48/38/101 49/40/103
f 51/37/100 52/39/102 50/6/66
f 49/40/103 48/38/101 50/6/66
f 3/35/99 47/36/98 49/40/103
