# Blender 4.3.2
# www.blender.org
mtllib Monkey.mtl
o Cube
v -1.000000 -1.000000 1.000000
v -0.603152 1.000000 0.603152
v -1.000000 -1.000000 -1.000000
v -0.603152 1.000000 -0.603152
v 1.000000 -1.000000 1.000000
v 0.603152 1.000000 0.603152
v 1.000000 -1.000000 -1.000000
v 0.603152 1.000000 -0.603152
v -1.000000 1.000000 1.000000
v -1.000000 1.000000 -1.000000
v 1.000000 1.000000 -1.000000
v 1.000000 1.000000 1.000000
v 0.603152 2.602903 0.603152
v -0.603152 2.602903 -0.603152
v -0.603152 2.602903 0.603152
v 0.603152 2.602903 -0.603152
vn -1.0000 -0.0000 -0.0000
vn -0.0000 -0.0000 -1.0000
vn 1.0000 -0.0000 -0.0000
vn -0.0000 -0.0000 1.0000
vn -0.0000 -1.0000 -0.0000
vn -0.0000 1.0000 -0.0000
vt 0.625000 0.000000
vt 0.375000 0.250000
vt 0.375000 0.000000
vt 0.625000 0.250000
vt 0.375000 0.500000
vt 0.625000 0.500000
vt 0.375000 0.750000
vt 0.625000 0.750000
vt 0.375000 1.000000
vt 0.125000 0.750000
vt 0.125000 0.500000
vt 0.825394 0.549606
vt 0.825394 0.700394
vt 0.625000 1.000000
vt 0.674606 0.700394
vt 0.674606 0.549606
vt 0.875000 0.500000
vt 0.875000 0.750000
s 0
f 9/1/1 3/2/1 1/3/1
f 10/4/2 7/5/2 3/2/2
f 11/6/3 5/7/3 7/5/3
f 12/8/4 1/9/4 5/7/4
f 7/5/5 1/10/5 3/11/5
f 4/12/1 2/13/1 15/13/1 14/12/1
f 9/1/1 10/4/1 3/2/1
f 10/4/2 11/6/2 7/5/2
f 11/6/3 12/8/3 5/7/3
f 12/8/4 9/14/4 1/9/4
f 7/5/5 5/7/5 1/10/5
f 6/15/3 8/16/3 16/16/3 13/15/3
f 2/13/6 4/12/6 10/17/6 9/18/6
f 4/12/6 8/16/6 11/6/6 10/17/6
f 8/16/6 6/15/6 12/8/6 11/6/6
f 6/15/6 2/13/6 9/18/6 12/8/6
f 14/12/6 13/15/6 16/16/6
f 14/12/6 15/13/6 13/15/6
f 2/13/4 6/15/4 13/15/4 15/13/4
f 8/16/2 4/12/2 14/12/2 16/16/2
