# Blender 4.3.2
# www.blender.org
mtllib Monkey.mtl
o Plane
v -17.648169 1.755576 20.090908
v -20.090908 0.000000 19.450756
v -19.830025 0.187495 19.903412
v 18.335331 1.755576 20.090908
v 20.090908 0.000000 19.450756
v 19.903412 0.187496 19.903412
v -17.648167 1.755576 -20.090908
v -20.090908 0.000000 -19.450756
v -19.830025 0.187495 -19.903412
v 18.335331 1.755576 -20.090908
v 20.090908 0.000000 -19.450756
v 19.903412 0.187496 -19.903412
v -17.176487 3.157869 -20.090908
v -18.827410 3.756347 -19.450756
v -18.651091 3.692428 -19.903412
v 16.867994 37.078957 -20.090908
v 16.275534 38.732048 -19.450756
v 16.338808 38.555496 -19.903412
v -15.962633 6.277554 -20.090908
v -17.571804 6.983336 -19.450756
v -17.399944 6.907957 -19.903412
v -14.404031 9.458591 -20.090908
v -15.951353 10.290602 -19.450756
v -15.786098 10.201744 -19.903412
v -12.506702 12.688377 -20.090908
v -13.989683 13.629916 -19.450756
v -13.831301 13.529360 -19.903412
v -10.298752 15.914138 -20.090908
v -11.715403 16.952583 -19.450756
v -11.564104 16.841677 -19.903412
v -7.813537 19.084309 -20.090908
v -9.161674 20.210154 -19.450756
v -9.017692 20.089914 -19.903412
v -5.088985 22.148987 -20.090908
v -6.365740 23.355124 -19.450756
v -6.229383 23.226309 -19.903412
v -2.166875 25.060503 -20.090908
v -3.368364 26.341633 -19.450756
v -3.240046 26.204807 -19.903412
v 0.907684 27.773918 -20.090908
v -0.213264 29.126129 -19.450756
v -0.093547 28.981712 -19.903412
v 4.086850 30.247597 -20.090908
v 3.053558 31.668011 -19.450756
v 3.163913 31.516312 -19.903412
v 7.320639 32.443840 -20.090908
v 6.384463 33.930210 -19.450756
v 6.484452 33.771469 -19.903412
v 10.557272 34.329407 -20.090908
v 9.730879 35.879738 -19.450756
v 9.819136 35.714165 -19.903412
v 13.743937 35.876446 -20.090908
v 13.044006 37.488171 -19.450756
v 13.118760 37.316036 -19.903412
v 16.867994 37.078957 20.090908
v 16.275534 38.732048 19.450756
v 16.338808 38.555496 19.903412
v -17.176489 3.157870 20.090908
v -18.827410 3.756349 19.450756
v -18.651093 3.692430 19.903412
v 13.743937 35.876446 20.090908
v 13.044006 37.488171 19.450756
v 13.118760 37.316036 19.903412
v 10.557278 34.329411 20.090908
v 9.730879 35.879738 19.450756
v 9.819139 35.714161 19.903412
v 7.320636 32.443832 20.090908
v 6.384463 33.930206 19.450756
v 6.484449 33.771469 19.903412
v 4.086852 30.247597 20.090908
v 3.053558 31.668009 19.450756
v 3.163914 31.516308 19.903412
v 0.907684 27.773916 20.090908
v -0.213264 29.126127 19.450756
v -0.093547 28.981710 19.903412
v -2.166873 25.060503 20.090908
v -3.368364 26.341631 19.450756
v -3.240044 26.204805 19.903412
v -5.088990 22.148979 20.090908
v -6.365740 23.355120 19.450756
v -6.229383 23.226303 19.903412
v -7.813537 19.084309 20.090908
v -9.161674 20.210154 19.450756
v -9.017692 20.089914 19.903412
v -10.298752 15.914138 20.090908
v -11.715403 16.952583 19.450756
v -11.564104 16.841677 19.903412
v -12.506702 12.688375 20.090908
v -13.989683 13.629914 19.450756
v -13.831301 13.529358 19.903412
v -14.404037 9.458579 20.090908
v -15.951353 10.290600 19.450756
v -15.786099 10.201739 19.903412
v -15.962633 6.277554 20.090908
v -17.571804 6.983335 19.450756
v -17.399944 6.907957 19.903412
v 18.335331 36.631290 20.090908
v 17.447758 37.271626 20.090908
v 18.075369 37.206253 20.090908
v 20.090908 37.811455 19.450756
v 18.014050 39.309803 19.450756
v 19.482609 39.156837 19.450756
v 19.903412 37.528347 19.903412
v 17.804522 39.042591 19.903412
v 19.288660 38.888000 19.903412
v 17.447758 37.271626 -20.090908
v 18.335331 36.631290 -20.090908
v 18.075369 37.206253 -20.090908
v 18.014050 39.309803 -19.450756
v 20.090908 37.811455 -19.450756
v 19.482609 39.156837 -19.450756
v 17.804522 39.042591 -19.903412
v 19.903412 37.528347 -19.903412
v 19.288658 38.888000 -19.903412
v 19.450756 0.640151 20.090908
v -19.200190 0.640151 20.090908
v -19.200190 0.640151 -20.090908
v 19.450756 0.640151 -20.090908
v 13.299230 36.900475 20.090908
v 16.491562 38.129265 20.090908
v 16.491562 38.129265 -20.090908
v 13.299230 36.900475 -20.090908
v 10.032219 35.314430 20.090908
v 10.032213 35.314426 -20.090908
v 6.725845 33.388226 20.090908
v 6.725848 33.388233 -20.090908
v 3.430338 31.150072 20.090908
v 3.430336 31.150072 -20.090908
v 0.195477 28.633059 20.090908
v 0.195477 28.633060 -20.090908
v -2.930255 25.874481 20.090908
v -2.930257 25.874481 -20.090908
v -5.900190 22.915312 20.090908
v -5.900186 22.915319 -20.090908
v -8.670087 19.799631 20.090908
v -8.670087 19.799631 -20.090908
v -11.198837 16.573925 20.090908
v -11.198837 16.573925 -20.090908
v -13.448931 13.286592 20.090908
v -13.448931 13.286594 -20.090908
v -15.387142 9.987211 20.090908
v -15.387136 9.987224 -20.090908
v -16.985039 6.725977 20.090908
v -16.985039 6.725976 -20.090908
v -18.225422 3.538116 20.090908
v -18.225420 3.538115 -20.090908
v 18.827892 38.249329 -20.090908
v 17.324165 38.405960 -20.090908
v 19.450756 36.871738 -20.090908
v 17.324165 38.405960 20.090908
v 18.827892 38.249329 20.090908
v 19.450756 36.871738 20.090908
vn 0.2778 0.1996 0.9397
vn -0.7828 -0.5626 0.2660
vn -0.5430 -0.3903 0.7435
vn -0.3015 0.3015 0.9045
vn 0.6871 -0.6871 0.2361
vn 0.4975 -0.4975 0.7106
vn 0.2778 0.1996 -0.9397
vn -0.7828 -0.5626 -0.2660
vn -0.5430 -0.3903 -0.7435
vn -0.3015 0.3015 -0.9045
vn 0.6871 -0.6871 -0.2361
vn 0.4975 -0.4975 -0.7106
vn 0.6598 -0.2392 -0.7124
vn -0.9222 0.3343 -0.1946
vn -0.6674 0.2419 -0.7043
vn 0.2368 -0.6606 -0.7124
vn -0.3309 0.9234 -0.1946
vn -0.2395 0.6682 -0.7043
vn 0.6386 -0.2801 -0.7167
vn -0.8983 0.3940 -0.1942
vn -0.6520 0.2860 -0.7022
vn 0.6151 -0.3308 -0.7157
vn -0.8640 0.4646 -0.1943
vn -0.6266 0.3369 -0.7027
vn 0.5903 -0.3748 -0.7149
vn -0.8281 0.5258 -0.1944
vn -0.6003 0.3812 -0.7031
vn 0.5643 -0.4137 -0.7144
vn -0.7911 0.5799 -0.1944
vn -0.5733 0.4203 -0.7033
vn 0.5373 -0.4487 -0.7141
vn -0.7529 0.6288 -0.1944
vn -0.5455 0.4556 -0.7035
vn 0.5090 -0.4808 -0.7140
vn -0.7130 0.6736 -0.1945
vn -0.5166 0.4880 -0.7036
vn 0.4790 -0.5107 -0.7140
vn -0.6710 0.7155 -0.1945
vn -0.4861 0.5183 -0.7036
vn 0.4468 -0.5389 -0.7141
vn -0.6260 0.7552 -0.1944
vn -0.4536 0.5472 -0.7035
vn 0.4116 -0.5658 -0.7144
vn -0.5770 0.7932 -0.1944
vn -0.4182 0.5749 -0.7033
vn 0.3726 -0.5916 -0.7150
vn -0.5228 0.8300 -0.1944
vn -0.3790 0.6017 -0.7031
vn 0.3285 -0.6163 -0.7157
vn -0.4614 0.8656 -0.1943
vn -0.3347 0.6278 -0.7027
vn 0.2778 -0.6396 -0.7167
vn -0.3907 0.8998 -0.1942
vn -0.2836 0.6530 -0.7022
vn 0.2368 -0.6606 0.7124
vn -0.3309 0.9234 0.1946
vn -0.2395 0.6682 0.7043
vn 0.6598 -0.2392 0.7124
vn -0.9222 0.3343 0.1946
vn -0.6674 0.2419 0.7043
vn 0.2778 -0.6396 0.7167
vn -0.3907 0.8998 0.1942
vn -0.2836 0.6530 0.7022
vn 0.3285 -0.6163 0.7157
vn -0.4614 0.8656 0.1943
vn -0.3347 0.6278 0.7027
vn 0.3726 -0.5916 0.7149
vn -0.5228 0.8300 0.1944
vn -0.3790 0.6017 0.7031
vn 0.4116 -0.5658 0.7144
vn -0.5770 0.7932 0.1944
vn -0.4182 0.5749 0.7033
vn 0.4468 -0.5389 0.7141
vn -0.6260 0.7552 0.1944
vn -0.4536 0.5472 0.7035
vn 0.4790 -0.5107 0.7140
vn -0.6710 0.7155 0.1945
vn -0.4861 0.5183 0.7036
vn 0.5090 -0.4808 0.7140
vn -0.7130 0.6736 0.1945
vn -0.5166 0.4880 0.7036
vn 0.5373 -0.4487 0.7141
vn -0.7529 0.6288 0.1944
vn -0.5455 0.4556 0.7035
vn 0.5643 -0.4137 0.7144
vn -0.7911 0.5799 0.1944
vn -0.5733 0.4203 0.7033
vn 0.5903 -0.3748 0.7150
vn -0.8281 0.5258 0.1944
vn -0.6003 0.3812 0.7031
vn 0.6151 -0.3308 0.7157
vn -0.8640 0.4646 0.1943
vn -0.6266 0.3369 0.7027
vn 0.6386 -0.2801 0.7167
vn -0.8983 0.3940 0.1942
vn -0.6520 0.2860 0.7022
vn -0.6379 -0.1375 0.7577
vn 0.0707 -0.6487 0.7578
vn -0.3193 -0.4425 0.8380
vn 0.9423 0.2268 0.2460
vn -0.0819 0.9658 0.2460
vn 0.5608 0.7773 0.2850
vn 0.6610 0.1201 0.7407
vn -0.0945 0.6651 0.7407
vn 0.3641 0.5046 0.7828
vn 0.0707 -0.6487 -0.7578
vn -0.6379 -0.1375 -0.7578
vn -0.3193 -0.4425 -0.8380
vn -0.0819 0.9658 -0.2460
vn 0.9423 0.2268 -0.2460
vn 0.5608 0.7773 -0.2850
vn -0.0945 0.6651 -0.7407
vn 0.6610 0.1201 -0.7407
vn 0.3641 0.5046 -0.7828
vn 0.1481 -0.1481 0.9778
vn -0.1516 -0.1090 0.9824
vn -0.1516 -0.1090 -0.9824
vn 0.1481 -0.1481 -0.9778
vn -0.0797 0.1834 0.9798
vn -0.0667 0.1862 0.9802
vn -0.0667 0.1862 -0.9802
vn -0.0797 0.1834 -0.9798
vn -0.0938 0.1760 0.9799
vn -0.0938 0.1760 -0.9799
vn -0.1061 0.1685 0.9800
vn -0.1061 0.1685 -0.9800
vn -0.1170 0.1608 0.9800
vn -0.1170 0.1608 -0.9800
vn -0.1268 0.1530 0.9801
vn -0.1268 0.1530 -0.9801
vn -0.1359 0.1449 0.9801
vn -0.1359 0.1449 -0.9801
vn -0.1444 0.1364 0.9801
vn -0.1444 0.1364 -0.9801
vn -0.1525 0.1274 0.9801
vn -0.1525 0.1274 -0.9801
vn -0.1604 0.1176 0.9800
vn -0.1604 0.1176 -0.9800
vn -0.1681 0.1067 0.9800
vn -0.1681 0.1067 -0.9800
vn -0.1757 0.0945 0.9799
vn -0.1757 0.0945 -0.9799
vn -0.1831 0.0803 0.9798
vn -0.1831 0.0803 -0.9798
vn -0.1860 0.0674 0.9802
vn -0.1860 0.0674 -0.9802
vn 0.0903 0.1252 -0.9880
vn -0.0444 0.1922 -0.9804
vn 0.1964 0.0185 -0.9804
vn -0.0444 0.1922 0.9804
vn 0.0903 0.1252 0.9880
vn 0.1964 0.0185 0.9804
vt 0.000000 0.011931
vt 0.003535 0.023575
vt 0.000000 0.023801
vt 0.318762 0.377825
vt 0.603497 0.377078
vt 0.600136 0.380440
vt 0.310878 0.011931
vt 0.307343 0.023575
vt 0.307343 0.009495
vt 0.618484 0.307343
vt 0.310878 0.003535
vt 0.618484 0.003535
vt 0.905665 0.310878
vt 0.618484 0.307343
vt 0.907530 0.307343
vt 0.307343 0.350902
vt 0.003535 0.374383
vt 0.003535 0.350902
vt 0.307343 0.050381
vt 0.003535 0.079111
vt 0.003535 0.050381
vt 0.307343 0.079111
vt 0.003535 0.109345
vt 0.307343 0.140643
vt 0.003535 0.140643
vt 0.003535 0.172547
vt 0.307343 0.172547
vt 0.003535 0.204593
vt 0.307343 0.204593
vt 0.003535 0.236314
vt 0.307343 0.236314
vt 0.003535 0.267247
vt 0.307343 0.267247
vt 0.003535 0.296940
vt 0.307343 0.296940
vt 0.003535 0.324961
vt 0.307343 0.324961
vt 0.642272 0.993536
vt 0.619703 0.689728
vt 0.642272 0.689728
vt 0.616198 0.000000
vt 0.000000 0.377078
vt 0.003361 0.681133
vt 0.000000 0.686193
vt 0.310878 0.307343
vt 0.616198 0.310878
vt 0.312024 0.310878
vt 0.600136 0.681133
vt 0.306847 0.394258
vt 0.305531 0.402041
vt 0.301748 0.390603
vt 0.561231 1.000000
vt 0.583139 0.686193
vt 0.583139 1.000000
vt 0.618484 0.003535
vt 0.284958 0.425680
vt 0.297966 0.402041
vt 0.288340 0.427181
vt 0.000000 0.050513
vt 0.318539 0.425680
vt 0.308996 0.400756
vt 0.310878 0.050513
vt 0.310878 0.023801
vt 0.275900 0.452967
vt 0.272641 0.451211
vt 0.000000 0.079125
vt 0.327597 0.452967
vt 0.315157 0.427181
vt 0.260813 0.479050
vt 0.257682 0.477072
vt 0.000000 0.109254
vt 0.330856 0.451211
vt 0.342684 0.479050
vt 0.310878 0.079125
vt 0.307343 0.109345
vt 0.243299 0.505046
vt 0.240300 0.502872
vt 0.000000 0.140454
vt 0.345815 0.477072
vt 0.360197 0.505046
vt 0.310878 0.109254
vt 0.223616 0.530571
vt 0.220753 0.528220
vt 0.000000 0.172267
vt 0.363196 0.502872
vt 0.379881 0.530571
vt 0.310878 0.140454
vt 0.202050 0.555250
vt 0.199330 0.552736
vt 0.000000 0.204225
vt 0.382743 0.528220
vt 0.401447 0.555250
vt 0.310878 0.172267
vt 0.178919 0.578721
vt 0.176349 0.576055
vt 0.000000 0.235861
vt 0.404166 0.552736
vt 0.424578 0.578721
vt 0.310878 0.204225
vt 0.152153 0.597829
vt 0.154562 0.600640
vt 0.000000 0.266709
vt 0.451344 0.597829
vt 0.427147 0.576055
vt 0.310878 0.266709
vt 0.310878 0.235861
vt 0.127102 0.617735
vt 0.129336 0.620685
vt 0.000000 0.296318
vt 0.476395 0.617735
vt 0.448935 0.600640
vt 0.310878 0.296318
vt 0.101573 0.635477
vt 0.103613 0.638562
vt 0.000000 0.324252
vt 0.501924 0.635477
vt 0.474161 0.620685
vt 0.310878 0.324252
vt 0.075950 0.650794
vt 0.077771 0.654010
vt 0.000000 0.350101
vt 0.527547 0.650794
vt 0.499884 0.638562
vt 0.310878 0.350101
vt 0.050623 0.663461
vt 0.052191 0.666803
vt 0.000000 0.373487
vt 0.552874 0.663461
vt 0.525726 0.654010
vt 0.310878 0.373487
vt 0.027219 0.676768
vt 0.025866 0.673340
vt 0.641414 0.686193
vt 0.618924 0.686193
vt 0.576277 0.676768
vt 0.551306 0.666803
vt 0.641414 0.997071
vt 0.619703 0.993536
vt 0.593105 0.686193
vt 0.593105 1.000000
vt 0.905665 0.000000
vt 0.620217 -0.000000
vt 0.284735 0.377825
vt 0.289989 0.374383
vt 0.594107 0.997071
vt 0.593105 0.993536
vt 0.603497 0.686193
vt 0.594107 0.686193
vt 0.593105 0.689728
vt 0.308064 0.382571
vt 0.313508 0.374383
vt 0.310878 0.002335
vt 0.917041 0.000000
vt 0.907530 0.003535
vt 0.301748 0.390603
vt 0.295433 0.382571
vt 0.300548 0.379068
vt 0.003535 0.009495
vt 0.000000 0.002335
vt 0.003535 0.000000
vt 0.917041 0.310878
vt 0.918787 0.307343
vt 0.307343 0.000000
vt 0.918786 0.003535
vt 0.296650 0.394258
vt 0.294501 0.400756
vt 0.012023 0.668978
vt 0.003361 0.380440
vt 0.012023 0.389037
vt 0.591474 0.668978
vt 0.277005 0.422294
vt 0.326491 0.422294
vt 0.317153 0.397903
vt 0.264991 0.447197
vt 0.250348 0.472513
vt 0.338506 0.447197
vt 0.233292 0.497830
vt 0.353149 0.472513
vt 0.214081 0.522741
vt 0.370205 0.497830
vt 0.193009 0.546856
vt 0.389416 0.522741
vt 0.170398 0.569800
vt 0.433099 0.569800
vt 0.410488 0.546856
vt 0.146598 0.591217
vt 0.456899 0.591217
vt 0.121978 0.610780
vt 0.481518 0.610780
vt 0.096927 0.628190
vt 0.506570 0.628190
vt 0.071845 0.643184
vt 0.531652 0.643184
vt 0.047141 0.655539
vt 0.556356 0.655539
vt 0.022913 0.665208
vt 0.577631 0.673340
vt 0.580584 0.665208
vt 0.316164 0.388501
vt 0.320629 0.386520
vt 0.287333 0.388501
vt 0.287840 0.393379
vt 0.286344 0.397903
vt 0.282868 0.386520
vt 0.591474 0.389037
vt 0.315656 0.393379
vt 0.539405 1.000000
vt 0.561231 0.686193
vt 0.517748 1.000000
vt 0.539405 0.686193
vt 0.890477 0.624685
vt 0.868591 0.310878
vt 0.890477 0.310878
vt 0.844669 0.624685
vt 0.868591 0.624685
vt 0.819077 0.624685
vt 0.844669 0.310878
vt 0.792209 0.624685
vt 0.819077 0.310878
vt 0.764481 0.624685
vt 0.792209 0.310878
vt 0.736322 0.624685
vt 0.764481 0.310878
vt 0.708173 0.310878
vt 0.736322 0.310878
vt 0.680482 0.624685
vt 0.708173 0.624685
vt 0.653697 0.624685
vt 0.680482 0.310878
vt 0.627924 0.624685
vt 0.653698 0.310878
vt 0.623188 0.624685
vt 0.627924 0.310878
vt 0.618484 0.624685
vt 0.623188 0.310878
vt 0.004817 0.686193
vt -0.000000 1.000000
vt 0.000000 0.686193
vt 0.271069 0.686193
vt 0.004817 1.000000
vt 0.517748 0.686193
vt 0.271069 1.000000
vt 0.271069 0.686193
vt 0.620217 0.310878
vt 0.307343 0.374383
vt 0.312024 0.000000
vt 0.618924 0.997071
vt 0.302949 0.379068
vt 0.517748 0.686193
vt 0.618485 0.310878
vt 0.271069 1.000000
vt 0.517748 1.000000
s 1
usemtl Material.001
f 104/1/104 56/2/56 57/3/57
f 149/4/149 12/5/12 118/6/118
f 112/7/112 17/8/17 109/9/109
f 8/10/8 5/11/5 2/12/2
f 103/13/103 5/14/5 100/15/100
f 23/16/23 95/17/95 92/18/92
f 53/19/53 65/20/65 62/21/62
f 50/22/50 68/23/68 65/20/65
f 68/23/68 44/24/44 71/25/71
f 44/24/44 74/26/74 71/25/71
f 41/27/41 77/28/77 74/26/74
f 38/29/38 80/30/80 77/28/77
f 35/31/35 83/32/83 80/30/80
f 32/33/32 86/34/86 83/32/83
f 29/35/29 89/36/89 86/34/86
f 26/37/26 92/18/92 89/36/89
f 17/8/17 62/21/62 56/2/56
f 20/38/20 59/39/59 95/40/95
f 5/11/5 3/41/3 2/12/2
f 6/42/6 116/43/116 3/44/3
f 11/45/11 9/46/9 12/47/12
f 12/5/12 117/48/117 118/6/118
f 148/49/148 18/50/18 112/51/112
f 19/52/19 58/53/58 13/54/13
f 11/55/11 100/15/100 5/14/5
f 119/56/119 57/57/57 63/58/63
f 63/59/63 56/2/56 62/21/62
f 122/60/122 18/50/18 121/61/121
f 54/62/54 17/8/17 18/63/18
f 119/56/119 66/64/66 123/65/123
f 63/59/63 65/20/65 66/66/66
f 122/60/122 51/67/51 54/68/54
f 54/62/54 50/22/50 53/19/53
f 123/65/123 69/69/69 125/70/125
f 66/66/66 68/23/68 69/71/69
f 124/72/124 48/73/48 51/67/51
f 51/74/51 47/75/47 50/22/50
f 125/70/125 72/76/72 127/77/127
f 69/71/69 71/25/71 72/78/72
f 126/79/126 45/80/45 48/73/48
f 48/81/48 44/24/44 47/75/47
f 127/77/127 75/82/75 129/83/129
f 72/78/72 74/26/74 75/84/75
f 128/85/128 42/86/42 45/80/45
f 45/87/45 41/27/41 44/24/44
f 129/83/129 78/88/78 131/89/131
f 75/84/75 77/28/77 78/90/78
f 130/91/130 39/92/39 42/86/42
f 42/93/42 38/29/38 41/27/41
f 131/89/131 81/94/81 133/95/133
f 78/90/78 80/30/80 81/96/81
f 132/97/132 36/98/36 39/92/39
f 39/99/39 35/31/35 38/29/38
f 135/100/135 81/94/81 84/101/84
f 84/102/84 80/30/80 83/32/83
f 136/103/136 36/98/36 134/104/134
f 33/105/33 35/31/35 36/106/36
f 137/107/137 84/101/84 87/108/87
f 87/109/87 83/32/83 86/34/86
f 138/110/138 33/111/33 136/103/136
f 30/112/30 32/33/32 33/105/33
f 139/113/139 87/108/87 90/114/90
f 90/115/90 86/34/86 89/36/89
f 140/116/140 30/117/30 138/110/138
f 27/118/27 29/35/29 30/112/30
f 141/119/141 90/114/90 93/120/93
f 93/121/93 89/36/89 92/18/92
f 142/122/142 27/123/27 140/116/140
f 24/124/24 26/37/26 27/118/27
f 143/125/143 93/120/93 96/126/96
f 96/127/96 92/18/92 95/17/95
f 144/128/144 24/129/24 142/122/142
f 21/130/21 23/16/23 24/124/24
f 143/125/143 60/131/60 145/132/145
f 96/133/96 59/39/59 60/134/60
f 144/128/144 15/135/15 21/136/21
f 21/137/21 14/138/14 20/38/20
f 13/54/13 1/139/1 7/140/7
f 113/141/113 11/55/11 12/142/12
f 152/143/152 6/42/6 103/144/103
f 56/2/56 109/9/109 17/8/17
f 14/138/14 9/145/9 8/146/8
f 15/135/15 117/48/117 9/147/9
f 116/43/116 60/131/60 3/44/3
f 3/148/3 59/39/59 2/149/2
f 2/149/2 14/138/14 8/146/8
f 112/51/112 147/150/147 148/49/148
f 147/150/147 113/151/113 149/4/149
f 109/9/109 114/152/114 112/7/112
f 114/153/114 110/154/110 113/141/113
f 104/155/104 151/156/151 105/157/105
f 151/156/151 103/144/103 105/157/105
f 101/158/101 105/159/105 102/160/102
f 105/161/105 100/15/100 102/162/102
f 101/158/101 111/163/111 109/9/109
f 102/162/102 110/154/110 111/164/111
f 150/165/150 57/57/57 120/166/120
f 1/167/1 115/168/115 4/169/4
f 7/170/7 118/6/118 117/48/117
f 61/171/61 120/166/120 119/56/119
f 52/172/52 121/61/121 16/173/16
f 61/171/61 123/65/123 64/174/64
f 52/172/52 124/72/124 122/60/122
f 64/174/64 125/70/125 67/175/67
f 49/176/49 126/79/126 124/72/124
f 67/175/67 127/77/127 70/177/70
f 46/178/46 128/85/128 126/79/126
f 70/177/70 129/83/129 73/179/73
f 43/180/43 130/91/130 128/85/128
f 73/179/73 131/89/131 76/181/76
f 40/182/40 132/97/132 130/91/130
f 76/181/76 133/95/133 79/183/79
f 34/184/34 132/97/132 37/185/37
f 82/186/82 133/95/133 135/100/135
f 31/187/31 134/104/134 34/184/34
f 85/188/85 135/100/135 137/107/137
f 28/189/28 136/103/136 31/187/31
f 88/190/88 137/107/137 139/113/139
f 25/191/25 138/110/138 28/189/28
f 91/192/91 139/113/139 141/119/141
f 22/193/22 140/116/140 25/191/25
f 94/194/94 141/119/141 143/125/143
f 19/195/19 142/122/142 22/193/22
f 94/194/94 145/132/145 58/196/58
f 19/195/19 146/197/146 144/128/144
f 7/170/7 146/197/146 13/198/13
f 1/167/1 145/132/145 116/43/116
f 108/199/108 148/49/148 147/150/147
f 108/199/108 149/4/149 107/200/107
f 99/201/99 150/165/150 98/202/98
f 99/201/99 152/143/152 151/156/151
f 98/202/98 120/166/120 55/203/55
f 4/169/4 152/143/152 97/204/97
f 10/205/10 149/4/149 118/6/118
f 106/206/106 121/61/121 148/49/148
f 22/207/22 94/208/94 19/52/19
f 25/209/25 91/210/91 22/207/22
f 25/211/25 85/212/85 88/213/88
f 31/214/31 85/212/85 28/215/28
f 34/216/34 82/217/82 31/214/31
f 37/218/37 79/219/79 34/216/34
f 40/220/40 76/221/76 37/218/37
f 43/222/43 73/223/73 40/220/40
f 43/222/43 67/224/67 70/225/70
f 49/226/49 67/224/67 46/227/46
f 52/228/52 64/229/64 49/226/49
f 16/230/16 61/231/61 52/228/52
f 106/232/106 55/233/55 16/230/16
f 108/234/108 98/235/98 106/232/106
f 107/236/107 99/237/99 108/238/108
f 10/239/10 97/240/97 107/236/107
f 7/241/7 4/242/4 10/243/10
f 104/1/104 101/158/101 56/2/56
f 149/4/149 113/151/113 12/5/12
f 112/7/112 18/63/18 17/8/17
f 8/10/8 11/45/11 5/11/5
f 103/13/103 6/244/6 5/14/5
f 23/16/23 20/245/20 95/17/95
f 53/19/53 50/22/50 65/20/65
f 50/22/50 47/75/47 68/23/68
f 68/23/68 47/75/47 44/24/44
f 44/24/44 41/27/41 74/26/74
f 41/27/41 38/29/38 77/28/77
f 38/29/38 35/31/35 80/30/80
f 35/31/35 32/33/32 83/32/83
f 32/33/32 29/35/29 86/34/86
f 29/35/29 26/37/26 89/36/89
f 26/37/26 23/16/23 92/18/92
f 17/8/17 53/19/53 62/21/62
f 20/38/20 14/138/14 59/39/59
f 5/11/5 6/246/6 3/41/3
f 6/42/6 115/168/115 116/43/116
f 11/45/11 8/10/8 9/46/9
f 12/5/12 9/147/9 117/48/117
f 148/49/148 121/61/121 18/50/18
f 19/52/19 94/208/94 58/53/58
f 11/55/11 110/154/110 100/15/100
f 119/56/119 120/166/120 57/57/57
f 63/59/63 57/3/57 56/2/56
f 122/60/122 54/68/54 18/50/18
f 54/62/54 53/19/53 17/8/17
f 119/56/119 63/58/63 66/64/66
f 63/59/63 62/21/62 65/20/65
f 122/60/122 124/72/124 51/67/51
f 54/62/54 51/74/51 50/22/50
f 123/65/123 66/64/66 69/69/69
f 66/66/66 65/20/65 68/23/68
f 124/72/124 126/79/126 48/73/48
f 51/74/51 48/81/48 47/75/47
f 125/70/125 69/69/69 72/76/72
f 69/71/69 68/23/68 71/25/71
f 126/79/126 128/85/128 45/80/45
f 48/81/48 45/87/45 44/24/44
f 127/77/127 72/76/72 75/82/75
f 72/78/72 71/25/71 74/26/74
f 128/85/128 130/91/130 42/86/42
f 45/87/45 42/93/42 41/27/41
f 129/83/129 75/82/75 78/88/78
f 75/84/75 74/26/74 77/28/77
f 130/91/130 132/97/132 39/92/39
f 42/93/42 39/99/39 38/29/38
f 131/89/131 78/88/78 81/94/81
f 78/90/78 77/28/77 80/30/80
f 132/97/132 134/104/134 36/98/36
f 39/99/39 36/106/36 35/31/35
f 135/100/135 133/95/133 81/94/81
f 84/102/84 81/96/81 80/30/80
f 136/103/136 33/111/33 36/98/36
f 33/105/33 32/33/32 35/31/35
f 137/107/137 135/100/135 84/101/84
f 87/109/87 84/102/84 83/32/83
f 138/110/138 30/117/30 33/111/33
f 30/112/30 29/35/29 32/33/32
f 139/113/139 137/107/137 87/108/87
f 90/115/90 87/109/87 86/34/86
f 140/116/140 27/123/27 30/117/30
f 27/118/27 26/37/26 29/35/29
f 141/119/141 139/113/139 90/114/90
f 93/121/93 90/115/90 89/36/89
f 142/122/142 24/129/24 27/123/27
f 24/124/24 23/16/23 26/37/26
f 143/125/143 141/119/141 93/120/93
f 96/127/96 93/121/93 92/18/92
f 144/128/144 21/136/21 24/129/24
f 21/130/21 20/245/20 23/16/23
f 143/125/143 96/126/96 60/131/60
f 96/133/96 95/40/95 59/39/59
f 144/128/144 146/197/146 15/135/15
f 21/137/21 15/247/15 14/138/14
f 13/54/13 58/53/58 1/139/1
f 113/141/113 110/154/110 11/55/11
f 152/143/152 115/168/115 6/42/6
f 56/2/56 101/158/101 109/9/109
f 14/138/14 15/247/15 9/145/9
f 15/135/15 146/197/146 117/48/117
f 116/43/116 145/132/145 60/131/60
f 3/148/3 60/134/60 59/39/59
f 2/149/2 59/39/59 14/138/14
f 112/51/112 114/248/114 147/150/147
f 147/150/147 114/248/114 113/151/113
f 109/9/109 111/163/111 114/152/114
f 114/153/114 111/164/111 110/154/110
f 104/155/104 150/165/150 151/156/151
f 151/156/151 152/143/152 103/144/103
f 101/158/101 104/1/104 105/159/105
f 105/161/105 103/13/103 100/15/100
f 101/158/101 102/160/102 111/163/111
f 102/162/102 100/15/100 110/154/110
f 150/165/150 104/155/104 57/57/57
f 1/167/1 116/43/116 115/168/115
f 7/170/7 10/205/10 118/6/118
f 61/171/61 55/203/55 120/166/120
f 52/172/52 122/60/122 121/61/121
f 61/171/61 119/56/119 123/65/123
f 52/172/52 49/176/49 124/72/124
f 64/174/64 123/65/123 125/70/125
f 49/176/49 46/178/46 126/79/126
f 67/175/67 125/70/125 127/77/127
f 46/178/46 43/180/43 128/85/128
f 70/177/70 127/77/127 129/83/129
f 43/180/43 40/182/40 130/91/130
f 73/179/73 129/83/129 131/89/131
f 40/182/40 37/185/37 132/97/132
f 76/181/76 131/89/131 133/95/133
f 34/184/34 134/104/134 132/97/132
f 82/186/82 79/183/79 133/95/133
f 31/187/31 136/103/136 134/104/134
f 85/188/85 82/186/82 135/100/135
f 28/189/28 138/110/138 136/103/136
f 88/190/88 85/188/85 137/107/137
f 25/191/25 140/116/140 138/110/138
f 91/192/91 88/190/88 139/113/139
f 22/193/22 142/122/142 140/116/140
f 94/194/94 91/192/91 141/119/141
f 19/195/19 144/128/144 142/122/142
f 94/194/94 143/125/143 145/132/145
f 19/195/19 13/198/13 146/197/146
f 7/170/7 117/48/117 146/197/146
f 1/167/1 58/196/58 145/132/145
f 108/199/108 106/206/106 148/49/148
f 108/199/108 147/150/147 149/4/149
f 99/201/99 151/156/151 150/165/150
f 99/201/99 97/204/97 152/143/152
f 98/202/98 150/165/150 120/166/120
f 4/169/4 115/168/115 152/143/152
f 10/205/10 107/200/107 149/4/149
f 106/206/106 16/173/16 121/61/121
f 22/207/22 91/210/91 94/208/94
f 25/209/25 88/249/88 91/210/91
f 25/211/25 28/215/28 85/212/85
f 31/214/31 82/217/82 85/212/85
f 34/216/34 79/219/79 82/217/82
f 37/218/37 76/221/76 79/219/79
f 40/220/40 73/223/73 76/221/76
f 43/222/43 70/225/70 73/223/73
f 43/222/43 46/227/46 67/224/67
f 49/226/49 64/229/64 67/224/67
f 52/228/52 61/231/61 64/229/64
f 16/230/16 55/233/55 61/231/61
f 106/232/106 98/235/98 55/233/55
f 108/234/108 99/250/99 98/235/98
f 107/236/107 97/240/97 99/237/99
f 10/239/10 4/251/4 97/240/97
f 7/241/7 1/252/1 4/242/4
