# Aspose.3D Wavefront OBJ Exporter
# Copyright 2004-2025 Aspose Pty Ltd.
# File created: 07/05/2025 04:44:52

mtllib material.lib
g Head

#
# object Head
#

v 80 279.99997 -80.000015
v 80 119.999954 -79.999985
v 80 279.99997 79.999985
v 80 119.999985 80.000015
v -80 279.99997 -80.000015
v -80 119.999954 -79.999985
v -80 279.99997 79.999985
v -80 119.999985 80.000015
# 8 vertices

vn 0 1 -1.6292068E-07
vn 0 1 -1.6292068E-07
vn 0 1 -1.6292068E-07
vn 0 1 -1.6292068E-07
vn 0 1.6292068E-07 1
vn 0 1.6292068E-07 1
vn 0 1.6292068E-07 1
vn 0 1.6292068E-07 1
vn -1 0 0
vn -1 0 0
vn -1 0 0
vn -1 0 0
vn 0 -1 1.6292068E-07
vn 0 -1 1.6292068E-07
vn 0 -1 1.6292068E-07
vn 0 -1 1.6292068E-07
vn 1 0 0
vn 1 0 0
vn 1 0 0
vn 1 0 0
vn 0 -1.6292068E-07 -1
vn 0 -1.6292068E-07 -1
vn 0 -1.6292068E-07 -1
vn 0 -1.6292068E-07 -1
# 24 vertex normals

vt 0.25 0.875 0
vt 0.25 1 0
vt 0.125 0.75 0
vt 0.25 0.75 0
vt 0.375 0.875 0
vt 0.5 0.875 0
vt 0.125 0.875 0
vt 0.375 1 0
vt 0 0.75 0
vt 0 0.875 0
vt 0.375 0.875 0
vt 0.25 0.875 0
vt 0.125 1 0
vt 0.25 1 0
vt 0.375 0.75 0
vt 0.5 0.75 0
# 16 texture coords

usemtl Material
s 1
f 1/1/1 5/2/2 7/13/3 3/7/4
f 4/3/5 3/7/6 7/10/7 8/9/8
f 8/16/9 7/6/10 5/11/11 6/15/12
f 6/14/13 2/12/14 4/5/15 8/8/16
f 2/4/17 1/1/18 3/7/19 4/3/20
f 6/15/21 5/11/22 1/1/23 2/4/24
#6 polygons

g HeadOut

#
# object HeadOut
#

v -90 109.999985 90.000015
v -90 289.99997 89.999985
v -90 109.999954 -89.999985
v -90 289.99997 -90.000015
v 90 109.999985 90.000015
v 90 289.99997 89.999985
v 90 109.999954 -89.999985
v 90 289.99997 -90.000015
# 8 vertices

vn -1 0 0
vn -1 0 0
vn -1 0 0
vn -1 0 0
vn 0 -1.6292068E-07 -1
vn 0 -1.6292068E-07 -1
vn 0 -1.6292068E-07 -1
vn 0 -1.6292068E-07 -1
vn 1 0 0
vn 1 0 0
vn 1 0 0
vn 1 0 0
vn 0 1.6292068E-07 1
vn 0 1.6292068E-07 1
vn 0 1.6292068E-07 1
vn 0 1.6292068E-07 1
vn 0 -1 1.6292068E-07
vn 0 -1 1.6292068E-07
vn 0 -1 1.6292068E-07
vn 0 -1 1.6292068E-07
vn 0 1 -1.6292068E-07
vn 0 1 -1.6292068E-07
vn 0 1 -1.6292068E-07
vn 0 1 -1.6292068E-07
# 24 vertex normals

vt 0.625 0.75 0
vt 0.875 0.875 0
vt 0.625 0.875 0
vt 0.5 0.75 0
vt 0.75 0.875 0
vt 0.875 1 0
vt 0.75 1 0
vt 0.625 1 0
vt 0.75 1 0
vt 1 0.875 0
vt 0.75 0.75 0
vt 0.875 0.875 0
vt 0.5 0.875 0
vt 0.875 0.75 0
vt 1 0.75 0
vt 0.75 0.875 0
# 16 texture coords

usemtl Material
s 2
f 9/31/25 10/26/26 12/18/27 11/30/28
f 11/30/29 12/18/30 16/32/31 15/27/32
f 15/27/33 16/32/34 14/19/35 13/17/36
f 13/17/37 14/19/38 10/29/39 9/20/40
f 11/25/41 15/21/42 13/28/43 9/22/44
f 16/32/45 12/23/46 10/24/47 14/19/48
#6 polygons

g Body

#
# object Body
#

v -40 -119.99999 80.00002
v -40 120.00002 79.99998
v -40 -120.00002 -79.99998
v -40 119.99999 -80.00002
v 40 -119.99999 80.00002
v 40 120.00002 79.99998
v 40 -120.00002 -79.99998
v 40 119.99999 -80.00002
# 8 vertices

vn -1 0 0
vn -1 0 0
vn -1 0 0
vn -1 0 0
vn 0 -1.6292068E-07 -1
vn 0 -1.6292068E-07 -1
vn 0 -1.6292068E-07 -1
vn 0 -1.6292068E-07 -1
vn 1 0 0
vn 1 0 0
vn 1 0 0
vn 1 0 0
vn 0 1.6292068E-07 1
vn 0 1.6292068E-07 1
vn 0 1.6292068E-07 1
vn 0 1.6292068E-07 1
vn 0 -1 1.6292068E-07
vn 0 -1 1.6292068E-07
vn 0 -1 1.6292068E-07
vn 0 -1 1.6292068E-07
vn 0 1 -1.6292068E-07
vn 0 1 -1.6292068E-07
vn 0 1 -1.6292068E-07
vn 0 1 -1.6292068E-07
# 24 vertex normals

vt 0.625 0.68749994 0
vt 0.3125 0.6875 0
vt 0.3125 0.5 0
vt 0.25 0.68750006 0
vt 0.5 0.6875 0
vt 0.4375 0.75 0
vt 0.4375 0.6875 0
vt 0.4375 0.5 0
vt 0.3125 0.75 0
vt 0.625 0.49999994 0
vt 0.25 0.5 0
vt 0.5 0.5 0
vt 0.4375 0.75 0
vt 0.4375 0.6875 0
vt 0.5625 0.75 0
vt 0.5625 0.6875 0
# 16 texture coords

usemtl Material
s 4
f 17/42/49 18/33/50 20/37/51 19/44/52
f 19/44/53 20/37/54 24/39/55 23/40/56
f 23/40/57 24/39/58 22/34/59 21/35/60
f 21/35/61 22/34/62 18/36/63 17/43/64
f 19/45/65 23/46/66 21/48/67 17/47/68
f 24/39/69 20/38/70 18/41/71 22/34/72
#6 polygons

g BodyOut

#
# object BodyOut
#

v -50 -129.99998 90.00002
v -50 130.00002 89.99998
v -50 -130.00002 -89.99998
v -50 129.99998 -90.00002
v 50 -129.99998 90.00002
v 50 130.00002 89.99998
v 50 -130.00002 -89.99998
v 50 129.99998 -90.00002
# 8 vertices

vn -1 0 0
vn -1 0 0
vn -1 0 0
vn -1 0 0
vn 0 -1.6292068E-07 -1
vn 0 -1.6292068E-07 -1
vn 0 -1.6292068E-07 -1
vn 0 -1.6292068E-07 -1
vn 1 0 0
vn 1 0 0
vn 1 0 0
vn 1 0 0
vn 0 1.6292068E-07 1
vn 0 1.6292068E-07 1
vn 0 1.6292068E-07 1
vn 0 1.6292068E-07 1
vn 0 -1 1.6292068E-07
vn 0 -1 1.6292068E-07
vn 0 -1 1.6292068E-07
vn 0 -1 1.6292068E-07
vn 0 1 -1.6292068E-07
vn 0 1 -1.6292068E-07
vn 0 1 -1.6292068E-07
vn 0 1 -1.6292068E-07
# 24 vertex normals

vt 0.3125 0.5 0
vt 0.5625 0.4375 0
vt 0.3125 0.4375 0
vt 0.5 0.453125 0
vt 0.5 0.265625 0
vt 0.4375 0.265625 0
vt 0.4375 0.453125 0
vt 0.56250006 0.5 0
vt 0.4375 0.5 0
vt 0.43750003 0.5 0
vt 0.625 0.24999994 0
vt 0.4375 0.4375 0
vt 0.5 0.4375 0
vt 0.5 0.25 0
vt 0.4375 0.25 0
vt 0.25 0.25 0
vt 0.25 0.43750006 0
vt 0.625 0.43749994 0
vt 0.3125 0.25000003 0
vt 0.4375 0.4375 0
# 20 texture coords

usemtl Material
s 8
f 25/59/73 26/66/74 28/61/75 27/62/76
f 27/53/77 28/52/78 32/55/79 31/54/80
f 31/63/81 32/60/82 30/51/83 29/67/84
f 29/67/85 30/51/86 26/65/87 25/64/88
f 27/58/89 31/68/90 29/50/91 25/56/92
f 32/60/93 28/57/94 26/49/95 30/51/96
#6 polygons

g RArm

#
# object RArm
#

v -40 -120 160.00003
v -40 120.000015 159.99998
v -40 -120.000015 80.00003
v -40 120 79.999985
v 40 -120 160.00003
v 40 120.000015 159.99998
v 40 -120.000015 80.00003
v 40 120 79.999985
# 8 vertices

vn -1 0 0
vn -1 0 0
vn -1 0 0
vn -1 0 0
vn 0 -1.6292068E-07 -1
vn 0 -1.6292068E-07 -1
vn 0 -1.6292068E-07 -1
vn 0 -1.6292068E-07 -1
vn 1 0 0
vn 1 0 0
vn 1 0 0
vn 1 0 0
vn 0 1.6292068E-07 1
vn 0 1.6292068E-07 1
vn 0 1.6292068E-07 1
vn 0 1.6292068E-07 1
vn 0 -1 1.6292068E-07
vn 0 -1 1.6292068E-07
vn 0 -1 1.6292068E-07
vn 0 -1 1.6292068E-07
vn 0 1 -1.6292068E-07
vn 0 1 -1.6292068E-07
vn 0 1 -1.6292068E-07
vn 0 1 -1.6292068E-07
# 24 vertex normals

vt 0.875 0.68749994 0
vt 0.6875 0.6875 0
vt 0.8125 0.6875 0
vt 0.75 0.75 0
vt 0.75 0.6875 0
vt 0.875 0.49999994 0
vt 0.75 0.5 0
vt 0.6875 0.5 0
vt 0.625 0.68750006 0
vt 0.8125 0.75 0
vt 0.6875 0.75 0
vt 0.8125 0.6875 0
vt 0.75 0.75 0
vt 0.625 0.5 0
vt 0.75 0.6875 0
vt 0.8125 0.5 0
# 16 texture coords

usemtl Material
s 16
f 33/74/97 34/69/98 36/71/99 35/84/100
f 35/84/101 36/71/102 40/83/103 39/75/104
f 39/75/105 40/83/106 38/70/107 37/76/108
f 37/76/109 38/70/110 34/77/111 33/82/112
f 35/72/113 39/73/114 37/80/115 33/78/116
f 40/83/117 36/81/118 34/79/119 38/70/120
#6 polygons

g RArmOut

#
# object RArmOut
#

v -50 -129.99998 170.00003
v -50 130.00002 169.99998
v -50 -130.00002 70.00003
v -50 129.99998 69.999985
v 50 -129.99998 170.00003
v 50 130.00002 169.99998
v 50 -130.00002 70.00003
v 50 129.99998 69.999985
# 8 vertices

vn -1 0 0
vn -1 0 0
vn -1 0 0
vn -1 0 0
vn 0 -1.6292068E-07 -1
vn 0 -1.6292068E-07 -1
vn 0 -1.6292068E-07 -1
vn 0 -1.6292068E-07 -1
vn 1 0 0
vn 1 0 0
vn 1 0 0
vn 1 0 0
vn 0 1.6292068E-07 1
vn 0 1.6292068E-07 1
vn 0 1.6292068E-07 1
vn 0 1.6292068E-07 1
vn 0 -1 1.6292068E-07
vn 0 -1 1.6292068E-07
vn 0 -1 1.6292068E-07
vn 0 -1 1.6292068E-07
vn 0 1 -1.6292068E-07
vn 0 1 -1.6292068E-07
vn 0 1 -1.6292068E-07
vn 0 1 -1.6292068E-07
# 24 vertex normals

vt 0.6875 0.5 0
vt 0.75 0.4375 0
vt 0.8125 0.25 0
vt 0.75 0.5 0
vt 0.75 0.25 0
vt 0.875 0.43749994 0
vt 0.625 0.43750006 0
vt 0.625 0.25 0
vt 0.75 0.5 0
vt 0.8125 0.5 0
vt 0.75 0.4375 0
vt 0.875 0.24999994 0
vt 0.6875 0.25 0
vt 0.8125 0.4375 0
vt 0.6875 0.4375 0
vt 0.8125 0.4375 0
# 16 texture coords

usemtl Material
s 32
f 41/96/121 42/90/122 44/100/123 43/87/124
f 43/87/125 44/100/126 48/86/127 47/89/128
f 47/89/129 48/86/130 46/99/131 45/97/132
f 45/97/133 46/99/134 42/91/135 41/92/136
f 43/93/137 47/95/138 45/98/139 41/94/140
f 48/86/141 44/88/142 42/85/143 46/99/144
#6 polygons

g LArm

#
# object LArm
#

v -40 -120 -79.999985
v -40 120.000015 -80.00003
v -40 -120.000015 -159.99998
v -40 120 -160.00003
v 40 -120 -79.999985
v 40 120.000015 -80.00003
v 40 -120.000015 -159.99998
v 40 120 -160.00003
# 8 vertices

vn -1 0 0
vn -1 0 0
vn -1 0 0
vn -1 0 0
vn 0 -1.6292068E-07 -1
vn 0 -1.6292068E-07 -1
vn 0 -1.6292068E-07 -1
vn 0 -1.6292068E-07 -1
vn 1 0 0
vn 1 0 0
vn 1 0 0
vn 1 0 0
vn 0 1.6292068E-07 1
vn 0 1.6292068E-07 1
vn 0 1.6292068E-07 1
vn 0 1.6292068E-07 1
vn 0 -1 1.6292068E-07
vn 0 -1 1.6292068E-07
vn 0 -1 1.6292068E-07
vn 0 -1 1.6292068E-07
vn 0 1 -1.6292068E-07
vn 0 1 -1.6292068E-07
vn 0 1 -1.6292068E-07
vn 0 1 -1.6292068E-07
# 24 vertex normals

vt 0.6875 0.25 0
vt 0.5625 0.1875 0
vt 0.75 -5.9604645E-08 0
vt 0.6875 0 0
vt 0.625 0.1875 0
vt 0.5625 0 0
vt 0.5625 0.25 0
vt 0.625 0.25 0
vt 0.75 0.18749994 0
vt 0.625 0 0
vt 0.6875 0.1875 0
vt 0.625 0.25 0
vt 0.625 0.1875 0
vt 0.5 0.18750006 0
vt 0.6875 0.1875 0
vt 0.5 0 0
# 16 texture coords

usemtl Material
s 64
f 49/103/145 50/109/146 52/115/147 51/104/148
f 51/104/149 52/115/150 56/105/151 55/110/152
f 55/110/153 56/105/154 54/102/155 53/106/156
f 53/106/157 54/102/158 50/114/159 49/116/160
f 51/112/161 55/113/162 53/111/163 49/101/164
f 56/105/165 52/108/166 50/107/167 54/102/168
#6 polygons

g LArmOut

#
# object LArmOut
#

v -50 -129.99998 -69.999985
v -50 130.00002 -70.00003
v -50 -130.00002 -169.99998
v -50 129.99998 -170.00003
v 50 -129.99998 -69.999985
v 50 130.00002 -70.00003
v 50 -130.00002 -169.99998
v 50 129.99998 -170.00003
# 8 vertices

vn -1 0 0
vn -1 0 0
vn -1 0 0
vn -1 0 0
vn 0 -1.6292068E-07 -1
vn 0 -1.6292068E-07 -1
vn 0 -1.6292068E-07 -1
vn 0 -1.6292068E-07 -1
vn 1 0 0
vn 1 0 0
vn 1 0 0
vn 1 0 0
vn 0 1.6292068E-07 1
vn 0 1.6292068E-07 1
vn 0 1.6292068E-07 1
vn 0 1.6292068E-07 1
vn 0 -1 1.6292068E-07
vn 0 -1 1.6292068E-07
vn 0 -1 1.6292068E-07
vn 0 -1 1.6292068E-07
vn 0 1 -1.6292068E-07
vn 0 1 -1.6292068E-07
vn 0 1 -1.6292068E-07
vn 0 1 -1.6292068E-07
# 24 vertex normals

vt 0.875 0.1875 0
vt 1 -5.9604645E-08 0
vt 1 0.18749994 0
vt 0.9375 0.1875 0
vt 0.875 0 0
vt 0.875 0.1875 0
vt 0.875 0.25 0
vt 0.9375 0.1875 0
vt 0.75 0 0
vt 0.75 0.18750006 0
vt 0.9375 0.25 0
vt 0.9375 0 0
vt 0.8125 0 0
vt 0.8125 0.25 0
vt 0.875 0.25 0
vt 0.8125 0.1875 0
# 16 texture coords

usemtl Material
s 128
f 57/118/169 58/119/170 60/124/171 59/128/172
f 59/128/173 60/124/174 64/117/175 63/121/176
f 63/121/177 64/117/178 62/132/179 61/129/180
f 61/129/181 62/132/182 58/126/183 57/125/184
f 59/123/185 63/122/186 61/120/187 57/127/188
f 64/117/189 60/131/190 58/130/191 62/132/192
#6 polygons

g LLeg

#
# object LLeg
#

v -40 -360.00003 1.9550482E-05
v -40 -120 -1.9550484E-05
v -40 -360.00003 -79.99998
v -40 -120.000015 -80.00002
v 40 -360.00003 1.9550482E-05
v 40 -120 -1.9550484E-05
v 40 -360.00003 -79.99998
v 40 -120.000015 -80.00002
# 8 vertices

vn -1 0 0
vn -1 0 0
vn -1 0 0
vn -1 0 0
vn 0 -1.6292068E-07 -1
vn 0 -1.6292068E-07 -1
vn 0 -1.6292068E-07 -1
vn 0 -1.6292068E-07 -1
vn 1 0 0
vn 1 0 0
vn 1 0 0
vn 1 0 0
vn 0 1.6292068E-07 1
vn 0 1.6292068E-07 1
vn 0 1.6292068E-07 1
vn 0 1.6292068E-07 1
vn 0 -1 1.6292068E-07
vn 0 -1 1.6292068E-07
vn 0 -1 1.6292068E-07
vn 0 -1 1.6292068E-07
vn 0 1 -1.6292068E-07
vn 0 1 -1.6292068E-07
vn 0 1 -1.6292068E-07
vn 0 1 -1.6292068E-07
# 24 vertex normals

vt 0.4375 0.1875 0
vt 0.375 0 0
vt 0.5 0.18749994 0
vt 0.5 -5.9604645E-08 0
vt 0.4375 0.1875 0
vt 0.25 0 0
vt 0.3125 0.1875 0
vt 0.25 0.18750006 0
vt 0.375 0.1875 0
vt 0.375 0.25 0
vt 0.3125 0.25 0
vt 0.4375 0 0
vt 0.375 0.25 0
vt 0.4375 0.25 0
vt 0.3125 0 0
vt 0.375 0.1875 0
# 16 texture coords

usemtl Material
s 256
f 65/136/193 66/135/194 68/137/195 67/144/196
f 67/144/197 68/137/198 72/148/199 71/134/200
f 71/134/201 72/148/202 70/139/203 69/147/204
f 69/147/205 70/139/206 66/140/207 65/138/208
f 67/145/209 71/141/210 69/133/211 65/146/212
f 72/148/213 68/142/214 66/143/215 70/139/216
#6 polygons

g LLegOut

#
# object LLegOut
#

v -50 -370 10.000021
v -50 -110.00001 9.999979
v -50 -370.00003 -89.99998
v -50 -110.00002 -90.00002
v 50 -370 10.000021
v 50 -110.00001 9.999979
v 50 -370.00003 -89.99998
v 50 -110.00002 -90.00002
# 8 vertices

vn -1 0 0
vn -1 0 0
vn -1 0 0
vn -1 0 0
vn 0 -1.6292068E-07 -1
vn 0 -1.6292068E-07 -1
vn 0 -1.6292068E-07 -1
vn 0 -1.6292068E-07 -1
vn 1 0 0
vn 1 0 0
vn 1 0 0
vn 1 0 0
vn 0 1.6292068E-07 1
vn 0 1.6292068E-07 1
vn 0 1.6292068E-07 1
vn 0 1.6292068E-07 1
vn 0 -1 1.6292068E-07
vn 0 -1 1.6292068E-07
vn 0 -1 1.6292068E-07
vn 0 -1 1.6292068E-07
vn 0 1 -1.6292068E-07
vn 0 1 -1.6292068E-07
vn 0 1 -1.6292068E-07
vn 0 1 -1.6292068E-07
# 24 vertex normals

vt 0 0.18750006 0
vt 0.1875 0.25 0
vt 0.0625 0.25 0
vt 0.1875 0.1875 0
vt 0.0625 0.1875 0
vt 0.125 0.25 0
vt 0.1875 0.1875 0
vt 0.25 0.18749994 0
vt 0.125 0.1875 0
vt 0.125 0 0
vt 0.125 0.25 0
vt 0.1875 0 0
vt 0.25 -5.9604645E-08 0
vt 0.125 0.1875 0
vt 0.0625 0 0
vt 0 0 0
# 16 texture coords

usemtl Material
s 512
f 73/161/217 74/156/218 76/155/219 75/160/220
f 75/160/221 76/155/222 80/157/223 79/158/224
f 79/158/225 80/157/226 78/153/227 77/163/228
f 77/163/229 78/153/230 74/149/231 73/164/232
f 75/159/233 79/162/234 77/152/235 73/150/236
f 80/157/237 76/154/238 74/151/239 78/153/240
#6 polygons

g RLeg

#
# object RLeg
#

v -40 -360.00003 80.00002
v -40 -120 79.99998
v -40 -360.00003 1.9550484E-05
v -40 -120.000015 -1.9550482E-05
v 40 -360.00003 80.00002
v 40 -120 79.99998
v 40 -360.00003 1.9550484E-05
v 40 -120.000015 -1.9550482E-05
# 8 vertices

vn -1 0 0
vn -1 0 0
vn -1 0 0
vn -1 0 0
vn 0 -1.6292068E-07 -1
vn 0 -1.6292068E-07 -1
vn 0 -1.6292068E-07 -1
vn 0 -1.6292068E-07 -1
vn 1 0 0
vn 1 0 0
vn 1 0 0
vn 1 0 0
vn 0 1.6292068E-07 1
vn 0 1.6292068E-07 1
vn 0 1.6292068E-07 1
vn 0 1.6292068E-07 1
vn 0 -1 1.6292068E-07
vn 0 -1 1.6292068E-07
vn 0 -1 1.6292068E-07
vn 0 -1 1.6292068E-07
vn 0 1 -1.6292068E-07
vn 0 1 -1.6292068E-07
vn 0 1 -1.6292068E-07
vn 0 1 -1.6292068E-07
# 24 vertex normals

vt 0.0625 0.75 0
vt 0.1875 0.5 0
vt 0.125 0.6875 0
vt 0.0625 0.5 0
vt 0.125 0.75 0
vt 0 0.5 0
vt 0.25 0.68749994 0
vt 0.125 0.5 0
vt 0.125 0.75 0
vt 0.1875 0.75 0
vt 0.125 0.6875 0
vt 0.25 0.49999994 0
vt 0.1875 0.6875 0
vt 0.0625 0.6875 0
vt 0.1875 0.6875 0
vt 0 0.68750006 0
# 16 texture coords

usemtl Material
s 1024
f 81/176/241 82/171/242 84/179/243 83/166/244
f 83/166/245 84/179/246 88/167/247 87/172/248
f 87/172/249 88/167/250 86/178/251 85/168/252
f 85/168/253 86/178/254 82/180/255 81/170/256
f 83/173/257 87/175/258 85/177/259 81/174/260
f 88/167/261 84/169/262 82/165/263 86/178/264
#6 polygons

g RLegOut

#
# object RLegOut
#

v -50 -370 90.00002
v -50 -110.00001 89.99998
v -50 -370.00003 -9.999979
v -50 -110.00002 -10.000021
v 50 -370 90.00002
v 50 -110.00001 89.99998
v 50 -370.00003 -9.999979
v 50 -110.00002 -10.000021
# 8 vertices

vn -1 0 0
vn -1 0 0
vn -1 0 0
vn -1 0 0
vn 0 -1.6292068E-07 -1
vn 0 -1.6292068E-07 -1
vn 0 -1.6292068E-07 -1
vn 0 -1.6292068E-07 -1
vn 1 0 0
vn 1 0 0
vn 1 0 0
vn 1 0 0
vn 0 1.6292068E-07 1
vn 0 1.6292068E-07 1
vn 0 1.6292068E-07 1
vn 0 1.6292068E-07 1
vn 0 -1 1.6292068E-07
vn 0 -1 1.6292068E-07
vn 0 -1 1.6292068E-07
vn 0 -1 1.6292068E-07
vn 0 1 -1.6292068E-07
vn 0 1 -1.6292068E-07
vn 0 1 -1.6292068E-07
vn 0 1 -1.6292068E-07
# 24 vertex normals

vt 0.1875 0.4375 0
vt 0.0625 0.5 0
vt 0.0625 0.4375 0
vt 0.1875 0.4375 0
vt 0 0.43750006 0
vt 0.125 0.4375 0
vt 0 0.25 0
vt 0.0625 0.25 0
vt 0.125 0.5 0
vt 0.1875 0.25 0
vt 0.125 0.25 0
vt 0.25 0.43749994 0
vt 0.125 0.4375 0
vt 0.125 0.5 0
vt 0.1875 0.5 0
vt 0.25 0.24999994 0
# 16 texture coords

usemtl Material
s 2048
f 89/196/265 90/192/266 92/184/267 91/190/268
f 91/190/269 92/184/270 96/186/271 95/191/272
f 95/191/273 96/186/274 94/183/275 93/188/276
f 93/188/277 94/183/278 90/185/279 89/187/280
f 91/194/281 95/193/282 93/181/283 89/195/284
f 96/186/285 92/189/286 90/182/287 94/183/288
#6 polygons

