# Blender 5.2.0 LTS
# www.blender.org
o Snowball
v 0.110817 0.009459 0.461721
v 0.238976 0.024181 0.291817
v 0.243461 0.020226 0.251878
v 0.045232 0.017005 0.482736
v 0.177444 0.013931 0.411906
v 0.221211 -0.010868 0.346293
v 0.241192 -0.010856 0.206825
v 0.228946 -0.011247 0.159565
v 0.185663 0.010889 0.084585
v 0.233974 -0.036754 0.302927
v 0.241655 -0.037816 0.245504
v 0.112345 -0.003974 0.026406
v 0.227077 -0.058774 0.173746
v 0.175307 -0.037847 0.077856
v 0.144264 -0.018012 0.046480
v 0.149766 -0.033237 0.434447
v 0.196280 -0.049573 0.381386
v 0.218871 -0.078313 0.321026
v 0.204064 -0.046213 0.116657
v 0.020780 0.012906 0.000832
v 0.069677 -0.014691 0.477225
v 0.189167 -0.090744 0.368289
v 0.227433 -0.091023 0.246930
v 0.218715 -0.096411 0.190376
v 0.159668 -0.083302 0.078523
v 0.090314 -0.048520 0.021782
v 0.061131 -0.009139 0.007356
v 0.095090 -0.034698 0.465960
v 0.204018 -0.119216 0.305355
v 0.190501 -0.100408 0.127449
v 0.154801 -0.093695 0.407846
v 0.196534 -0.144569 0.232581
v 0.120065 -0.095942 0.434312
v 0.172953 -0.130550 0.357260
v 0.186784 -0.153290 0.281922
v 0.184485 -0.150325 0.187526
v 0.167519 -0.135961 0.127701
v 0.125245 -0.082555 0.050451
v 0.090475 -0.086545 0.453250
v 0.136739 -0.122775 0.082456
v 0.133998 -0.154746 0.377950
v 0.153986 -0.177476 0.313221
v 0.157409 -0.187437 0.240037
v 0.148113 -0.181384 0.172035
v 0.124883 -0.168061 0.118108
v 0.077286 -0.095130 0.031686
v 0.118509 -0.197720 0.163161
v 0.045505 -0.064439 0.012350
v 0.046871 -0.064676 0.474490
v 0.059204 -0.135247 0.438715
v 0.090744 -0.189167 0.368289
v 0.113934 -0.213096 0.279290
v 0.108524 -0.217988 0.219716
v 0.083889 -0.141933 0.063027
v 0.021232 -0.028035 0.001947
v 0.084558 -0.159615 0.409291
v 0.098091 -0.208333 0.326296
v 0.065779 -0.220338 0.160117
v 0.083423 -0.194007 0.120662
v 0.084617 -0.176971 0.097111
v 0.026457 -0.026937 0.484928
v 0.068001 -0.233999 0.265426
v 0.058638 -0.234309 0.207764
v 0.043690 -0.174421 0.078602
v 0.040202 -0.137590 0.046062
v 0.042767 -0.205274 0.369278
v 0.042568 -0.226335 0.325189
v 0.034392 -0.239171 0.278401
v 0.031628 -0.097458 0.465647
v 0.011637 -0.233832 0.172608
v 0.023289 -0.209682 0.120263
v 0.014231 -0.125604 0.452763
v 0.009211 -0.181050 0.407954
v -0.001739 -0.234201 0.314746
v -0.003850 -0.245024 0.241504
v -0.003642 -0.187964 0.086719
v 0.010842 -0.105296 0.023435
v -0.007237 -0.154432 0.432613
v -0.015902 -0.210418 0.366905
v -0.037466 -0.225537 0.328865
v -0.033727 -0.234247 0.183363
v -0.033283 -0.217704 0.138375
v 0.000364 -0.058953 0.006763
v -0.060648 -0.233789 0.279429
v -0.059244 -0.236585 0.231615
v -0.042640 -0.130714 0.446069
v -0.051519 -0.196148 0.380514
v -0.074327 -0.222756 0.175370
v -0.049368 -0.156530 0.062726
v -0.014953 -0.141827 0.044544
v -0.016725 -0.079553 0.474129
v -0.062010 -0.169552 0.408267
v -0.085456 -0.209776 0.336555
v -0.104261 -0.220481 0.231616
v -0.084944 -0.203667 0.138991
v -0.053278 -0.185144 0.092280
v -0.112476 -0.212155 0.291400
v -0.124701 -0.203543 0.190616
v -0.036820 -0.097725 0.022635
v -0.102843 -0.156960 0.400724
v -0.131591 -0.177167 0.347983
v -0.152072 -0.191156 0.262610
v -0.105428 -0.112703 0.433667
v -0.161402 -0.179557 0.206825
v -0.150952 -0.166152 0.145351
v -0.117101 -0.166872 0.108058
v -0.099193 -0.131010 0.062488
v -0.154092 -0.135143 0.377654
v -0.026863 -0.050021 0.481349
v -0.063899 -0.081461 0.465160
v -0.173103 -0.158153 0.314514
v -0.185462 -0.136419 0.162208
v -0.148069 -0.123356 0.093677
v -0.032349 -0.048544 0.006501
v -0.100530 -0.074836 0.453124
v -0.197016 -0.143281 0.271802
v -0.204249 -0.132981 0.218563
v -0.134184 -0.091305 0.061216
v -0.090989 -0.092699 0.035941
v -0.145592 -0.075774 0.424474
v -0.200566 -0.102651 0.338852
v -0.184895 -0.102037 0.120662
v -0.170682 -0.076064 0.086081
v -0.222307 -0.081694 0.302927
v -0.229879 -0.081147 0.256630
v -0.227270 -0.082316 0.208715
v -0.213480 -0.086301 0.161159
v -0.177839 -0.074265 0.394937
v -0.214115 -0.053472 0.347984
v -0.241477 -0.034852 0.254618
v -0.083647 -0.052840 0.019507
v -0.080365 -0.021721 0.473288
v -0.119438 -0.034458 0.454013
v -0.161319 -0.030249 0.424474
v -0.233974 -0.036755 0.302927
v -0.238613 -0.035395 0.205792
v -0.205273 -0.042767 0.117922
v -0.172067 -0.030040 0.072265
v -0.225439 0.000401 0.339034
v -0.231480 -0.012187 0.164190
v -0.191780 -0.004374 0.396155
v -0.209224 0.008227 0.118126
v -0.140867 -0.026608 0.044940
v -0.031769 -0.012311 0.485535
v -0.243014 0.022596 0.266207
v -0.241054 0.022663 0.208875
v -0.173627 0.017825 0.072027
v -0.106455 0.002356 0.023788
v -0.225468 0.047017 0.161960
v -0.141354 0.039774 0.048559
v -0.112673 0.022811 0.458958
v -0.143377 0.027043 0.440070
v -0.172753 0.054316 0.407603
v -0.210481 0.055522 0.356414
v -0.227084 0.059909 0.312148
v -0.228936 0.084065 0.255582
v -0.228083 0.079459 0.207771
v -0.209223 0.090044 0.155257
v -0.202713 0.057679 0.119627
v -0.178362 0.058479 0.086603
v -0.063387 -0.008410 0.007478
v -0.078693 0.022667 0.473825
v -0.212038 0.115637 0.281493
v -0.208137 0.127113 0.231618
v -0.204181 0.120020 0.184273
v -0.125138 0.087325 0.434971
v -0.174935 0.103990 0.379640
v -0.191334 0.128891 0.325004
v -0.174075 0.146901 0.155256
v -0.180314 0.160694 0.279429
v -0.180383 0.163556 0.219626
v -0.169760 0.123623 0.117481
v -0.144608 0.109364 0.079276
v -0.127046 0.128183 0.408215
v -0.114621 0.086870 0.045332
v -0.145262 0.158860 0.360550
v -0.143359 0.181568 0.322401
v -0.145499 0.192784 0.279429
v -0.137698 0.187268 0.165844
v -0.123325 0.161756 0.107777
v -0.083454 0.057867 0.020844
v -0.075191 0.070544 0.465280
v -0.070175 0.104229 0.452876
v -0.134084 0.204296 0.231582
v -0.111370 0.209592 0.184530
v -0.095531 0.199343 0.347102
v -0.104917 0.214960 0.294382
v -0.085699 0.176347 0.098235
v -0.043060 0.037581 0.006043
v -0.067100 0.140622 0.432769
v -0.085919 0.174750 0.391744
v -0.083272 0.226719 0.207771
v -0.084004 0.204123 0.138762
v -0.076914 0.149274 0.065592
v -0.055738 0.223017 0.325861
v -0.067521 0.234549 0.264504
v -0.052036 0.196638 0.107777
v 0.013192 0.005913 0.487168
v -0.022058 0.177604 0.410306
v -0.040686 0.205686 0.369305
v -0.039608 0.227550 0.163647
v -0.027870 0.160310 0.061524
v -0.046294 0.113497 0.031686
v -0.022161 0.101125 0.464819
v -0.011158 0.229606 0.325861
v -0.013873 0.241129 0.279430
v -0.023738 0.242698 0.219528
v -0.021191 0.078643 0.013425
v -0.016119 0.002925 -0.000123
v -0.031778 0.047606 0.481469
v 0.010541 0.236807 0.185262
v 0.001835 0.221306 0.139790
v 0.004361 0.154085 0.053672
v -0.003026 0.135708 0.447081
v 0.045436 0.229542 0.315797
v 0.031568 0.239735 0.277481
v 0.037787 0.240937 0.231618
v 0.007881 0.196424 0.097661
v 0.026095 0.206457 0.372369
v 0.042328 0.220511 0.146532
v 0.045700 0.175452 0.407924
v 0.074201 0.207843 0.347983
v 0.084065 0.228936 0.255582
v 0.069089 0.231609 0.206290
v 0.067189 0.191358 0.107002
v 0.045604 0.148578 0.054600
v 0.020660 0.100600 0.021746
v -0.009094 0.022972 0.486307
v 0.038364 0.139833 0.440488
v 0.101187 0.214145 0.302938
v 0.096551 0.213261 0.172260
v 0.093136 0.174349 0.387241
v 0.125663 0.209910 0.240761
v 0.105883 0.180640 0.118126
v 0.094791 0.154034 0.079744
v 0.065509 0.081539 0.022957
v 0.016827 0.058758 0.480096
v 0.083059 0.137573 0.427620
v 0.122642 0.183882 0.348201
v 0.141021 0.190289 0.302938
v 0.144431 0.187810 0.180720
v 0.015899 0.055697 0.006152
v 0.044164 0.091973 0.466060
v 0.156576 0.187615 0.255618
v 0.081924 0.118603 0.046367
v 0.130635 0.134987 0.400560
v 0.163416 0.148323 0.347983
v 0.129337 0.126750 0.079596
v 0.098792 0.100834 0.443163
v 0.159934 0.111711 0.390694
v 0.185323 0.152893 0.290885
v 0.189740 0.153943 0.232889
v 0.181192 0.148795 0.172626
v 0.156067 0.144874 0.122166
v 0.191968 0.116500 0.340240
v 0.208842 0.124993 0.219590
v 0.133295 0.095850 0.062419
v 0.100779 0.052385 0.026480
v 0.096735 0.063282 0.458581
v 0.145592 0.075775 0.424474
v 0.214071 0.101344 0.302939
v 0.226258 0.092235 0.254311
v 0.066142 0.042357 0.474804
v 0.180721 0.077162 0.388803
v 0.207737 0.074496 0.347983
v 0.223300 0.091774 0.204558
v 0.207439 0.087517 0.147288
v 0.176663 0.083778 0.096598
v 0.138194 0.041397 0.441076
v 0.231735 0.060411 0.293962
v 0.160474 0.055807 0.067348
v 0.049250 0.030921 0.006433
v 0.238608 0.037441 0.207771
v 0.227549 0.040793 0.164336
v 0.121426 0.031391 0.033948
v 0.210567 0.033537 0.364448
v 0.208715 0.023053 0.118604
vn 0.4579 0.0382 0.8882
vn 0.9747 0.0786 0.2094
vn 0.9960 0.0841 0.0304
vn 0.1854 0.0718 0.9800
vn 0.7285 0.0526 0.6830
vn 0.9046 -0.0490 0.4235
vn 0.9866 -0.0479 -0.1562
vn 0.9357 -0.0412 -0.3503
vn 0.7571 0.0490 -0.6515
vn 0.9615 -0.1468 0.2325
vn 0.9871 -0.1597 0.0133
vn 0.4419 -0.0182 -0.8969
vn 0.9294 -0.2383 -0.2818
vn 0.7150 -0.1638 -0.6797
vn 0.5949 -0.0793 -0.7999
vn 0.6127 -0.1404 0.7777
vn 0.8019 -0.1882 0.5671
vn 0.8947 -0.3169 0.3148
vn 0.8360 -0.1870 -0.5159
vn 0.0786 0.0528 -0.9955
vn 0.2795 -0.0569 0.9585
vn 0.7765 -0.3768 0.5050
vn 0.9279 -0.3722 0.0203
vn 0.8893 -0.4022 -0.2175
vn 0.6637 -0.3343 -0.6692
vn 0.3771 -0.1943 -0.9056
vn 0.2618 -0.0353 -0.9645
vn 0.4011 -0.1627 0.9015
vn 0.8331 -0.4930 0.2510
vn 0.7843 -0.4063 -0.4689
vn 0.6369 -0.3856 0.6675
vn 0.8105 -0.5843 -0.0411
vn 0.4915 -0.3985 0.7744
vn 0.7113 -0.5351 0.4559
vn 0.7679 -0.6207 0.1584
vn 0.7592 -0.6073 -0.2339
vn 0.6850 -0.5570 -0.4696
vn 0.5116 -0.3328 -0.7922
vn 0.3626 -0.3502 0.8636
vn 0.5528 -0.5115 -0.6578
vn 0.5458 -0.6318 0.5505
vn 0.6248 -0.7248 0.2904
vn 0.6400 -0.7682 -0.0154
vn 0.6094 -0.7399 -0.2848
vn 0.5165 -0.6826 -0.5169
vn 0.3137 -0.3989 -0.8617
vn 0.4693 -0.8203 -0.3269
vn 0.1848 -0.2668 -0.9459
vn 0.1917 -0.2599 0.9464
vn 0.2431 -0.5557 0.7950
vn 0.3776 -0.7766 0.5043
vn 0.4730 -0.8695 0.1421
vn 0.4463 -0.8890 -0.1026
vn 0.3558 -0.5738 -0.7377
vn 0.0840 -0.1138 -0.9900
vn 0.3434 -0.6502 0.6778
vn 0.4019 -0.8498 0.3410
vn 0.2733 -0.9005 -0.3383
vn 0.3320 -0.8063 -0.4895
vn 0.3451 -0.7161 -0.6067
vn 0.0991 -0.1230 0.9874
vn 0.2794 -0.9563 0.0862
vn 0.2314 -0.9630 -0.1381
vn 0.1685 -0.7154 -0.6781
vn 0.1587 -0.5663 -0.8087
vn 0.1746 -0.8379 0.5172
vn 0.1824 -0.9230 0.3389
vn 0.1334 -0.9818 0.1351
vn 0.1337 -0.3921 0.9102
vn 0.0499 -0.9572 -0.2850
vn 0.0982 -0.8599 -0.5010
vn 0.0489 -0.5218 0.8517
vn 0.0465 -0.7387 0.6724
vn -0.0110 -0.9586 0.2846
vn -0.0117 -0.9999 -0.0088
vn -0.0107 -0.7655 -0.6433
vn 0.0551 -0.4267 -0.9027
vn -0.0272 -0.6401 0.7678
vn -0.0503 -0.8636 0.5016
vn -0.1670 -0.9241 0.3437
vn -0.1331 -0.9625 -0.2364
vn -0.1305 -0.8890 -0.4389
vn -0.0002 -0.2481 -0.9687
vn -0.2425 -0.9587 0.1486
vn -0.2430 -0.9687 -0.0499
vn -0.1846 -0.5325 0.8260
vn -0.2211 -0.7991 0.5590
vn -0.3099 -0.9111 -0.2716
vn -0.2179 -0.6221 -0.7520
vn -0.0659 -0.5811 -0.8111
vn -0.0545 -0.3358 0.9403
vn -0.2475 -0.6854 0.6848
vn -0.3527 -0.8514 0.3881
vn -0.4294 -0.9020 -0.0446
vn -0.3593 -0.8270 -0.4324
vn -0.2303 -0.7573 -0.6111
vn -0.4635 -0.8639 0.1970
vn -0.5099 -0.8313 -0.2212
vn -0.1652 -0.4113 -0.8964
vn -0.4219 -0.6453 0.6368
vn -0.5323 -0.7327 0.4241
vn -0.6238 -0.7781 0.0737
vn -0.4333 -0.4718 0.7679
vn -0.6697 -0.7286 -0.1436
vn -0.6153 -0.6802 -0.3984
vn -0.4693 -0.6847 -0.5577
vn -0.3944 -0.5476 -0.7380
vn -0.6322 -0.5448 0.5510
vn -0.1072 -0.1964 0.9747
vn -0.2618 -0.3324 0.9061
vn -0.7004 -0.6482 0.2989
vn -0.7618 -0.5586 -0.3281
vn -0.6075 -0.5126 -0.6068
vn -0.1340 -0.1974 -0.9711
vn -0.4161 -0.2961 0.8597
vn -0.8087 -0.5776 0.1117
vn -0.8310 -0.5462 -0.1057
vn -0.5500 -0.3599 -0.7536
vn -0.3674 -0.3850 -0.8466
vn -0.5887 -0.3248 0.7402
vn -0.8139 -0.4305 0.3902
vn -0.7562 -0.4240 -0.4984
vn -0.6970 -0.3076 -0.6477
vn -0.9089 -0.3448 0.2345
vn -0.9388 -0.3401 0.0545
vn -0.9312 -0.3349 -0.1438
vn -0.8768 -0.3459 -0.3339
vn -0.7322 -0.3075 0.6077
vn -0.8726 -0.2132 0.4393
vn -0.9895 -0.1388 0.0412
vn -0.3506 -0.2155 -0.9114
vn -0.3264 -0.0964 0.9403
vn -0.4941 -0.1347 0.8589
vn -0.6564 -0.1154 0.7455
vn -0.9608 -0.1428 0.2375
vn -0.9769 -0.1499 -0.1522
vn -0.8416 -0.1770 -0.5102
vn -0.7126 -0.1276 -0.6899
vn -0.9222 0.0020 0.3868
vn -0.9428 -0.0587 -0.3281
vn -0.7869 -0.0165 0.6168
vn -0.8537 0.0335 -0.5196
vn -0.5656 -0.1182 -0.8162
vn -0.1340 -0.0454 0.9899
vn -0.9913 0.0925 0.0936
vn -0.9867 0.0968 -0.1309
vn -0.7150 0.0669 -0.6959
vn -0.4385 0.0204 -0.8985
vn -0.9252 0.1868 -0.3304
vn -0.5711 0.1684 -0.8034
vn -0.4611 0.0984 0.8819
vn -0.5913 0.1082 0.7992
vn -0.7079 0.2249 0.6695
vn -0.8536 0.2342 0.4653
vn -0.9280 0.2526 0.2738
vn -0.9432 0.3292 0.0454
vn -0.9374 0.3185 -0.1412
vn -0.8512 0.3762 -0.3660
vn -0.8270 0.2390 -0.5088
vn -0.7235 0.2514 -0.6429
vn -0.2608 -0.0275 -0.9650
vn -0.3152 0.0922 0.9445
vn -0.8670 0.4713 0.1619
vn -0.8527 0.5204 -0.0449
vn -0.8331 0.4971 -0.2425
vn -0.5128 0.3552 0.7816
vn -0.7150 0.4246 0.5554
vn -0.7833 0.5205 0.3399
vn -0.7117 0.6064 -0.3546
vn -0.7379 0.6596 0.1429
vn -0.7302 0.6761 -0.0989
vn -0.6988 0.4998 -0.5118
vn -0.5824 0.4462 -0.6795
vn -0.5173 0.5278 0.6737
vn -0.4678 0.3648 -0.8050
vn -0.5919 0.6455 0.4827
vn -0.5902 0.7408 0.3208
vn -0.6013 0.7878 0.1337
vn -0.5725 0.7543 -0.3215
vn -0.5097 0.6579 -0.5545
vn -0.3411 0.2349 -0.9102
vn -0.3153 0.2852 0.9051
vn -0.2922 0.4306 0.8539
vn -0.5486 0.8350 -0.0427
vn -0.4410 0.8645 -0.2411
vn -0.3942 0.8153 0.4242
vn -0.4282 0.8804 0.2038
vn -0.3513 0.7223 -0.5957
vn -0.1739 0.1581 -0.9720
vn -0.2766 0.5747 0.7702
vn -0.3555 0.7129 0.6045
vn -0.3331 0.9319 -0.1435
vn -0.3480 0.8389 -0.4185
vn -0.3257 0.5997 -0.7309
vn -0.2318 0.9158 0.3280
vn -0.2807 0.9562 0.0832
vn -0.1971 0.8052 -0.5593
vn 0.0529 0.0236 0.9983
vn -0.0830 0.7260 0.6827
vn -0.1612 0.8413 0.5159
vn -0.1740 0.9293 -0.3258
vn -0.1263 0.6634 -0.7376
vn -0.1928 0.4635 -0.8649
vn -0.0881 0.4096 0.9080
vn -0.0396 0.9395 0.3403
vn -0.0563 0.9880 0.1441
vn -0.0972 0.9909 -0.0928
vn -0.0954 0.3228 -0.9417
vn -0.0652 0.0110 -0.9978
vn -0.1355 0.2000 0.9704
vn 0.0519 0.9703 -0.2361
vn -0.0061 0.9035 -0.4284
vn 0.0192 0.6243 -0.7810
vn -0.0152 0.5612 0.8276
vn 0.1846 0.9380 0.2933
vn 0.1265 0.9833 0.1311
vn 0.1407 0.9891 -0.0432
vn 0.0349 0.7971 -0.6029
vn 0.1014 0.8446 0.5257
vn 0.1877 0.8999 -0.3936
vn 0.1795 0.7214 0.6689
vn 0.3060 0.8463 0.4360
vn 0.3417 0.9380 0.0579
vn 0.2862 0.9451 -0.1574
vn 0.2675 0.7832 -0.5613
vn 0.1898 0.6125 -0.7674
vn 0.0843 0.4257 -0.9009
vn -0.0367 0.0922 0.9951
vn 0.1558 0.5720 0.8053
vn 0.4126 0.8796 0.2366
vn 0.3975 0.8682 -0.2969
vn 0.3784 0.7165 0.5860
vn 0.5075 0.8614 -0.0185
vn 0.4488 0.7398 -0.5012
vn 0.3888 0.6349 -0.6676
vn 0.2660 0.3387 -0.9025
vn 0.0665 0.2457 0.9670
vn 0.3382 0.5615 0.7552
vn 0.5064 0.7474 0.4300
vn 0.5806 0.7768 0.2438
vn 0.5877 0.7679 -0.2548
vn 0.0619 0.2268 -0.9720
vn 0.1810 0.3829 0.9059
vn 0.6423 0.7653 0.0420
vn 0.3380 0.4775 -0.8110
vn 0.5306 0.5563 0.6396
vn 0.6614 0.6167 0.4270
vn 0.5311 0.5284 -0.6623
vn 0.4066 0.4126 0.8151
vn 0.6594 0.4587 0.5956
vn 0.7626 0.6175 0.1926
vn 0.7727 0.6337 -0.0376
vn 0.7472 0.5978 -0.2904
vn 0.6369 0.5899 -0.4963
vn 0.7828 0.4780 0.3984
vn 0.8530 0.5133 -0.0940
vn 0.5371 0.3861 -0.7500
vn 0.4063 0.2216 -0.8865
vn 0.4007 0.2622 0.8779
vn 0.5938 0.3142 0.7407
vn 0.8733 0.4268 0.2350
vn 0.9247 0.3782 0.0447
vn 0.2736 0.1749 0.9458
vn 0.7416 0.3068 0.5966
vn 0.8553 0.3045 0.4191
vn 0.9146 0.3658 -0.1724
vn 0.8420 0.3651 -0.3972
vn 0.7323 0.3466 -0.5862
vn 0.5702 0.1656 0.8047
vn 0.9453 0.2488 0.2110
vn 0.6552 0.2127 -0.7249
vn 0.2223 0.1321 -0.9660
vn 0.9767 0.1619 -0.1410
vn 0.9314 0.1660 -0.3240
vn 0.5222 0.1284 -0.8431
vn 0.8620 0.1252 0.4913
vn 0.8543 0.1002 -0.5100
vt 0.716941 0.904802
vt 0.692737 0.863787
vt 0.765569 0.847120
vt 0.742188 0.388625
vt 0.714273 0.327793
vt 0.768905 0.332471
vt 0.759740 0.275232
vt 0.762443 0.735656
vt 0.712171 0.692509
vt 0.773892 0.664001
vt 0.765085 0.561724
vt 0.742187 0.637613
vt 0.725883 0.578960
vt 0.715861 0.262627
vt 0.695286 0.601334
vt 0.858167 0.980140
vt 0.618376 0.949477
vt 0.807245 0.935941
vt 0.742553 0.451559
vt 0.725060 0.503833
vt 0.712010 0.408308
vt 0.727613 0.210513
vt 0.672740 0.137886
vt 0.738992 0.153343
vt 0.689202 0.507898
vt 0.681641 0.427286
vt 0.671727 0.344150
vt 0.674187 0.263852
vt 0.679687 0.001782
vt 0.838606 0.032921
vt 0.593008 0.047049
vt 0.644768 0.780403
vt 0.714322 0.784931
vt 0.648809 0.484968
vt 0.641878 0.426880
vt 0.633839 0.272347
vt 0.663928 0.733210
vt 0.646304 0.649314
vt 0.679222 0.670399
vt 0.656464 0.212556
vt 0.608988 0.171014
vt 0.666753 0.581232
vt 0.640192 0.547536
vt 0.596783 0.105151
vt 0.729658 0.083136
vt 0.613395 0.682952
vt 0.612523 0.594108
vt 0.601058 0.893454
vt 0.611045 0.495073
vt 0.586134 0.235556
vt 0.610672 0.408488
vt 0.601546 0.329814
vt 0.638667 0.345224
vt 0.577755 0.733337
vt 0.570489 0.608150
vt 0.577876 0.546643
vt 0.550147 0.861255
vt 0.628756 0.828258
vt 0.566280 0.789461
vt 0.569896 0.289779
vt 0.572918 0.468465
vt 0.585851 0.392477
vt 0.565494 0.334007
vt 0.570640 0.670278
vt 0.546898 0.390613
vt 0.544933 0.201031
vt 0.516003 0.825700
vt 0.532016 0.671043
vt 0.539050 0.265242
vt 0.519074 0.143987
vt 0.546605 0.526073
vt 0.504273 0.078829
vt 0.539058 0.453341
vt 0.518627 0.333035
vt 0.508484 0.733524
vt 0.473334 0.888395
vt 0.499946 0.279598
vt 0.530247 0.607657
vt 0.497634 0.593431
vt 0.523096 0.545790
vt 0.496481 0.495355
vt 0.492522 0.780247
vt 0.488579 0.663758
vt 0.472957 0.613797
vt 0.492187 0.998218
vt 0.316973 0.954736
vt 0.476893 0.421628
vt 0.507803 0.407474
vt 0.476269 0.358143
vt 0.459777 0.685959
vt 0.460257 0.546531
vt 0.449127 0.806912
vt 0.444732 0.733271
vt 0.455129 0.293562
vt 0.452266 0.235753
vt 0.483718 0.197769
vt 0.444631 0.142584
vt 0.460939 0.484447
vt 0.447688 0.409828
vt 0.437439 0.360024
vt 0.405204 0.077707
vt 0.392537 0.859225
vt 0.437821 0.623422
vt 0.423742 0.563678
vt 0.398321 0.014538
vt 0.405539 0.720507
vt 0.403311 0.313312
vt 0.398377 0.235548
vt 0.429689 0.484448
vt 0.412908 0.429618
vt 0.398428 0.640013
vt 0.394728 0.524586
vt 0.421913 0.924626
vt 0.381182 0.781573
vt 0.382450 0.369682
vt 0.368042 0.590792
vt 0.382445 0.452688
vt 0.348693 0.533044
vt 0.365618 0.683506
vt 0.339284 0.133125
vt 0.271590 0.086521
vt 0.360119 0.291032
vt 0.346452 0.231986
vt 0.352441 0.827199
vt 0.327162 0.765378
vt 0.351182 0.391634
vt 0.330986 0.334076
vt 0.326024 0.627016
vt 0.318077 0.277003
vt 0.339844 0.465371
vt 0.312093 0.391016
vt 0.279642 0.195321
vt 0.376047 0.178787
vt 0.305360 0.577635
vt 0.304310 0.516263
vt 0.294155 0.828956
vt 0.280286 0.763328
vt 0.281541 0.328750
vt 0.278436 0.253962
vt 0.313131 0.706259
vt 0.289053 0.640013
vt 0.274110 0.577635
vt 0.245713 0.143964
vt 0.297466 0.886710
vt 0.209520 0.888498
vt 0.250809 0.709781
vt 0.250917 0.625945
vt 0.218219 0.842525
vt 0.258988 0.393924
vt 0.242929 0.328771
vt 0.219132 0.795710
vt 0.207609 0.655046
vt 0.208146 0.587873
vt 0.238510 0.254795
vt 0.207133 0.206777
vt 0.234434 0.453805
vt 0.217390 0.391524
vt 0.206286 0.337039
vt 0.203045 0.733541
vt 0.153095 0.140452
vt 0.210938 0.998218
vt 0.075250 0.967079
vt 0.235566 0.525766
vt 0.194634 0.514274
vt 0.094702 0.922335
vt 0.196017 0.453239
vt 0.185632 0.383523
vt 0.164669 0.686124
vt 0.135803 0.076004
vt 0.169520 0.549495
vt 0.163374 0.484567
vt 0.128174 0.859225
vt 0.149208 0.330301
vt 0.198034 0.279073
vt 0.148046 0.266477
vt 0.156363 0.607779
vt 0.164735 0.422365
vt 0.138757 0.383523
vt 0.132817 0.468917
vt 0.152639 0.785905
vt 0.125464 0.733992
vt 0.133517 0.546761
vt 0.118256 0.658842
vt 0.105787 0.603581
vt 0.100908 0.396634
vt 0.102018 0.313328
vt 0.075432 0.239461
vt 0.146853 0.203029
vt 0.060480 0.171629
vt 0.102267 0.546761
vt 0.093768 0.826783
vt 0.069991 0.776854
vt 0.093320 0.484521
vt 0.078103 0.421904
vt 0.070645 0.639139
vt 0.072220 0.566342
vt 0.040467 0.109256
vt 0.062150 0.359905
vt 0.072442 0.704158
vt 0.034413 0.860287
vt 0.055392 0.453239
vt 0.026928 0.395189
vt 0.039518 0.313328
vt 0.070945 0.297858
vt 0.030943 0.671077
vt 0.020535 0.064059
vt 0.007878 0.817432
vt 0.027470 0.233132
vt 0.043436 0.527796
vt 0.016122 0.469024
vt 0.003659 0.361049
vt 0.007804 0.608887
vt 0.039054 0.608887
vt 0.003385 0.217365
vt 0.004525 0.139438
vt 0.008517 0.546761
vt 0.019409 0.734733
vt 0.000000 0.675026
vt 0.008445 0.297858
vt 0.980141 0.672749
vt 0.969771 0.594313
vt 1.000000 0.608887
vt 1.000000 0.095198
vt 0.966600 0.139438
vt 0.954908 0.078565
vt 0.946988 0.917240
vt 0.928974 0.859698
vt 1.000000 0.873663
vt 0.996861 0.020410
vt 0.967486 0.967079
vt 0.993295 0.935940
vt 0.975874 0.484567
vt 0.954324 0.452382
vt 0.992527 0.423103
vt 0.968816 0.367798
vt 0.992997 0.217365
vt 0.988412 0.297858
vt 0.953201 0.220206
vt 0.932319 0.406172
vt 0.955291 0.794726
vt 0.993665 0.810991
vt 0.945507 0.312463
vt 0.945323 0.640013
vt 0.978952 0.541309
vt 0.944624 0.515433
vt 0.960546 0.733523
vt 0.920051 0.698317
vt 0.929694 0.577770
vt 0.906279 0.640057
vt 0.918352 0.494453
vt 0.914804 0.328770
vt 0.913299 0.266477
vt 0.898444 0.577770
vt 0.897314 0.417135
vt 0.875296 0.802264
vt 0.890195 0.515479
vt 0.868599 0.336344
vt 0.913857 0.770158
vt 0.879078 0.721840
vt 0.858156 0.485412
vt 0.867198 0.640012
vt 0.874953 0.266456
vt 0.848430 0.233692
vt 0.903226 0.202174
vt 0.890746 0.142264
vt 0.840621 0.077167
vt 0.829347 0.151626
vt 0.860044 0.561910
vt 0.821265 0.301637
vt 0.847436 0.705040
vt 0.837692 0.629339
vt 0.835901 0.468929
vt 0.858785 0.407659
vt 0.820319 0.577771
vt 0.811281 0.514588
vt 0.842217 0.842525
vt 0.796003 0.798627
vt 0.816354 0.372571
vt 0.804432 0.245334
vt 0.789576 0.173158
vt 0.827162 0.765377
vt 0.813734 0.701286
vt 0.804698 0.640013
vt 0.810925 0.449920
vt 0.777629 0.394962
vt 0.792656 0.568140
vt 0.841917 0.894817
vt 0.762482 0.506757
vt 0.774142 0.453239
vt 0.305062 0.453862
vt 0.273806 0.514972
vt 0.273391 0.451997
vt 0.222263 0.025535
vt 0.006428 0.904802
vt 0.000000 0.423103
vt 1.000000 0.546761
vt 1.000000 0.733582
vt 1.000000 0.484567
vt 0.995511 0.361049
s 1
f 21/1/21 28/2/28 1/3/1
f 8/4/8 19/5/19 277/6/277
f 277/6/277 19/5/19 9/7/9
f 5/8/5 17/9/17 276/10/276
f 2/11/2 6/12/6 10/13/10
f 19/5/19 14/14/14 9/7/9
f 6/12/6 17/9/17 18/15/18
f 198/16/198 61/17/61 4/18/4
f 7/19/7 11/20/11 13/21/13
f 7/19/7 13/21/13 8/4/8
f 15/22/15 26/23/26 12/24/12
f 13/21/13 23/25/23 24/26/24
f 13/21/13 24/26/24 30/27/30
f 19/5/19 25/28/25 14/14/14
f 209/29/209 20/30/20 55/31/55
f 28/2/28 33/32/33 16/33/16
f 23/25/23 32/34/32 24/26/24
f 24/26/24 32/34/32 36/35/36
f 25/28/25 30/27/30 40/36/40
f 31/37/31 34/38/34 22/39/22
f 22/39/22 34/38/34 18/15/18
f 26/23/26 38/40/38 46/41/46
f 29/42/29 35/43/35 23/25/23
f 26/23/26 48/44/48 27/45/27
f 34/38/34 31/37/31 41/46/41
f 29/42/29 34/38/34 42/47/42
f 61/17/61 49/48/49 21/1/21
f 21/1/21 49/48/49 28/2/28
f 33/32/33 41/46/41 31/37/31
f 32/34/32 35/43/35 43/49/43
f 40/36/40 54/50/54 38/40/38
f 46/41/46 48/44/48 26/23/26
f 36/35/36 43/49/43 44/51/44
f 44/51/44 45/52/45 37/53/37
f 33/32/33 56/54/56 41/46/41
f 42/47/42 41/46/41 57/55/57
f 43/49/43 42/47/42 52/56/52
f 49/48/49 69/57/69 39/58/39
f 39/58/39 50/59/50 33/32/33
f 45/52/45 60/60/60 40/36/40
f 42/47/42 57/55/57 52/56/52
f 43/49/43 52/56/52 53/61/53
f 47/62/47 59/63/59 45/52/45
f 41/46/41 56/54/56 51/64/51
f 47/62/47 53/61/53 58/65/58
f 54/50/54 65/66/65 46/41/46
f 69/57/69 72/67/72 50/59/50
f 56/54/56 66/68/66 51/64/51
f 54/50/54 64/69/64 65/66/65
f 46/41/46 65/66/65 77/70/77
f 57/55/57 62/71/62 52/56/52
f 46/41/46 77/70/77 48/44/48
f 48/44/48 83/72/83 55/31/55
f 53/61/53 62/71/62 63/73/63
f 58/65/58 71/74/71 59/63/59
f 56/54/56 50/59/50 73/75/73
f 59/63/59 71/74/71 60/60/60
f 48/44/48 77/70/77 83/72/83
f 49/48/49 61/17/61 91/76/91
f 71/74/71 76/77/76 64/69/64
f 67/78/67 66/68/66 74/79/74
f 68/80/68 75/81/75 62/71/62
f 50/59/50 72/67/72 78/82/78
f 73/75/73 79/83/79 66/68/66
f 67/78/67 74/79/74 68/80/68
f 68/80/68 74/79/74 75/81/75
f 74/79/74 79/83/79 80/84/80
f 61/17/61 198/85/198 144/86/144
f 75/81/75 81/87/81 70/88/70
f 70/88/70 81/87/81 82/89/82
f 70/88/70 82/89/82 71/74/71
f 79/83/79 73/75/73 87/90/87
f 74/79/74 80/84/80 84/91/84
f 91/76/91 86/92/86 72/67/72
f 73/75/73 78/82/78 92/93/92
f 82/89/82 96/94/96 76/77/76
f 76/77/76 96/94/96 89/95/89
f 76/77/76 89/95/89 90/96/90
f 77/70/77 90/96/90 99/97/99
f 85/98/85 88/99/88 81/87/81
f 81/87/81 88/99/88 82/89/82
f 82/89/82 88/99/88 95/100/95
f 83/72/83 99/97/99 114/101/114
f 91/76/91 110/102/110 86/92/86
f 84/91/84 93/103/93 97/104/97
f 114/101/114 209/105/209 55/31/55
f 92/93/92 86/92/86 100/106/100
f 95/100/95 106/107/106 96/94/96
f 87/90/87 92/93/92 100/106/100
f 89/95/89 96/94/96 107/108/107
f 94/109/94 98/110/98 88/99/88
f 100/106/100 101/111/101 93/103/93
f 97/104/97 102/112/102 94/109/94
f 94/109/94 102/112/102 98/110/98
f 109/113/109 110/102/110 91/76/91
f 110/102/110 103/114/103 86/92/86
f 98/110/98 105/115/105 95/100/95
f 101/111/101 111/116/111 97/104/97
f 102/112/102 104/117/104 98/110/98
f 98/110/98 104/117/104 105/115/105
f 102/112/102 111/116/111 116/118/116
f 101/111/101 108/119/108 111/116/111
f 114/101/114 131/120/131 161/121/161
f 105/115/105 113/122/113 106/107/106
f 107/108/107 113/122/113 118/123/118
f 103/114/103 115/124/115 120/125/120
f 112/126/112 122/127/122 105/115/105
f 105/115/105 122/127/122 113/122/113
f 111/116/111 108/119/108 121/128/121
f 113/122/113 122/127/122 123/129/123
f 112/126/112 117/130/117 127/131/127
f 123/129/123 143/132/143 118/123/118
f 118/123/118 143/132/143 119/133/119
f 121/128/121 124/134/124 116/118/116
f 116/118/116 124/134/124 125/135/125
f 120/125/120 133/136/133 134/137/134
f 127/131/127 137/138/137 122/127/122
f 122/127/122 137/138/137 123/129/123
f 123/129/123 137/138/137 138/139/138
f 128/140/128 129/141/129 121/128/121
f 129/141/129 135/142/135 124/134/124
f 131/120/131 143/132/143 148/143/148
f 132/144/132 144/86/144 162/145/162
f 134/137/134 141/146/141 128/140/128
f 141/146/141 139/147/139 129/141/129
f 132/144/132 151/148/151 133/136/133
f 140/149/140 142/150/142 137/138/137
f 134/137/134 152/151/152 141/146/141
f 141/146/141 154/152/154 139/147/139
f 139/147/139 154/152/154 155/153/155
f 147/154/147 150/155/150 143/132/143
f 140/149/140 146/156/146 149/157/149
f 149/157/149 159/158/159 142/150/142
f 141/146/141 152/151/152 153/159/153
f 148/143/148 150/155/150 181/160/181
f 144/86/144 198/161/198 228/162/228
f 145/163/145 155/153/155 156/164/156
f 228/162/228 210/165/210 144/86/144
f 149/157/149 157/166/157 158/167/158
f 153/159/153 167/168/167 154/152/154
f 161/121/161 181/160/181 189/169/189
f 156/164/156 163/170/163 164/171/164
f 156/164/156 164/171/164 157/166/157
f 162/145/162 182/172/182 151/148/151
f 158/167/158 172/173/172 159/158/159
f 159/158/159 172/173/172 160/174/160
f 160/174/160 172/173/172 173/175/173
f 154/152/154 167/168/167 168/176/168
f 154/152/154 168/176/168 155/153/155
f 158/167/158 165/177/165 169/178/169
f 165/177/165 171/179/171 169/178/169
f 166/180/166 174/181/174 167/168/167
f 168/176/168 170/182/170 163/170/163
f 210/165/210 182/172/182 162/145/162
f 164/171/164 171/179/171 165/177/165
f 174/181/174 176/183/176 167/168/167
f 168/176/168 176/183/176 177/184/177
f 169/178/169 171/179/171 179/185/179
f 173/175/173 180/186/180 194/187/194
f 181/160/181 175/188/175 203/189/203
f 177/184/177 178/190/178 170/182/170
f 182/172/182 183/191/183 166/180/166
f 166/180/166 183/191/183 190/192/190
f 184/193/184 185/194/185 179/185/179
f 177/184/177 186/195/186 187/196/187
f 177/184/177 187/196/187 178/190/178
f 181/160/181 203/189/203 208/197/208
f 179/185/179 193/198/193 180/186/180
f 176/183/176 191/199/191 186/195/186
f 176/183/176 186/195/186 177/184/177
f 210/165/210 204/200/204 182/172/182
f 184/193/184 192/201/192 185/194/185
f 179/185/179 185/194/185 193/198/193
f 185/194/185 192/201/192 201/202/201
f 193/198/193 197/203/197 188/204/188
f 191/199/191 200/205/200 186/195/186
f 208/197/208 242/206/242 189/169/189
f 204/200/204 214/207/214 190/192/190
f 194/187/194 197/203/197 202/208/202
f 196/209/196 207/210/207 192/201/192
f 201/202/201 212/211/212 197/203/197
f 200/205/200 205/212/205 195/213/195
f 202/208/202 213/214/213 203/189/203
f 208/197/208 203/189/203 227/215/227
f 196/209/196 206/216/206 207/210/207
f 199/217/199 219/218/219 200/205/200
f 202/208/202 218/219/218 213/214/213
f 203/189/203 213/214/213 227/215/227
f 219/220/219 215/221/215 205/222/205
f 208/223/208 227/224/227 242/225/242
f 237/226/237 243/227/243 204/228/204
f 242/225/242 20/30/20 209/229/209
f 228/230/228 237/226/237 210/231/210
f 217/232/217 224/233/224 211/234/211
f 211/234/211 224/233/224 220/235/220
f 213/236/213 218/237/218 226/238/226
f 220/235/220 224/233/224 231/239/231
f 243/227/243 229/240/229 214/241/214
f 220/235/220 225/242/225 218/237/218
f 219/220/219 222/243/222 215/221/215
f 216/244/216 215/221/215 223/245/223
f 221/246/221 232/247/232 219/220/219
f 215/221/215 222/243/222 230/248/230
f 222/243/222 232/247/232 239/249/239
f 223/245/223 230/248/230 233/250/233
f 223/245/223 233/250/233 224/233/224
f 231/239/231 234/251/234 225/242/225
f 225/242/225 234/251/234 235/252/235
f 230/248/230 239/249/239 240/253/240
f 233/250/233 241/254/241 231/239/231
f 243/227/243 249/255/249 229/240/229
f 244/256/244 241/254/241 233/250/233
f 241/254/241 254/257/254 234/251/234
f 238/258/238 246/259/246 232/247/232
f 244/256/244 252/260/252 241/254/241
f 239/249/239 246/259/246 247/261/247
f 248/262/248 257/263/257 245/264/245
f 198/16/198 4/18/4 237/226/237
f 242/225/242 236/265/236 272/266/272
f 257/263/257 258/267/258 245/264/245
f 244/256/244 251/268/251 252/260/252
f 248/262/248 254/257/254 268/269/268
f 248/262/248 268/269/268 257/263/257
f 247/261/247 250/270/250 255/271/255
f 252/260/252 256/272/256 253/273/253
f 255/271/255 261/274/261 251/268/251
f 251/268/251 261/274/261 262/275/262
f 259/276/259 269/277/269 249/255/249
f 253/273/253 267/278/267 254/257/254
f 271/279/271 275/280/275 258/267/258
f 260/281/260 264/282/264 250/270/250
f 255/271/255 264/282/264 265/283/265
f 267/278/267 266/284/266 274/285/274
f 261/274/261 265/283/265 270/286/270
f 272/266/272 258/267/258 27/45/27
f 263/287/263 4/18/4 21/1/21
f 267/278/267 274/285/274 277/6/277
f 267/278/267 277/6/277 268/269/268
f 9/7/9 15/22/15 271/279/271
f 270/286/270 276/10/276 2/11/2
f 258/267/258 275/280/275 12/24/12
f 269/277/269 1/3/1 16/33/16
f 15/22/15 12/24/12 275/280/275
f 3/288/3 7/19/7 273/289/273
f 23/25/23 10/13/10 18/15/18
f 7/19/7 3/288/3 11/20/11
f 276/10/276 17/9/17 6/12/6
f 9/7/9 14/14/14 15/22/15
f 5/8/5 16/33/16 17/9/17
f 6/12/6 18/15/18 10/13/10
f 21/1/21 4/18/4 61/17/61
f 8/4/8 13/21/13 19/5/19
f 38/40/38 14/14/14 25/28/25
f 12/24/12 26/23/26 27/45/27
f 11/20/11 23/25/23 13/21/13
f 1/3/1 28/2/28 16/33/16
f 27/45/27 55/31/55 20/30/20
f 19/5/19 13/21/13 30/27/30
f 16/33/16 31/37/31 17/9/17
f 30/27/30 36/35/36 37/53/37
f 17/9/17 22/39/22 18/15/18
f 23/25/23 18/15/18 29/42/29
f 16/33/16 33/32/33 31/37/31
f 25/28/25 19/5/19 30/27/30
f 22/39/22 17/9/17 31/37/31
f 26/23/26 15/22/15 38/40/38
f 28/2/28 39/58/39 33/32/33
f 66/68/66 57/55/57 51/64/51
f 29/42/29 18/15/18 34/38/34
f 23/25/23 35/43/35 32/34/32
f 27/45/27 48/44/48 55/31/55
f 40/36/40 30/27/30 37/53/37
f 25/28/25 40/36/40 38/40/38
f 29/42/29 42/47/42 35/43/35
f 28/2/28 49/48/49 39/58/39
f 36/35/36 32/34/32 43/49/43
f 37/53/37 36/35/36 44/51/44
f 37/53/37 45/52/45 40/36/40
f 42/47/42 34/38/34 41/46/41
f 38/40/38 54/50/54 46/41/46
f 35/43/35 42/47/42 43/49/43
f 43/49/43 53/61/53 44/51/44
f 39/58/39 69/57/69 50/59/50
f 44/51/44 47/62/47 45/52/45
f 56/54/56 33/32/33 50/59/50
f 54/50/54 40/36/40 60/60/60
f 44/51/44 53/61/53 47/62/47
f 45/52/45 59/63/59 60/60/60
f 57/55/57 41/46/41 51/64/51
f 52/56/52 62/71/62 53/61/53
f 59/63/59 47/62/47 58/65/58
f 3/288/3 10/13/10 11/20/11
f 58/65/58 53/61/53 63/73/63
f 54/50/54 60/60/60 64/69/64
f 67/78/67 62/71/62 57/55/57
f 60/60/60 71/74/71 64/69/64
f 66/68/66 56/54/56 73/75/73
f 90/96/90 64/69/64 76/77/76
f 49/48/49 91/76/91 69/57/69
f 73/75/73 50/59/50 78/82/78
f 87/90/87 80/84/80 79/83/79
f 77/70/77 65/66/65 90/96/90
f 91/76/91 61/17/61 109/113/109
f 63/73/63 62/71/62 75/81/75
f 63/73/63 75/81/75 70/88/70
f 58/65/58 63/73/63 70/88/70
f 58/65/58 70/88/70 71/74/71
f 74/79/74 66/68/66 79/83/79
f 61/17/61 144/86/144 109/113/109
f 83/72/83 77/70/77 99/97/99
f 69/57/69 91/76/91 72/67/72
f 72/67/72 86/92/86 78/82/78
f 71/74/71 82/89/82 76/77/76
f 75/81/75 74/79/74 84/91/84
f 75/81/75 84/91/84 85/98/85
f 75/81/75 85/98/85 81/87/81
f 73/75/73 92/93/92 87/90/87
f 55/31/55 83/72/83 114/101/114
f 92/93/92 78/82/78 86/92/86
f 82/89/82 95/100/95 96/94/96
f 94/109/94 84/91/84 97/104/97
f 84/91/84 80/84/80 93/103/93
f 85/98/85 94/109/94 88/99/88
f 119/133/119 89/95/89 107/108/107
f 95/100/95 88/99/88 98/110/98
f 87/90/87 100/106/100 93/103/93
f 104/117/104 116/118/116 117/130/117
f 99/97/99 90/96/90 119/133/119
f 107/108/107 96/94/96 106/107/106
f 93/103/93 101/111/101 97/104/97
f 114/101/114 99/97/99 131/120/131
f 106/107/106 95/100/95 105/115/105
f 100/106/100 86/92/86 103/114/103
f 100/106/100 108/119/108 101/111/101
f 97/104/97 111/116/111 102/112/102
f 99/97/99 119/133/119 131/120/131
f 110/102/110 115/124/115 103/114/103
f 100/106/100 103/114/103 108/119/108
f 107/108/107 106/107/106 113/122/113
f 112/126/112 104/117/104 117/130/117
f 108/119/108 120/125/120 128/140/128
f 107/108/107 118/123/118 119/133/119
f 109/113/109 132/144/132 110/102/110
f 115/124/115 132/144/132 133/136/133
f 118/123/118 113/122/113 123/129/123
f 108/119/108 128/140/128 121/128/121
f 116/118/116 111/116/111 121/128/121
f 132/144/132 109/113/109 144/86/144
f 114/101/114 161/121/161 209/105/209
f 135/142/135 125/135/125 124/134/124
f 112/126/112 127/131/127 122/127/122
f 131/120/131 119/133/119 143/132/143
f 117/130/117 116/118/116 125/135/125
f 117/130/117 125/135/125 126/290/126
f 127/131/127 117/130/117 126/290/126
f 120/125/120 115/124/115 133/136/133
f 121/128/121 129/141/129 124/134/124
f 120/125/120 134/137/134 128/140/128
f 123/129/123 138/139/138 143/132/143
f 130/291/130 126/290/126 125/135/125
f 136/292/136 127/131/127 126/290/126
f 142/150/142 138/139/138 137/138/137
f 127/131/127 140/149/140 137/138/137
f 128/140/128 141/146/141 129/141/129
f 129/141/129 139/147/139 135/142/135
f 131/120/131 148/143/148 161/121/161
f 136/292/136 146/156/146 140/149/140
f 133/136/133 151/148/151 152/151/152
f 134/137/134 133/136/133 152/151/152
f 146/156/146 130/291/130 145/163/145
f 138/139/138 147/154/147 143/132/143
f 135/142/135 139/147/139 145/163/145
f 130/291/130 135/142/135 145/163/145
f 146/156/146 156/164/156 157/166/157
f 140/149/140 149/157/149 142/150/142
f 132/144/132 162/145/162 151/148/151
f 147/154/147 142/150/142 159/158/159
f 141/146/141 153/159/153 154/152/154
f 147/154/147 160/174/160 150/155/150
f 148/143/148 143/132/143 150/155/150
f 145/163/145 139/147/139 155/153/155
f 209/105/209 161/121/161 189/169/189
f 161/121/161 148/143/148 181/160/181
f 166/180/166 151/148/151 182/172/182
f 149/157/149 146/156/146 157/166/157
f 149/157/149 158/167/158 159/158/159
f 147/154/147 159/158/159 160/174/160
f 181/160/181 150/155/150 175/188/175
f 156/164/156 155/153/155 163/170/163
f 162/145/162 144/86/144 210/165/210
f 157/166/157 164/171/164 165/177/165
f 158/167/158 157/166/157 165/177/165
f 150/155/150 173/175/173 175/188/175
f 153/159/153 152/151/152 166/180/166
f 153/159/153 166/180/166 167/168/167
f 170/182/170 164/171/164 163/170/163
f 163/170/163 155/153/155 168/176/168
f 158/167/158 169/178/169 172/173/172
f 168/176/168 167/168/167 176/183/176
f 178/190/178 171/179/171 170/182/170
f 168/176/168 177/184/177 170/182/170
f 173/175/173 172/173/172 180/186/180
f 173/175/173 194/187/194 175/188/175
f 180/186/180 169/178/169 179/185/179
f 171/179/171 184/193/184 179/185/179
f 206/216/206 195/213/195 205/212/205
f 174/181/174 166/180/166 190/192/190
f 175/188/175 194/187/194 203/189/203
f 174/181/174 190/192/190 191/199/191
f 176/183/176 174/181/174 191/199/191
f 181/160/181 208/197/208 189/169/189
f 184/193/184 178/190/178 187/196/187
f 180/186/180 193/198/193 188/204/188
f 194/187/194 180/186/180 188/204/188
f 184/193/184 187/196/187 196/209/196
f 184/193/184 196/209/196 192/201/192
f 183/191/183 182/172/182 204/200/204
f 183/191/183 204/200/204 190/192/190
f 209/293/209 189/169/189 242/206/242
f 185/194/185 201/202/201 193/198/193
f 190/192/190 199/217/199 191/199/191
f 194/187/194 188/204/188 197/203/197
f 186/195/186 200/205/200 195/213/195
f 194/187/194 202/208/202 203/189/203
f 187/196/187 186/195/186 195/213/195
f 187/196/187 195/213/195 196/209/196
f 201/202/201 192/201/192 207/210/207
f 193/198/193 201/202/201 197/203/197
f 191/199/191 199/217/199 200/205/200
f 199/217/199 190/192/190 214/207/214
f 197/203/197 212/211/212 218/219/218
f 202/208/202 197/203/197 218/219/218
f 216/244/216 205/222/205 215/221/215
f 210/165/210 237/294/237 204/200/204
f 200/205/200 219/218/219 205/212/205
f 201/202/201 207/210/207 211/295/211
f 201/202/201 211/295/211 212/211/212
f 217/232/217 206/296/206 216/244/216
f 229/240/229 199/297/199 214/241/214
f 207/298/207 217/232/217 211/234/211
f 204/228/204 243/227/243 214/241/214
f 245/264/245 227/224/227 226/238/226
f 212/299/212 220/235/220 218/237/218
f 199/297/199 221/246/221 219/220/219
f 227/224/227 213/236/213 226/238/226
f 212/299/212 211/234/211 220/235/220
f 217/232/217 216/244/216 223/245/223
f 217/232/217 223/245/223 224/233/224
f 226/238/226 218/237/218 225/242/225
f 222/243/222 219/220/219 232/247/232
f 223/245/223 215/221/215 230/248/230
f 220/235/220 231/239/231 225/242/225
f 221/246/221 229/240/229 238/258/238
f 226/238/226 225/242/225 235/252/235
f 226/238/226 235/252/235 245/264/245
f 230/248/230 222/243/222 239/249/239
f 240/253/240 233/250/233 230/248/230
f 224/233/224 233/250/233 231/239/231
f 221/246/221 238/258/238 232/247/232
f 248/262/248 234/251/234 254/257/254
f 228/230/228 198/16/198 237/226/237
f 242/225/242 227/224/227 236/265/236
f 242/225/242 272/266/272 20/30/20
f 238/258/238 229/240/229 249/255/249
f 231/239/231 241/254/241 234/251/234
f 237/226/237 263/287/263 243/227/243
f 247/261/247 240/253/240 239/249/239
f 239/249/239 232/247/232 246/259/246
f 235/252/235 248/262/248 245/264/245
f 241/254/241 252/260/252 253/273/253
f 243/227/243 259/276/259 249/255/249
f 241/254/241 253/273/253 254/257/254
f 246/259/246 238/258/238 249/255/249
f 262/275/262 252/260/252 251/268/251
f 244/256/244 240/253/240 251/268/251
f 263/287/263 237/226/237 4/18/4
f 247/261/247 246/259/246 250/270/250
f 236/265/236 245/264/245 258/267/258
f 243/227/243 263/287/263 259/276/259
f 246/259/246 249/255/249 260/281/260
f 246/259/246 260/281/260 250/270/250
f 251/268/251 247/261/247 255/271/255
f 272/266/272 236/265/236 258/267/258
f 255/271/255 250/270/250 264/282/264
f 257/263/257 271/279/271 258/267/258
f 266/284/266 253/273/253 256/272/256
f 3/288/3 270/286/270 2/11/2
f 260/281/260 249/255/249 269/277/269
f 254/257/254 267/278/267 268/269/268
f 261/274/261 255/271/255 265/283/265
f 256/272/256 262/275/262 266/284/266
f 263/287/263 1/3/1 259/276/259
f 257/263/257 268/269/268 271/279/271
f 262/275/262 261/274/261 270/286/270
f 259/276/259 1/3/1 269/277/269
f 260/281/260 269/277/269 5/8/5
f 260/281/260 5/8/5 264/282/264
f 265/283/265 264/282/264 276/10/276
f 273/289/273 262/275/262 3/288/3
f 9/7/9 268/269/268 277/6/277
f 263/287/263 21/1/21 1/3/1
f 274/285/274 266/284/266 273/289/273
f 7/19/7 274/285/274 273/289/273
f 264/282/264 5/8/5 276/10/276
f 270/286/270 265/283/265 276/10/276
f 20/30/20 272/266/272 27/45/27
f 271/279/271 15/22/15 275/280/275
f 258/267/258 12/24/12 27/45/27
f 277/6/277 274/285/274 8/4/8
f 5/8/5 269/277/269 16/33/16
f 2/11/2 276/10/276 6/12/6
f 23/25/23 11/20/11 10/13/10
f 38/40/38 15/22/15 14/14/14
f 30/27/30 24/26/24 36/35/36
f 66/68/66 67/78/67 57/55/57
f 3/288/3 2/11/2 10/13/10
f 67/78/67 68/80/68 62/71/62
f 90/96/90 65/66/65 64/69/64
f 87/90/87 93/103/93 80/84/80
f 94/109/94 85/98/85 84/91/84
f 119/133/119 90/96/90 89/95/89
f 104/117/104 102/112/102 116/118/116
f 112/126/112 105/115/105 104/117/104
f 108/119/108 103/114/103 120/125/120
f 115/124/115 110/102/110 132/144/132
f 135/142/135 130/291/130 125/135/125
f 130/291/130 136/292/136 126/290/126
f 136/292/136 140/149/140 127/131/127
f 142/150/142 147/154/147 138/139/138
f 146/156/146 136/292/136 130/291/130
f 146/156/146 145/163/145 156/164/156
f 166/180/166 152/151/152 151/148/151
f 150/155/150 160/174/160 173/175/173
f 170/182/170 171/179/171 164/171/164
f 178/190/178 184/193/184 171/179/171
f 180/186/180 172/173/172 169/178/169
f 206/216/206 196/209/196 195/213/195
f 216/244/216 206/296/206 205/222/205
f 217/232/217 207/298/207 206/296/206
f 229/240/229 221/246/221 199/297/199
f 245/264/245 236/265/236 227/224/227
f 240/253/240 244/256/244 233/250/233
f 248/262/248 235/252/235 234/251/234
f 247/261/247 251/268/251 240/253/240
f 262/275/262 256/272/256 252/260/252
f 266/284/266 267/278/267 253/273/253
f 3/288/3 262/275/262 270/286/270
f 273/289/273 266/284/266 262/275/262
f 9/7/9 271/279/271 268/269/268
f 7/19/7 8/4/8 274/285/274
