# Blender 4.5.1 LTS
# www.blender.org
o Tail
v -1.000001 10.192503 -6.140708
v -1.000001 5.603890 -12.693925
v 0.999999 5.603890 -12.693925
v 0.999999 10.192503 -6.140708
v -1.000001 11.830808 -7.287861
v 0.999999 11.830808 -7.287861
v 0.999999 7.242194 -13.841079
v -1.000001 7.242194 -13.841079
v -1.000001 10.192503 -6.140708
v 0.999999 10.192503 -6.140708
v 0.999999 11.830808 -7.287861
v -1.000001 11.830808 -7.287861
v 0.999999 10.192503 -6.140708
v 0.999999 5.603890 -12.693925
v 0.999999 7.242194 -13.841079
v 0.999999 11.830808 -7.287861
v 0.999999 5.603890 -12.693925
v -1.000001 5.603890 -12.693925
v -1.000001 7.242194 -13.841079
v 0.999999 7.242194 -13.841079
v -1.000001 5.603890 -12.693925
v -1.000001 10.192503 -6.140708
v -1.000001 11.830808 -7.287861
v -1.000001 7.242194 -13.841079
v -0.000001 11.011655 -6.714285
vn -0.0000 -0.8192 0.5736
vn -0.0000 0.8192 -0.5736
vn -0.0000 0.5736 0.8192
vn 1.0000 -0.0000 -0.0000
vn -0.0000 -0.5736 -0.8192
vn -1.0000 -0.0000 -0.0000
vt 0.171922 0.312500
vt 0.171922 0.437500
vt 0.203087 0.437500
vt 0.203087 0.312500
vt 0.262500 0.312500
vt 0.234361 0.312500
vt 0.234361 0.437500
vt 0.262500 0.437500
vt 0.187505 0.296956
vt 0.171922 0.281413
vt 0.203087 0.281413
vt 0.234361 0.281314
vt 0.140674 0.312500
vt 0.140674 0.437500
s 0
f 1/1/1 2/2/1 3/3/1
f 1/1/1 3/3/1 4/4/1
f 5/5/2 6/6/2 7/7/2
f 5/5/2 7/7/2 8/8/2
f 10/4/3 25/9/3 9/1/3
f 25/9/3 12/10/3 9/1/3
f 13/4/4 14/3/4 15/7/4
f 13/4/4 15/7/4 16/6/4
f 17/6/5 18/4/5 19/11/5
f 17/6/5 19/11/5 20/12/5
f 21/2/6 22/1/6 23/13/6
f 21/2/6 23/13/6 24/14/6
f 10/4/3 11/11/3 25/9/3
f 25/9/3 11/11/3 12/10/3
